<svg xmlns="http://www.w3.org/2000/svg" viewBox="0 0 372.95 357.43"><defs><style>.cls-1{isolation:isolate;}.cls-2{fill:#f36f32;opacity:0.2;}.cls-3{fill:#f7941d;}.cls-4{fill:#d3d3d3;}.cls-5{fill:#fff;}.cls-6{fill:#fdb93d;}.cls-7{fill:#e83d32;}.cls-17,.cls-8{fill:none;stroke-miterlimit:10;}.cls-8{stroke:#27aae1;stroke-width:3px;}.cls-9{fill:#181819;}.cls-10{fill:#4a494a;}.cls-11{fill:#808282;}.cls-12{fill:#333;}.cls-13{fill:#27aae1;}.cls-14{fill:#be1e2d;}.cls-15{fill:#383838;opacity:0.1;mix-blend-mode:multiply;}.cls-16{fill:#4d4e4e;}.cls-17{stroke:#7b7b7b;stroke-width:2px;}</style></defs><title>Artboard 85 copy</title><g class="cls-1"><g id="Layer_1" data-name="Layer 1"><path class="cls-2" d="M104.31,336.19a31.35,31.35,0,0,1,15.9,4.3l.84.65H262.37a174.38,174.38,0,1,0-159.06-4.81Z"/><circle class="cls-3" cx="187.52" cy="186.44" r="120.41"/><polygon class="cls-4" points="77.79 245.51 77.79 291.27 99.28 291.51 97.53 244.25 77.79 245.51"/><path class="cls-5" d="M285.88,211.81a9.09,9.09,0,0,0-2.48-6.87c-2.22-2.31-5.55-3.43-10.2-3.43-.72,0-1.47,0-2.23.08,2.64-3.49,4-6.72,4.2-9.78a10.48,10.48,0,0,0-3.78-8.76,8.91,8.91,0,0,0-5.91-2.25c-2.81,0-11.29,0-26.62,31.17a68.75,68.75,0,0,1-39.41,12.12c-.88,0-1.77,0-2.65-.06l-1.86-.09-1.26-.08-2-.19-1.07-.11-1.47-.19.08-.06.16-.14.72-.55a48,48,0,0,0,6.63-6.43,5,5,0,0,0,6-.48,64,64,0,0,0,8.77-10.09,5,5,0,0,0,5.58-1.41,85.15,85.15,0,0,0,14.66-26.46,5,5,0,0,0,.89-.48c.17-.12,14.52-10.09,8.31-29a5,5,0,0,0,3-6.07c-.19-.63-3.81-12.45-16.09-22h0a5,5,0,0,0-.55-6.4,46,46,0,0,0-21.87-11.07l-4.34-12.52,2.5.29a5,5,0,0,0,5.29-6.64c-.56-1.56-2.68-5.23-10.69-8.62,2.25-15.15-4.38-34.56-4.69-35.47a5,5,0,0,0-4.72-3.36l-.43,0C166,38.36,154.16,47.59,148,55.65l-5.95-16.73a8.26,8.26,0,0,0,1-6.8,6.65,6.65,0,0,0-5-4.22,7.94,7.94,0,0,0-1.78-.21,6.75,6.75,0,0,0-5.06,2.22A8.77,8.77,0,0,0,129.19,35L90.84,49.89a10.06,10.06,0,0,0-5.11-1.59A6.92,6.92,0,0,0,79.17,53a6.58,6.58,0,0,0,.65,6.24,7.43,7.43,0,0,0,5.25,3l8.3,15.5a5,5,0,0,0,.37.59,100.56,100.56,0,0,0-29.91-4.9c-11.1,0-21.07,2.27-29.66,6.75a5,5,0,0,0-2.69,4.48c0,1.67.88,16.77,24.91,47.4-5.46,6.15-16.31,20-17.83,34.05a5,5,0,0,0,3.56,5.33l.48.12c-1.84,10.3-1.25,21.61,5.86,30.73a5,5,0,0,0,3.95,1.93l.27,0c3.5,10.4,9.3,21.92,18.8,28.67a5,5,0,0,0,7.57-2.3,62.88,62.88,0,0,0,13.41,7.06,73.08,73.08,0,0,1-13.39,1.27h0a67.42,67.42,0,0,1-29.41-6.65c-12.53-17.71-22.53-26.69-29.73-26.69a9,9,0,0,0-7,3.27,10.48,10.48,0,0,0-2.34,9.25c.71,3.23,2.94,6.29,5.73,9-5.49.49-9.14,2-11.34,4.7a9.14,9.14,0,0,0-1.8,7.75c.55,2.75,3,9.14,13.78,9.14,1,0,2-.05,3-.14a13,13,0,0,0-1.7,6A8.31,8.31,0,0,0,21.43,261a8.6,8.6,0,0,0,5.42,1.9c4,0,8-2.8,11.24-6.13,2.83,6.57,7.35,7.25,9.06,7.25a8.84,8.84,0,0,0,2.52-.37,9.11,9.11,0,0,0,6.11-5.51,10.28,10.28,0,0,0,.65-3.26,86.6,86.6,0,0,0,22.67,3,96.89,96.89,0,0,0,49.73-14.15l-.34,12-7.7,77.51a5,5,0,0,0,5,5.49h55.5a5,5,0,0,0,4.95-5.71L175,254.83h0l-2.15-15.48.15,0,.35.09q1.68.47,3.38.88l.37.08c1.12.26,2.24.51,3.36.74l.44.08c1.1.22,2.2.42,3.3.6l.58.08c1.06.16,2.12.32,3.19.45l.81.08c1,.11,2,.22,3,.3l1.5.09c.77.05,1.54.11,2.31.14h.21c1.24,0,2.49.08,3.73.08a88.76,88.76,0,0,0,36.29-7.7,10.26,10.26,0,0,0,1.16,3.13,9.11,9.11,0,0,0,6.91,4.47,9.29,9.29,0,0,0,1.19.08,8.35,8.35,0,0,0,6.25-2.8,13.5,13.5,0,0,0,2.86-6c3.3,2.44,7.1,4.46,10.62,4.46a8.62,8.62,0,0,0,6.55-2.85,8.31,8.31,0,0,0,2.1-7,13,13,0,0,0-2.62-5.61C283.47,222.44,285.72,215.85,285.88,211.81ZM143.49,63.21l-.28.64c-1.36.32-2.75.68-4.16,1.06Z"/><polygon class="cls-6" points="134.64 214.71 132.12 304.45 176.93 305.38 164.36 214.71 134.64 214.71"/><path class="cls-7" d="M280.89,211.61c.43-10.78-26.93-1.11-26.93-1.11s23.15-15.88,14.17-23.67c-7.45-6.47-20.93,19.46-25.32,28.5-27.6,19.87-65.57,18.12-96.85-4.5l-5.26,7.28c18.38,13.29,38.93,20,58.78,20a82.78,82.78,0,0,0,42.37-11.47c-1.7,4.07-2.63,10.72,2.64,11.41,6.76.88,5.24-14.6,5.24-14.6s12.94,14.55,17.89,9.11-12-15.37-12-15.37S280.46,222.39,280.89,211.61Z"/><path class="cls-6" d="M197,230.51l.16-1.45c-17.28-.51-35.1-6.62-51.15-18.23l-5.26,7.28c17.23,12.46,36.37,19.13,55,19.92A29.62,29.62,0,0,1,197,230.51Z"/><path class="cls-7" d="M147.57,222.77l-6.34-6.35c-27.31,27.28-64.53,35-94.92,19.75-5.76-8.23-23.17-31.7-29.5-24.13-7.64,9.12,17.73,21.14,17.73,21.14S6,227.94,8.12,238.52,34,240,34,240s-15.2,12.49-9.45,17.08,16.22-11.82,16.22-11.82.94,15.53,7.48,13.59c5.09-1.51,3.12-7.92.8-11.68a81.79,81.79,0,0,0,30,5.71C103.24,252.89,127.82,242.5,147.57,222.77Z"/><path class="cls-6" d="M102.15,249.75c16.27-4.44,32-13.54,45.43-27l-6.34-6.35c-12.45,12.44-27,20.8-41.95,24.79Q100.75,245.46,102.15,249.75Z"/><path class="cls-8" d="M137.81,263.65l2.89-36,19.88-2.35s6,42.48,6,40.63"/><polygon class="cls-5" points="130.55 217.5 81.57 199.95 67.26 141.82 63.01 123.3 41.77 89.47 51.86 80.22 84.5 84.54 120.88 98.38 162.63 60.94 183.77 42 185.56 90.42 209.76 126.38 205.78 165.02 173.85 207.04 130.55 217.5"/><path class="cls-7" d="M239.13,143.63s-5.16-17.47-25.51-26c0,0,7.64-1.5,10.13-.34a41.34,41.34,0,0,0-22.08-10.17l-7.92-22.83,10.42,1.22s-1.32-3.71-11.79-7.13c4.33-14.08-3.6-37-3.6-37-31.86,2.75-40,21.11-41.82,26.74a146.29,146.29,0,0,0-27.69,9s5.63-7.38,12.85-9.82a45,45,0,0,0-33.52,18S64,70.23,36.49,84.59c0,0,.16,15.2,26.51,47.71,0,0-17.62,17.35-19.46,34.33,0,0,8.31-16.57,14.34-21.05,0,0-20.93,33.77-5.47,53.63,0,0-2.47-13.79.95-18.58,0,0,.53,13.16,5.61,23.81l-.73-.3A12.85,12.85,0,0,1,60.17,206l.13.18a34.41,34.41,0,0,1,5.73,1c-1.51-4-2.65-8.34-1.87-11.19a121.27,121.27,0,0,0,6.38,12.79c.74.32,1.49.61,2.22,1,4.46,2.3,8.69,4.78,12.87,7.47l6.83.63c11,2.71,18.21,5.22,30.17,6.16,10.93.86,21.7,2,32.56,3.46,5.23.71,8.89-.94,14.59-2,7.78-1.41,12.22-5.13.2,1.84A47.35,47.35,0,0,1,180,223l-.13-.07h0l2-1A26.31,26.31,0,0,0,187,218.7c4.24-3.36,10.29-9.64,14.72-20.32,0,0-.78,11.63-2.28,13.61,0,0,13.31-11.9,14.76-25.15,0,0-.15,11.73-.87,14.12,0,0,14.09-16.39,16.13-35.92,0,0,1,6.71.42,8.09,0,0,16.29-11,1.28-33.3A11.28,11.28,0,0,1,239.13,143.63ZM68,117.59C56.34,110.47,48.32,91,48.32,91c13.87-7.45,36.49,3.66,36.49,3.66C74.74,103.36,68,117.59,68,117.59Zm87.37,43.58c-13.22,3.71-28-3.18-32.46-19.16s-.25-42.12,13-45.82,30.43,16.41,34.91,32.4S168.55,157.47,155.32,161.18Zm27.17-79S164.68,71.88,158.08,70.4c-2.85-.64,6-15.48,23.58-19.12C181.67,51.29,189.3,72.7,182.49,82.22Z"/><path class="cls-7" d="M52.66,181.25S56,215.71,74.38,228.78c0,0-6.93-13.73-7.92-20.31,0,0,9.81,26.35,50.46,29.3A48,48,0,0,1,97,224.9s53.89,21.6,89.13-5.55l-75-11.85S75,179,74.22,179,52.66,181.25,52.66,181.25Z"/><path class="cls-5" d="M126.45,199c16.17,5.58,35.15,3.13,56.52-7.31a.91.91,0,0,0-.79-1.63c-22.82,11.15-42.8,13-59.37,5.54C97,184,88.33,153.33,88.24,153a.91.91,0,0,0-1.75.48c.09.32,9,31.76,35.56,43.74Q124.22,198.22,126.45,199Z"/><path class="cls-5" d="M76.8,157.13s3.08-25.52,19.86-8c0,0-14.39-11.92-19.7,11.94"/><path class="cls-5" d="M179.34,149.44C169.09,155.26,195,159.61,195,159.61s4.68-8.34,5.37-15.29S189.58,143.61,179.34,149.44Z"/><ellipse class="cls-7" cx="143.5" cy="143.69" rx="3.74" ry="8.79" transform="translate(-12.34 13.49) rotate(-5.16)"/><ellipse class="cls-5" cx="181.26" cy="134.23" rx="3.74" ry="8.79" transform="translate(-11.34 16.85) rotate(-5.16)"/><path class="cls-9" d="M249.34,161.33H310A20.64,20.64,0,0,1,330.67,182V205.6a0,0,0,0,1,0,0H249.34a0,0,0,0,1,0,0V161.33A0,0,0,0,1,249.34,161.33Z"/><rect class="cls-10" x="191.55" y="177.22" width="36.11" height="16.55" rx="7.03" ry="7.03"/><path class="cls-11" d="M218.71,183.47h32.74a0,0,0,0,1,0,0v4a0,0,0,0,1,0,0H218.71a2,2,0,0,1-2-2v0A2,2,0,0,1,218.71,183.47Z"/><path class="cls-12" d="M249.34,161.33h3.76a15.6,15.6,0,0,1,15.6,15.6V205.6a0,0,0,0,1,0,0H249.34a0,0,0,0,1,0,0V161.33A0,0,0,0,1,249.34,161.33Z"/><path class="cls-13" d="M133.48,256.11S154.2,274,170,255.54l11.24,78.25h-55.5Z"/><circle class="cls-14" cx="152.64" cy="233.93" r="3.74"/><path class="cls-14" d="M152,232.79s-18.62-15.48-18.91,1.14S152,235.72,152,235.72Z"/><path class="cls-14" d="M153.72,232.79s18.62-15.48,18.91,1.14-18.91,1.79-18.91,1.79Z"/><path class="cls-13" d="M143.5,57.86l-7-19.65c1.6-2,3.16-4.81.48-5.43-3-.69-3.06,3.14-2.82,5.65l-44,17.08c-2-1.59-5.25-3.65-6.31-.78-.89,2.4,1.8,2.75,4.27,2.61l9.65,18Z"/><path class="cls-15" d="M106.5,64.73,99.1,52l-8.94,3.47c-2-1.59-5.25-3.65-6.31-.78-.89,2.4,1.8,2.75,4.27,2.61l9.65,18,13-5A29.3,29.3,0,0,1,106.5,64.73Z"/><path class="cls-15" d="M135.08,303.3s17.56,11.86,37.27,0C172.35,303.3,155.47,319.29,135.08,303.3Z"/><rect class="cls-4" x="254.36" y="256.57" width="5.83" height="11.53"/><path class="cls-5" d="M165.89,292.49l-3-17.31a2.59,2.59,0,0,0-3-2.11l-2.92.5c.32.08.65.15,1,.25a15.76,15.76,0,0,1,3.64,1.54l-1.9,4.36a7.85,7.85,0,0,0-5.15-1.9c-2-.12-3.05.62-3.15,2.22a2.14,2.14,0,0,0,.89,1.75,20.16,20.16,0,0,0,4.1,2.29,13,13,0,0,1,3.45,2.18,7.56,7.56,0,0,1,1,1.16,6.94,6.94,0,0,1,1.17,4.47,6.62,6.62,0,0,1-1.62,4.15l3.31-.56A2.59,2.59,0,0,0,165.89,292.49Z"/><path class="cls-5" d="M155.22,289.57a15.82,15.82,0,0,0-3.81-2.34,16.12,16.12,0,0,1-2.89-1.77,6.92,6.92,0,0,1-3-6A6,6,0,0,1,147,275.7a6.86,6.86,0,0,1,.51-.5l-4.84.84a2.58,2.58,0,0,0-2.11,3l3,17.31a2.58,2.58,0,0,0,3,2.1l2-.34-.16,0a19.73,19.73,0,0,1-3.7-1.85l2.31-4.45a9.12,9.12,0,0,0,5.69,2.38c2.25.13,3.4-.6,3.5-2.19A3,3,0,0,0,155.22,289.57Z"/></g><g id="Layer_2" data-name="Layer 2"><path class="cls-12" d="M321.07,205.6H245.53a6,6,0,0,0-6,6v38.92a6,6,0,0,0,6,6H273.8a6.89,6.89,0,0,1,6.89,6.89v34.6A6.89,6.89,0,0,1,273.8,305H233.69a6,6,0,0,0-6,6v16.78a6,6,0,0,0,6,6h87.38Z"/><rect class="cls-16" x="225.21" y="213.94" width="26.24" height="36"/><rect class="cls-11" x="225.21" y="213.94" width="11.87" height="36"/><rect class="cls-7" x="11.31" y="333.79" width="350.26" height="12.68"/><path class="cls-9" d="M345.52,205.6H270a6,6,0,0,0-6,6v38.92a6,6,0,0,0,6,6h28.27a6.89,6.89,0,0,1,6.89,6.89v34.6a6.89,6.89,0,0,1-6.89,6.89H258.14a6,6,0,0,0-6,6v16.78a6,6,0,0,0,6,6h87.38Z"/><path class="cls-5" d="M292.55,187.58h17.61a0,0,0,0,1,0,0v9a8.27,8.27,0,0,1-8.27,8.27h-1.06a8.27,8.27,0,0,1-8.27-8.27v-9A0,0,0,0,1,292.55,187.58Z" transform="translate(602.7 392.43) rotate(180)"/><path class="cls-5" d="M311.61,192a5.47,5.47,0,1,1-5.57,5.46A5.52,5.52,0,0,1,311.61,192Zm0,9.09a3.63,3.63,0,1,0-3.7-3.63A3.67,3.67,0,0,0,311.61,201.11Z"/><path class="cls-15" d="M292.55,195.77v9.08h5.12c-.68-3.81-1.47-12.48,4-17.28h-.72A8.27,8.27,0,0,0,292.55,195.77Z"/><path class="cls-5" d="M292.55,170.73h17.61a0,0,0,0,1,0,0v9a8.27,8.27,0,0,1-8.27,8.27h-1.06a8.27,8.27,0,0,1-8.27-8.27v-9A0,0,0,0,1,292.55,170.73Z" transform="translate(602.7 358.75) rotate(180)"/><path class="cls-5" d="M311.61,175.18a5.47,5.47,0,1,1-5.57,5.46A5.52,5.52,0,0,1,311.61,175.18Zm0,9.09a3.63,3.63,0,1,0-3.7-3.63A3.67,3.67,0,0,0,311.61,184.27Z"/><path class="cls-15" d="M292.55,178.93V188h5.12c-.68-3.81-1.47-12.48,4-17.28h-.72A8.27,8.27,0,0,0,292.55,178.93Z"/><path class="cls-5" d="M240.2,272.27h33.09a0,0,0,0,1,0,0V289.2a15.55,15.55,0,0,1-15.55,15.55h-2A15.55,15.55,0,0,1,240.2,289.2V272.27a0,0,0,0,1,0,0Z"/><path class="cls-5" d="M237.46,296.4a10.27,10.27,0,1,1,10.46-10.27A10.38,10.38,0,0,1,237.46,296.4Zm0-17.09a6.82,6.82,0,1,0,7,6.82A6.89,6.89,0,0,0,237.46,279.31Z"/><path class="cls-15" d="M273.28,289.34V272.27h-9.62c1.27,7.15,2.77,23.46-7.43,32.47h1.36A15.55,15.55,0,0,0,273.28,289.34Z"/><rect class="cls-12" x="282.89" y="219.62" width="30.45" height="5.71" rx="2.86" ry="2.86"/><rect class="cls-12" x="282.89" y="229.08" width="30.45" height="5.71" rx="2.86" ry="2.86"/><rect class="cls-12" x="282.89" y="238.54" width="30.45" height="5.71" rx="2.86" ry="2.86"/><path class="cls-17" d="M290.49,187.51h40.56A11.49,11.49,0,0,1,342.55,199v6.59a0,0,0,0,1,0,0H279a0,0,0,0,1,0,0V199A11.49,11.49,0,0,1,290.49,187.51Z"/><path class="cls-9" d="M343.82,255.54h.87A17.32,17.32,0,0,1,362,272.86v60.93a0,0,0,0,1,0,0H343.82a0,0,0,0,1,0,0V255.54A0,0,0,0,1,343.82,255.54Z"/><polygon class="cls-5" points="59 241.4 59 294.39 91.17 294.67 88.56 239.94 59 241.4"/><rect class="cls-9" x="234.07" y="312.14" width="13.86" height="3.19" rx="1.6" ry="1.6"/><rect class="cls-9" x="234.07" y="316.56" width="13.86" height="3.19" rx="1.6" ry="1.6"/><rect class="cls-9" x="234.07" y="320.99" width="13.86" height="3.19" rx="1.6" ry="1.6"/><circle class="cls-16" cx="231.03" cy="226.64" r="4.03"/><circle class="cls-16" cx="231.03" cy="237.05" r="4.03"/></g></g></svg>