<svg xmlns="http://www.w3.org/2000/svg" xmlns:xlink="http://www.w3.org/1999/xlink" viewBox="0 0 372.95 357.43"><defs><style>.cls-1,.cls-10,.cls-16,.cls-17{fill:none;}.cls-2{isolation:isolate;}.cls-3,.cls-4{fill:#8dd5e8;}.cls-10,.cls-3,.cls-8{opacity:0.2;}.cls-5{fill:#fff;}.cls-6{fill:#474038;}.cls-7{fill:#f8ae41;}.cls-8{fill:#231f20;}.cls-10,.cls-8{mix-blend-mode:multiply;}.cls-9{clip-path:url(#clip-path);}.cls-10{stroke:#231f20;stroke-width:0.47px;}.cls-10,.cls-16,.cls-17{stroke-miterlimit:10;}.cls-11{fill:#292625;}.cls-12{fill:#e63f34;}.cls-13{fill:#e83d32;}.cls-14{fill:#dd80b4;}.cls-15{fill:#a85285;}.cls-16,.cls-17{stroke:#292625;}.cls-17{stroke-dasharray:4.05 4.05;}</style><clipPath id="clip-path"><path class="cls-1" d="M294,92.78,314.25,86s-12.71,23.64-12.85,24.3S294,92.78,294,92.78Z"/></clipPath></defs><title>Artboard 85 copy 6</title><g class="cls-2"><g id="Layer_2" data-name="Layer 2"><circle class="cls-3" cx="186.48" cy="185.83" r="152.36"/><circle class="cls-4" cx="186.48" cy="185.83" r="105.22"/><path class="cls-5" d="M328.87,189.7c-7.34-8.56-30.94,5.17-31.17,5.31l-.16.1c-1.06.71-2,1.39-2.9,2.06-4.22-5.23-10.76-11.52-17.42-7.94l-.14.08a7.49,7.49,0,0,0-3.69,8.66c.91,3.41,4.36,6.94,8.28,9.63L223.79,239l-1.37-6.3a74.28,74.28,0,0,0,5.91-7.8c0-.07.07-.14.11-.21.19-.29.38-.57.58-.87.43-.67.86-1.39,1.3-2.17l62.59-48.45a11.8,11.8,0,0,0,6.47,2.19,9.25,9.25,0,0,0,2.38-.31c3.88-1,5.26-3.37,5.76-5,6.35,1.6,12.74,1.41,15.87-4.33a5,5,0,0,0-.1-5,14.87,14.87,0,0,0-6.74-5.74c5.63-3.74,7-6.51,7.31-8.83a7.07,7.07,0,0,0-2.67-6.56c-8.61-7.27-29.71,10.06-29.92,10.24l-.14.13c-.93.87-1.77,1.7-2.53,2.5-5-4.49-12.47-9.65-18.47-5l-.13.1a7.49,7.49,0,0,0-2.25,9.14c1.45,3.22,5.42,6.15,9.71,8.18L254.77,182.5a93.47,93.47,0,0,0,2.54-23,5,5,0,0,0,.94-1c.14-.19,11.89-16.31-2.35-34.33A5,5,0,0,0,257.3,117c-.44-.62-8.93-12.24-26.13-17.85a5,5,0,0,0-2.37-6.54,50.64,50.64,0,0,0-20.63-4.17,53.83,53.83,0,0,0-7.3.5L190.44,75.74l4-.88a5,5,0,0,0,2.83-8c-1.13-1.42-4.76-4.54-14.92-5.11-3-17.27-17.72-36.16-18.4-37a5,5,0,0,0-6-1.48c-32.56,14.51-37.73,36.64-38.3,46.53q-3.59,2.25-7.26,4.87a5,5,0,0,0-5.81-2c-.93.31-21.83,7.61-31.51,31.8H73.37c-13,0-45.62,2.36-66.25,24.23a5,5,0,0,0-1.07,5.12c.64,1.8,7.24,17.81,45.14,42.1-3.52,8.37-10.45,27.79-6.77,43.85a5,5,0,0,0,4.87,3.88h.24a5,5,0,0,0,1.22-.21c1.75,12,6.54,24.21,17.73,31.48a5,5,0,0,0,5.12.19c7.67,10,18.31,20.52,31.21,24.29a5,5,0,0,0,6.32-5.69,72.67,72.67,0,0,0,21,3,97.36,97.36,0,0,0,25-3.48,5,5,0,0,0,2-8.55c1.7-.29,3.44-.61,5.21-1l6.45,26.31A106.06,106.06,0,0,0,186.48,291a104.76,104.76,0,0,0,46.29-10.72l-5.43-25,68.27-37.09a11.21,11.21,0,0,0,7.52,3.33q.44,0,.9,0c4-.38,5.74-2.48,6.48-4,6,2.6,12.35,3.43,16.36-1.73a5,5,0,0,0,.69-4.92,14.88,14.88,0,0,0-5.73-6.75c6.16-2.79,7.94-5.31,8.64-7.54A7.07,7.07,0,0,0,328.87,189.7Z"/><ellipse class="cls-6" cx="259.72" cy="52.26" rx="3.91" ry="3.93" transform="translate(101.81 264.98) rotate(-64.79)"/><path class="cls-7" d="M294,92.78,314.25,86s-12.71,23.64-12.85,24.3S294,92.78,294,92.78Z"/><ellipse class="cls-5" cx="258.51" cy="49.57" rx="0.48" ry="0.42" transform="translate(38.94 194.74) rotate(-44.32)"/><path class="cls-7" d="M248.07,55.16s-2.94-4.28-4.63-3.55c-4.66,2-1.1,51.8,51,41.5C294.46,93.11,303,21.48,248.07,55.16Z"/><path class="cls-7" d="M290.56,58.44c5.49-3.41,14.56,1.11,16.55,6.94.61,1.69-.3,4.82-2.62,3.58-1.24-.61-2-2.21-2.81-3.26a20.13,20.13,0,0,0-3.37-3.42c-3-2.31-5.69-2.27-9.12-1.36.08,0,.14-.1.29-.12"/><path class="cls-7" d="M288.62,59.76c.43-6.45,9.4-11.17,15.3-9.39,1.73.5,3.74,3.05,1.38,4.21-1.22.65-3,.32-4.29.38a20.19,20.19,0,0,0-4.74.75c-3.62,1.09-5.16,3.3-6.42,6.61,0-.07,0-.17.08-.31"/><path class="cls-7" d="M290.39,60.57c5-.33,9.52,6,8.77,10.74-.2,1.37-2,3.18-3.08,1.49-.62-.86-.55-2.23-.73-3.24A15.6,15.6,0,0,0,294.27,66c-1.21-2.66-3.06-3.61-5.72-4.24.05,0,.13,0,.24,0"/><path class="cls-8" d="M288.74,79.24s3.14,5.2-3.2,5c0,0,4.57.26,3.26-4.91Z"/><path class="cls-8" d="M287.44,74s3.14,5.2-3.2,5c0,0,4.57.26,3.26-4.91Z"/><path class="cls-8" d="M282,75.82s2.47,4.1-2.52,4c0,0,3.6.21,2.57-3.87Z"/><path class="cls-8" d="M283.86,81.07s3.14,5.2-3.2,5c0,0,4.57.26,3.26-4.91Z"/><path class="cls-8" d="M287.38,85.85s2.51,4.16-2.56,4c0,0,3.65.21,2.61-3.93Z"/><path class="cls-8" d="M292.29,81.53s2.51,4.16-2.56,4c0,0,3.65.21,2.61-3.93Z"/><path class="cls-8" d="M291.93,88s1.91,3.17-2,3.06c0,0,2.79.16,2-3Z"/><g class="cls-9"><path class="cls-10" d="M291.49,93.64l22.65-3.53L311.93,94l-18.74-.82,16.62,5.39-3.31,4.65L291.78,91.1l1-.56s11.1,20.7,11.26,20.54"/></g><path class="cls-8" d="M244.17,69.38C257.84,95.5,293,93.14,294.53,93l0,.14C262.68,99.45,249,83.34,244.17,69.38Z"/><path class="cls-5" d="M248.07,55.16c23.7-14.54,35.58-9.45,41.43,1-1.29-2.23-12-18.42-41.32-.47,0,0-2.34-3.7-5.32-3.55a1.37,1.37,0,0,1,.57-.55C245.14,50.88,248.07,55.16,248.07,55.16Z"/><path class="cls-5" d="M290.22,55.52c2.92-4.09,9.2-6.52,13.7-5.15a3.79,3.79,0,0,1,1.53.94C302.86,50.34,297.09,49.37,290.22,55.52Z"/><path class="cls-5" d="M307.12,65.39a3.92,3.92,0,0,1,0,2.26c-.28-2.36-2.12-9.23-14.09-10.18C298.46,56.33,305.4,60.37,307.12,65.39Z"/><ellipse class="cls-6" cx="264.07" cy="56.27" rx="3.91" ry="3.93" transform="translate(100.68 271.22) rotate(-64.79)"/><ellipse class="cls-5" cx="265.01" cy="54.99" rx="0.73" ry="0.64" transform="translate(49.33 218.5) rotate(-48.89)"/><path class="cls-11" d="M228.12,282.48l-11.93-54.86-54.27,4.91,14.21,58q5.11.5,10.35.51A104.86,104.86,0,0,0,228.12,282.48Z"/><rect class="cls-11" x="197.69" y="193.09" width="105.19" height="6.02" transform="translate(-67.67 194.25) rotate(-37.75)"/><path class="cls-12" d="M288.38,162.74c-4.26.67-20.79-6.69-15.22-11.25,4.39-3.37,13,5.63,15.82,8.39l.39-.4a35.6,35.6,0,0,1,5.15-5.76c3.05-2.64,19.29-13.8,23.45-10.18,5.82,4.65-17.08,14.11-20.78,15.64,6.06-2.35,18.08-2,21.79,4.21-3.56,6.54-18.91-1.22-23.68-3.57,2.55,2,11.72,8.74,5.17,10.45-3.39.9-7.07-2.89-9.15-5.1"/><rect class="cls-11" x="197.26" y="230.99" width="105.19" height="6.02" transform="translate(-81.4 147.68) rotate(-28.52)"/><polygon class="cls-5" points="163.02 241.1 103.18 240.47 65.74 182.68 54.15 164.14 18.33 135.37 25.82 121.51 62.92 113.92 107.67 115.28 138.96 58.86 154.82 30.32 174.99 82.28 214.82 112.26 225.04 155.76 206.15 213.44 163.02 241.1"/><path class="cls-13" d="M253.23,120s-12.18-17-37.5-18.62c0,0,7.74-4.5,10.88-4.18a47.55,47.55,0,0,0-27.83-2.75l-17.2-21.84L193.36,70s-2.83-3.54-15.5-3.31C177.27,49.74,160,27.81,160,27.81c-33.6,15-35.58,38-35.39,44.8A168.27,168.27,0,0,0,97.93,92.85s3.34-10.14,10.27-15.51c0,0-21.4,7.21-29.66,32.2,0,0-43.29-3.46-67.79,22.51,0,0,5.89,16.46,46.77,41.87,0,0-12.63,25.49-8.23,44.64,0,0,2.8-21.14,7.66-28.28,0,0-10,44.58,14.24,60.35,0,0-7.88-14.06-6-20.55,0,0,5.53,14.1,15.06,23.76l-.9-.05a14.78,14.78,0,0,1,2.81,1.32l.21.15a39.58,39.58,0,0,1,6.6-1.08c-3.14-3.75-6-8.07-6.25-11.46a139.49,139.49,0,0,0,11.75,11.5c.93.07,1.85.11,2.78.24,5.72.82,11.25,1.93,16.8,3.28l7.66-1.89c12.94-1.18,21.76-1.18,35.11-4.66,12.21-3.18,24.34-6,36.7-8.49,5.95-1.2,9.31-4.37,15.12-7.64,7.93-4.46,11.36-10.18.91,1.92a54.46,54.46,0,0,1,9.24-8.5l-.17,0h0c.62-.59,1.24-1.2,1.86-1.82a30.26,30.26,0,0,0,4.27-5.48c3.34-5.25,7.55-14.35,8.35-27.63,0,0,3.53,12.93,2.64,15.65,0,0,10-17.95,6.58-32.89,0,0,4.25,12.8,4.37,15.67,0,0,9.15-23.12,4-45.11,0,0,3.6,6.92,3.5,8.64,0,0,13.58-18.05-11.14-36.68A13,13,0,0,1,253.23,120ZM57.39,156.07C42.08,152.7,26,134.55,26,134.55c12.28-13.32,41-9.76,41-9.76C59.39,138,57.39,156.07,57.39,156.07Zm111.36,14.49c-13,9-31.6,7.08-42.49-8.61s-16.12-45.68-3.14-54.69,39.25,6.38,50.14,22.07S181.72,161.56,168.75,170.56Zm-.19-96s-23.25-4.54-31-3.66c-3.33.38.65-19.07,18.44-29.65C156,41.21,172.37,61.61,168.56,74.52Z"/><path class="cls-13" d="M64.72,231s16.59,36.2,41.49,43.49c0,0-12.7-12.32-16.26-19.09,0,0,20.58,24.95,65.88,12.85a55.16,55.16,0,0,1-26.48-6.49s66.71,3.2,94.79-39.58l-85.93,15.33s-50-17.32-50.89-17S64.72,231,64.72,231Z"/><path class="cls-14" d="M138.34,220.23a31.29,31.29,0,0,1-3.23-.82c-.92-.13-1.84-.31-2.75-.52a17.94,17.94,0,0,1-2.07-.6c-3.56-1.31-7.56-2.29-10.61-4.6l-.2-.13c-5.46,2.56-11.21,8.47-16.41,20.24-15.78,35.69,34.51,46.8,31.61,19.89C134.68,253.69,125.92,228.53,138.34,220.23Z"/><path class="cls-15" d="M131,218.53c-.25-.08-.5-.15-.75-.24l-1.45-.51C104.67,230.46,118,256,118,256,112.5,232.57,123,222.62,131,218.53Z"/><path class="cls-5" d="M151.59,222.53c19.67,0,39.38-9.83,58.68-29.21a1,1,0,0,0-1.48-1.47c-20.61,20.71-41.62,30.25-62.44,28.36-32.4-2.94-53.37-33-53.58-33.26a1,1,0,0,0-1.72,1.18c.21.31,21.75,31.13,55.11,34.16Q148.88,222.53,151.59,222.53Z"/><path class="cls-5" d="M81.88,195.72s-6.26-28.9,18.58-16.18c0,0-20.13-7.55-16.92,20.39"/><path class="cls-5" d="M190.43,148.77c-8.95,10.19,20.81,5.17,20.81,5.17s1.94-10.83.09-18.64S199.37,138.58,190.43,148.77Z"/><ellipse class="cls-13" cx="165.69" cy="132.67" rx="4.3" ry="10.11" transform="translate(-39.88 79.8) rotate(-24.26)"/><ellipse class="cls-5" cx="180.76" cy="120.91" rx="4.3" ry="10.11" transform="translate(-33.72 84.95) rotate(-24.26)"/><path class="cls-12" d="M292.8,207.18c-4.31,0-19.44-9.93-13.22-13.55,4.87-2.62,12,7.64,14.27,10.82l.45-.33a35.6,35.6,0,0,1,6-4.86c3.44-2.12,21.26-10.53,24.77-6.29,5,5.52-19.12,11.18-23,12.11,6.36-1.34,18.16,1,20.83,7.65-4.57,5.88-18.47-4.23-22.8-7.32,2.19,2.43,10.16,10.5,3.43,11.15-3.49.34-6.51-4-8.21-6.5"/><path class="cls-16" d="M314.25,106.3s.7-.18,2-.4"/><path class="cls-17" d="M320.23,105.41c15.39-1.2,55.7,2.93,63.24,77.06"/></g></g></svg>