<svg xmlns="http://www.w3.org/2000/svg" xmlns:xlink="http://www.w3.org/1999/xlink" viewBox="0 0 494.12 222.6"><defs><style>.cls-1,.cls-15,.cls-17,.cls-19,.cls-20,.cls-26,.cls-32,.cls-37,.cls-47,.cls-7,.cls-8{fill:none;}.cls-2{isolation:isolate;}.cls-27,.cls-3,.cls-4{fill:#fff;}.cls-3{opacity:0.1;}.cls-5{fill:#edcb18;}.cls-6{fill:#f6e495;}.cls-7{stroke:#d2ac2a;}.cls-15,.cls-17,.cls-19,.cls-20,.cls-26,.cls-37,.cls-47,.cls-7,.cls-8{stroke-miterlimit:10;}.cls-7,.cls-8{stroke-width:0.59px;}.cls-8{stroke:#b99b30;}.cls-9{fill:#f9edbf;}.cls-10,.cls-13{fill:#d2ac2a;}.cls-11{fill:#b99b30;opacity:0.17;}.cls-11,.cls-13,.cls-28,.cls-38{mix-blend-mode:multiply;}.cls-12{fill:#b7982f;}.cls-13{opacity:0.3;}.cls-14{fill:#231f20;}.cls-15,.cls-17{stroke:#6d6e70;}.cls-15{stroke-width:0.37px;}.cls-16{fill:#6d6e70;}.cls-17{stroke-width:0.19px;}.cls-18{fill:#3a3a3a;}.cls-19,.cls-20{stroke:#231f20;}.cls-19{stroke-width:1.58px;}.cls-20{stroke-width:1.05px;}.cls-21{fill:#e71a4b;}.cls-22,.cls-25{fill:#3b2929;}.cls-23{fill:#b49b93;}.cls-24{fill:#a47c74;}.cls-25{opacity:0.23;}.cls-26,.cls-47{stroke:#887975;}.cls-26{stroke-width:0.08px;}.cls-27{font-size:16.28px;font-family:ProximaNova-Bold, Proxima Nova;font-weight:700;}.cls-28,.cls-38{opacity:0.2;}.cls-29{clip-path:url(#clip-path);}.cls-30{fill:#e63d31;}.cls-31{clip-path:url(#clip-path-2);}.cls-32{stroke:#000;stroke-width:0.09px;}.cls-33{fill:#e73c31;}.cls-34{fill:#2d90ce;}.cls-35{fill:#e5ddb4;}.cls-36{fill:#8cad3e;}.cls-37{stroke:#c5bd9c;stroke-width:0.77px;}.cls-38{fill:#7a794f;}.cls-39{fill:#73643a;}.cls-40{fill:#ae8244;}.cls-41{fill:#dabc99;}.cls-42{fill:#c6cf58;}.cls-43{fill:#b0b24b;}.cls-44{fill:#7e8a4d;}.cls-45{fill:#cfd571;}.cls-46{fill:#b2d235;}.cls-47{stroke-width:0.33px;}</style><clipPath id="clip-path"><circle cx="453" cy="128.22" r="8.82"/></clipPath><clipPath id="clip-path-2"><circle class="cls-1" cx="454.43" cy="126.79" r="8.82"/></clipPath></defs><title>Artboard 17</title><g class="cls-2"><g id="Layer_1" data-name="Layer 1"><circle class="cls-3" cx="126.92" cy="124.34" r="120.11"/><circle class="cls-4" cx="127.24" cy="125.01" r="83.92"/><path class="cls-5" d="M403.47,51.46a28.8,28.8,0,0,1,12.84-21.38,2.74,2.74,0,0,0,4.81-2.56,28.92,28.92,0,0,1,23.7.7,3,3,0,1,0,5,3.14A29,29,0,0,1,459.56,45a1.82,1.82,0,0,0,.86,3.41h.06a28.94,28.94,0,0,1-3.68,20.89,3.24,3.24,0,1,0-4,5.09,28.86,28.86,0,0,1-49.35-22.9Z"/><ellipse class="cls-6" cx="419.62" cy="45.38" rx="10.11" ry="8.83" transform="translate(288.74 446.65) rotate(-78.11)"/><ellipse class="cls-7" cx="419.62" cy="45.38" rx="7.54" ry="6.58" transform="translate(288.74 446.65) rotate(-78.11)"/><path class="cls-8" d="M460.93,56.87s-43.26,10.81-57.29-7.25"/><ellipse class="cls-9" cx="418.28" cy="45.26" rx="3.81" ry="3.33" transform="translate(287.79 445.23) rotate(-78.11)"/><ellipse class="cls-10" cx="418.28" cy="45.26" rx="2.22" ry="1.94" transform="translate(287.79 445.23) rotate(-78.11)"/><path class="cls-11" d="M418.45,44.27a10.47,10.47,0,0,1,6-7.61,10.12,10.12,0,0,1,3.8,10.55,10.47,10.47,0,0,1-6,7.61A10.12,10.12,0,0,1,418.45,44.27Z"/><circle class="cls-10" cx="433.31" cy="35.05" r="2.28" transform="translate(351.58 462.02) rotate(-83.79)"/><path class="cls-12" d="M431.8,34.32a2.27,2.27,0,0,1,.69-1.4,2.28,2.28,0,0,1,2.4,3.78,2.28,2.28,0,0,1-3.09-2.38Z"/><circle class="cls-10" cx="450.91" cy="48.05" r="1.63" transform="translate(354.34 491.12) rotate(-83.79)"/><path class="cls-12" d="M449.84,47.54a1.62,1.62,0,1,1,1.44,1.79A1.62,1.62,0,0,1,449.84,47.54Z"/><circle class="cls-10" cx="435.68" cy="53.66" r="3.23" transform="translate(335.18 480.98) rotate(-83.79)"/><path class="cls-12" d="M433.54,52.64a3.22,3.22,0,0,1,1-2,3.23,3.23,0,0,1,3.4,5.35,3.23,3.23,0,0,1-4.38-3.36Z"/><circle class="cls-10" cx="442.57" cy="71.83" r="3.23" transform="translate(323.27 504.03) rotate(-83.79)"/><path class="cls-12" d="M440.43,70.8a3.23,3.23,0,1,1,2.86,3.56A3.22,3.22,0,0,1,440.43,70.8Z"/><circle class="cls-10" cx="414.89" cy="66.97" r="3.23" transform="translate(303.42 472.17) rotate(-83.79)"/><path class="cls-12" d="M412.75,65.94a3.22,3.22,0,0,1,1-2,3.23,3.23,0,1,1-1,2Z"/><circle class="cls-10" cx="438.36" cy="42.6" r="1.95" transform="translate(348.57 473.78) rotate(-83.79)"/><path class="cls-12" d="M437.07,42a1.95,1.95,0,1,1,1.73,2.15A1.94,1.94,0,0,1,437.07,42Z"/><path class="cls-13" d="M443,80.92a28.88,28.88,0,0,1-38.41-35.27C413.19,77.19,435.93,80.63,443,80.92Z"/><path class="cls-14" d="M334.7,204.69c.14.43.39,1.17.91,1.26,1,.19.18-1.29,0-1.73a12,12,0,0,0,1.23,1.38,3.59,3.59,0,0,0,.79.6c.22.11.76.31.91,0s-.32-.79-.51-1a3.3,3.3,0,0,0-2.13-1c.59,0,1.17,0,1.76,0a8.51,8.51,0,0,0,1.11-.1c.28,0,.71-.1.9-.36.53-.72-1.39-.71-1.7-.71a8.44,8.44,0,0,0-3.15.68l-.08,0c-.2-.55-.79-2.3-1.59-2.13-1,.26.72,2.29,1.33,2.47Z"/><path class="cls-14" d="M311.43,214.91c.11.44.28,1.2-.1,1.55-.74.68-.83-1-.88-1.49a12,12,0,0,1-.32,1.82,3.59,3.59,0,0,1-.36.93c-.13.21-.48.66-.77.48s-.14-.84-.08-1.11a3.3,3.3,0,0,1,1.3-1.94c-.48.33-1,.66-1.48.95a8.51,8.51,0,0,1-1,.5,1.4,1.4,0,0,1-.95.17c-.83-.33.81-1.34,1.07-1.5a8.44,8.44,0,0,1,3-1.08l.08,0c-.12-.57-.54-2.37.24-2.65,1-.33.6,2.33.17,2.81Z"/><path class="cls-14" d="M317.47,185.91c.34,2.87,3.17,4.76,6.32,4.23s5.43-3.28,5.09-6.15-3.17-4.76-6.32-4.23S317.14,183,317.47,185.91Z"/><path class="cls-14" d="M306.57,201.89l10.5-6.41s2.93-12.71,12.19-8.35,2,14.48,2,14.48l1.15,11.9-5.3-1.71a21.11,21.11,0,0,1-6.36-1.25,13.83,13.83,0,0,1-3.35-2.08,13.07,13.07,0,0,1-1.42-1.38c-.31-.35-.61-1.05-1-1.25Z"/><path class="cls-4" d="M321.5,196.93s.35-2-.12-2.42c0,0-2,1.11-1.46,2.24C319.92,196.75,320.87,197.71,321.5,196.93Z"/><path class="cls-4" d="M324.9,196s2.27-.3,1.08.87c0,0-1.67,4.84-4.76.7C321.22,197.56,323.46,196,324.9,196Z"/><path class="cls-15" d="M328.3,212.18l-5.78-3.13s11.79-18-1-11.85c0,0,1.77-3.72-2.52-3"/><path class="cls-15" d="M321.43,197.37s2.35,5.07,4.92-1.37"/><path class="cls-15" d="M320.8,198.44s-11.05,3.31-10.53,3.48,10.9,4.59,10.9,4.59Z"/><ellipse class="cls-16" cx="321.15" cy="197.77" rx="1.06" ry="0.67" transform="translate(34.21 442.55) rotate(-72.09)"/><path class="cls-16" d="M321.88,198a2.33,2.33,0,0,0,.23,2.07,2.23,2.23,0,0,0,.84.67,4.24,4.24,0,0,0,1.05.32l0,.1a4.34,4.34,0,0,1-1.09-.31,2.36,2.36,0,0,1-.9-.7,2.49,2.49,0,0,1-.29-2.21Z"/><path class="cls-17" d="M321.47,197.2s-3.7.08-.16-2.83"/><path class="cls-17" d="M312.59,202.87,318,199.3l1.5-.46s-3.68,5.37-3.74,5.35l2.33,1,2.83-5,.16,3.4-1,2.26"/><circle class="cls-16" cx="321.12" cy="206.67" r="0.69" transform="translate(25.72 448.68) rotate(-72.09)"/><circle class="cls-16" cx="310.31" cy="201.73" r="0.69" transform="translate(22.93 434.97) rotate(-72.09)"/><line class="cls-15" x1="321.12" y1="206.67" x2="324.22" y2="206.22"/><path class="cls-15" d="M321.79,195.25s1.44-7.11,6.68-8.44"/><path class="cls-15" d="M323.18,196.35s1.32-7.63,6.57-9"/><path class="cls-16" d="M320.82,197.69a1.77,1.77,0,0,1-1.52.51,2.48,2.48,0,0,1-.76-.25,4.23,4.23,0,0,1-.66-.44h0a4.19,4.19,0,0,0,.68.41,2.4,2.4,0,0,0,.75.21,1.64,1.64,0,0,0,1.36-.52Z"/><circle class="cls-18" cx="322.31" cy="197.59" r="0.31" transform="translate(35.18 443.53) rotate(-72.09)"/><circle class="cls-18" cx="320.92" cy="196.59" r="0.22" transform="translate(35.17 441.51) rotate(-72.09)"/><line class="cls-17" x1="324.95" y1="204.9" x2="321.06" y2="205.2"/><path class="cls-14" d="M331.2,192.46c.32,2.67,3,4.44,5.89,3.95a5.46,5.46,0,0,0,4.75-5.73c-.32-2.67-3-4.44-5.89-3.95A5.46,5.46,0,0,0,331.2,192.46Z"/><polygon class="cls-14" points="320.04 208.58 319.63 222.41 325.84 222.41 324.94 210.93 320.04 208.58"/><path class="cls-19" d="M323.63,218.1c5.53-3.81,9.1,6.15,14.88,2.17a4.73,4.73,0,0,0,2.21-3.87c-.33-4.07-6.28-2.82-4.74.13.07.13.21.27.34.21s-.08-.31-.11-.16"/><path class="cls-20" d="M334.7,204.69s-2.7,3.94-6.22,5.09"/><path class="cls-21" d="M290.3,190.71l15.1,19.43,1.14-.92L291.06,190.1a.48.48,0,0,0-.68-.07h0A.48.48,0,0,0,290.3,190.71Z"/><rect class="cls-22" x="305.99" y="209.87" width="1.47" height="1.47" transform="translate(336.17 581.51) rotate(-129.01)"/><polygon class="cls-23" points="307.87 210.34 309.81 212.62 308.26 213.93 306.15 211.49 307.87 210.34"/><path class="cls-24" d="M308.07,212.24c.33.33.66.64,1,1l0,0-.81.69-2.1-2.43.8-.54C307.31,211.39,307.67,211.83,308.07,212.24Z"/><polygon class="cls-22" points="309.81 212.62 308.26 213.93 310.53 216.57 312.09 215.34 309.81 212.62"/><polygon class="cls-22" points="312.57 215.79 310.94 217.15 313.29 219.74 314.86 218.5 312.57 215.79"/><polygon class="cls-23" points="312.44 214.96 310.12 216.85 310.69 217.43 313.02 215.63 312.44 214.96"/><polygon class="cls-23" points="314.97 217.94 312.65 219.83 313.22 220.41 315.55 218.6 314.97 217.94"/><polygon class="cls-23" points="314.63 218.94 312.04 215.88 311.81 216.15 314.23 219.15 314.63 218.94"/><polygon class="cls-23" points="314.03 219.58 311.43 216.51 311.2 216.78 313.62 219.78 314.03 219.58"/><polygon class="cls-25" points="315.33 218.78 314.75 218.12 314.65 218.2 315.23 218.89 315.33 218.78"/><polygon class="cls-25" points="314.99 219.03 314.41 218.38 314.31 218.46 314.89 219.14 314.99 219.03"/><polygon class="cls-25" points="314.7 219.28 314.12 218.63 314.02 218.71 314.6 219.4 314.7 219.28"/><polygon class="cls-25" points="314.36 219.57 313.79 218.92 313.69 219 314.26 219.69 314.36 219.57"/><polygon class="cls-25" points="313.93 219.85 313.36 219.2 313.26 219.28 313.83 219.96 313.93 219.85"/><polygon class="cls-25" points="313.52 220.16 312.94 219.5 312.84 219.58 313.42 220.27 313.52 220.16"/><rect class="cls-23" x="309.37" y="211.48" width="1.32" height="0.36" transform="translate(353.79 584.49) rotate(-131.02)"/><rect class="cls-23" x="309.44" y="211.47" width="0.34" height="1.11" transform="translate(352.82 584.78) rotate(-131.02)"/><path class="cls-26" d="M310.6,212a1.21,1.21,0,0,1-.86-1"/><rect class="cls-23" x="308.35" y="210.21" width="1.32" height="0.36" transform="translate(353.05 581.62) rotate(-131.02)"/><rect class="cls-23" x="308.42" y="210.2" width="0.34" height="1.11" transform="translate(352.08 581.91) rotate(-131.02)"/><path class="cls-26" d="M309.57,210.77a1.21,1.21,0,0,1-.86-1"/><polygon class="cls-22" points="304.59 209.88 305.33 210.79 307.4 209.12 307.4 209.12 304.59 209.88"/><polygon class="cls-23" points="307.4 209.12 305.14 206.33 305.55 209.62 307.4 209.12"/><polygon class="cls-24" points="306.29 209.42 305.14 206.33 305.55 209.62 306.29 209.42"/><path class="cls-20" d="M311.2,215.28s6.71-.95,10.22-5.66"/><polygon class="cls-4" points="276.28 40.01 273.69 52.42 284.7 58.72 272.09 60.09 269.51 72.5 264.31 60.94 251.7 62.32 261.09 53.8 255.89 42.24 266.89 48.53 276.28 40.01"/><polygon class="cls-4" points="232.28 176.54 230.74 183.93 237.29 187.68 229.79 188.5 228.25 195.89 225.15 189.01 217.65 189.82 223.24 184.75 220.14 177.87 226.69 181.62 232.28 176.54"/><polygon class="cls-4" points="71.59 41.98 70.05 49.37 76.6 53.12 69.09 53.93 67.55 61.32 64.46 54.44 56.95 55.26 62.54 50.19 59.45 43.3 66 47.05 71.59 41.98"/><polygon class="cls-4" points="428.47 181.79 425.34 196.8 438.65 204.41 423.41 206.07 420.28 221.08 413.99 207.1 398.75 208.76 410.1 198.46 403.81 184.48 417.12 192.09 428.47 181.79"/><text class="cls-27" transform="translate(250.88 165.17)">17th–18th of April 2018</text><g id="SMASHING_SCHRIFTZUG" data-name="SMASHING SCHRIFTZUG"><path id="SMASHING" class="cls-4" d="M364,85.7a3.91,3.91,0,0,1,7.36-1.82l-1.45.47a2.43,2.43,0,1,0-.16,2.92l-.86.14-1-1,2.23-.37,2.22-.36L372,87.87l-.36,2.23-1-1,.1-.61A3.91,3.91,0,0,1,364,85.7Zm-45.13,1.16a2.48,2.48,0,0,0,.26,1.22,2.26,2.26,0,0,0,.71.84,3,3,0,0,0,1,.48,5.05,5.05,0,0,0,2.59,0,3,3,0,0,0,1-.51,2.05,2.05,0,0,0,.6-.78,2.35,2.35,0,0,0,.2-1,1.87,1.87,0,0,0-.27-1,2.15,2.15,0,0,0-.64-.66,2.76,2.76,0,0,0-.75-.35,5,5,0,0,0-.59-.16l-1.16-.3a4.14,4.14,0,0,1-.7-.24.77.77,0,0,1-.33-.25.75.75,0,0,1-.08-.37.79.79,0,0,1,.1-.4,1.1,1.1,0,0,1,.27-.26,1.06,1.06,0,0,1,.37-.15,2.15,2.15,0,0,1,.41,0,2.89,2.89,0,0,1,.57.06,1.57,1.57,0,0,1,.47.18,1,1,0,0,1,.31.35,1.33,1.33,0,0,1,.15.57H325a2.32,2.32,0,0,0-.26-1.12,2.13,2.13,0,0,0-.67-.77,2.73,2.73,0,0,0-1-.43,4.44,4.44,0,0,0-1.14-.14,3.74,3.74,0,0,0-1,.14,2.84,2.84,0,0,0-.92.43,2.16,2.16,0,0,0-.66.72,2,2,0,0,0-.24,1,1.93,1.93,0,0,0,.19.9,2,2,0,0,0,.53.61,2.79,2.79,0,0,0,.72.4,8.12,8.12,0,0,0,.83.25l.82.22a5.47,5.47,0,0,1,.72.22,1.5,1.5,0,0,1,.51.32.67.67,0,0,1,.2.5.77.77,0,0,1-.14.48,1.44,1.44,0,0,1-.37.29,1.86,1.86,0,0,1-.48.14,3.5,3.5,0,0,1-.48,0,2.67,2.67,0,0,1-.64-.07A1.75,1.75,0,0,1,321,88a1.22,1.22,0,0,1-.36-.44,1.31,1.31,0,0,1-.14-.65Zm18.6-3.21,1,2.79h-2Zm-3.7,5.65V81.77h-2.36L329.72,87l-1.79-5.24h-2.35v7.62h1.57l0-5.35L329,89.39h1.3l1.89-5.4v5.4h3.21l.6-1.7h2.85l.58,1.7h1.74l-2.85-7.62h-1.71Zm6.89-2.43a2.53,2.53,0,0,0,.26,1.22,2.39,2.39,0,0,0,.72.84,3,3,0,0,0,1,.48,5,5,0,0,0,2.59,0,2.88,2.88,0,0,0,1-.51,2.14,2.14,0,0,0,.61-.78,2.3,2.3,0,0,0,.2-1,1.83,1.83,0,0,0-.28-1,2.1,2.1,0,0,0-.64-.66,2.72,2.72,0,0,0-.76-.35,4.35,4.35,0,0,0-.58-.16l-1.17-.3a4.39,4.39,0,0,1-.69-.24.58.58,0,0,1-.42-.62.74.74,0,0,1,.1-.4,1,1,0,0,1,.27-.26,1.05,1.05,0,0,1,.38-.15,2,2,0,0,1,.4,0,2.83,2.83,0,0,1,.57.06,1.32,1.32,0,0,1,.46.18.83.83,0,0,1,.32.35,1.16,1.16,0,0,1,.16.57h1.62a2.25,2.25,0,0,0-.25-1.12,2.1,2.1,0,0,0-.67-.77,2.75,2.75,0,0,0-1-.43,4.57,4.57,0,0,0-1.14-.14,3.81,3.81,0,0,0-1,.14,2.72,2.72,0,0,0-.92.43,2.19,2.19,0,0,0-.66.72,1.9,1.9,0,0,0,.47,2.52,3,3,0,0,0,.72.4,7.46,7.46,0,0,0,.83.25l.82.22a5.93,5.93,0,0,1,.72.22,1.57,1.57,0,0,1,.51.32.64.64,0,0,1,.2.5.74.74,0,0,1-.15.48,1.22,1.22,0,0,1-.37.29,1.91,1.91,0,0,1-.49.14,3.45,3.45,0,0,1-.48,0,2.61,2.61,0,0,1-.63-.07,1.65,1.65,0,0,1-.54-.24,1.29,1.29,0,0,1-.37-.44,1.37,1.37,0,0,1-.14-.65Zm6.69,2.53H349V86.1h3.09v3.29h1.67V81.77h-1.67v2.92H349V81.77h-1.68Zm7.2,0h1.68V81.77h-1.68Zm2.44,0h1.57l0-5.1,3.17,5.1h1.67V81.77h-1.57l0,5.11-3.19-5.11H357Z"/></g><path class="cls-4" d="M316,92.84,313,80a2,2,0,0,0-2.33-1.46l-2.18.5c.25,0,.5.08.74.14a11.79,11.79,0,0,1,2.8,1l-1.24,3.36a5.92,5.92,0,0,0-4-1.21c-1.51,0-2.27.6-2.27,1.8a1.61,1.61,0,0,0,.75,1.28,15.3,15.3,0,0,0,3.18,1.54,9.85,9.85,0,0,1,2.69,1.49,5.8,5.8,0,0,1,.83.83,5.23,5.23,0,0,1,1.07,3.31,5,5,0,0,1-1,3.19l2.46-.57A2,2,0,0,0,316,92.84Z"/><path class="cls-4" d="M304.87,89.52a11.87,11.87,0,0,1-2.26-1.2,5.21,5.21,0,0,1-2.54-4.37A4.49,4.49,0,0,1,301,81c.12-.13.23-.27.37-.4l-3.61.84a1.94,1.94,0,0,0-1.46,2.33l3,12.88a1.93,1.93,0,0,0,2.32,1.45l1.48-.34-.12,0a14.67,14.67,0,0,1-2.86-1.24l1.54-3.44a6.86,6.86,0,0,0,4.38,1.54c1.69,0,2.53-.6,2.53-1.8a2.22,2.22,0,0,0-.76-1.73A11.94,11.94,0,0,0,304.87,89.52Z"/><path class="cls-4" d="M323,92.92a1.27,1.27,0,0,0-.29-.32,1.36,1.36,0,0,0-.39-.2,1.41,1.41,0,0,0-.45-.07,1.54,1.54,0,0,0-.73.16,1.43,1.43,0,0,0-.5.43,1.92,1.92,0,0,0-.29.6,2.47,2.47,0,0,0-.09.69,2.5,2.5,0,0,0,.09.69,2,2,0,0,0,.29.6,1.44,1.44,0,0,0,.5.43,1.59,1.59,0,0,0,.73.16,1.3,1.3,0,0,0,.54-.11,1.2,1.2,0,0,0,.41-.29,1.33,1.33,0,0,0,.28-.43,1.73,1.73,0,0,0,.14-.54h.41a2.4,2.4,0,0,1-.19.71,1.66,1.66,0,0,1-.38.54,1.5,1.5,0,0,1-.53.34,1.88,1.88,0,0,1-.68.12,2,2,0,0,1-.88-.18,1.78,1.78,0,0,1-.63-.49A2.24,2.24,0,0,1,320,95a3.19,3.19,0,0,1,0-1.68,2.38,2.38,0,0,1,.38-.71,1.79,1.79,0,0,1,.63-.49,2,2,0,0,1,.88-.18,2,2,0,0,1,.6.09,1.65,1.65,0,0,1,.53.26,1.57,1.57,0,0,1,.39.43,1.43,1.43,0,0,1,.2.59h-.4A1.62,1.62,0,0,0,323,92.92Z"/><path class="cls-4" d="M325.7,93.36a2.25,2.25,0,0,1,.38-.71,1.8,1.8,0,0,1,.63-.49,2.21,2.21,0,0,1,1.76,0,1.79,1.79,0,0,1,.62.49,1.94,1.94,0,0,1,.38.71,3,3,0,0,1,0,1.68,1.84,1.84,0,0,1-.38.71,1.78,1.78,0,0,1-.62.49,2.19,2.19,0,0,1-1.76,0,1.79,1.79,0,0,1-.63-.49,2.13,2.13,0,0,1-.38-.71,3,3,0,0,1,0-1.68Zm.38,1.53a1.73,1.73,0,0,0,.28.6,1.41,1.41,0,0,0,.5.43,1.55,1.55,0,0,0,.73.16,1.49,1.49,0,0,0,.71-.16,1.39,1.39,0,0,0,.5-.43,1.68,1.68,0,0,0,.28-.6,2.51,2.51,0,0,0,.09-.69,2.48,2.48,0,0,0-.09-.69,1.65,1.65,0,0,0-.28-.6,1.38,1.38,0,0,0-.5-.43,1.45,1.45,0,0,0-.71-.16,1.5,1.5,0,0,0-.73.16,1.4,1.4,0,0,0-.5.43,1.71,1.71,0,0,0-.28.6,2.28,2.28,0,0,0-.1.69A2.31,2.31,0,0,0,326.07,94.88Z"/><path class="cls-4" d="M332.16,92.07l2.49,3.61h0V92.07h.41v4.26h-.46l-2.49-3.61h0v3.61h-.4V92.07Z"/><path class="cls-4" d="M340.12,92.07v.34h-2.3V94h2v.34h-2v2h-.41V92.07Z"/><path class="cls-4" d="M345.05,92.07v.34h-2.53V94h2.37v.34h-2.37V96h2.57v.35h-3V92.07Z"/><path class="cls-4" d="M349.09,92.07a2.08,2.08,0,0,1,.5.06,1.29,1.29,0,0,1,.41.2,1,1,0,0,1,.28.35,1.11,1.11,0,0,1,.1.5,1.15,1.15,0,0,1-.21.7,1,1,0,0,1-.61.39h0a.9.9,0,0,1,.34.11.64.64,0,0,1,.23.2.9.9,0,0,1,.13.29,1.65,1.65,0,0,1,0,.35l0,.26c0,.11,0,.21,0,.32a2.22,2.22,0,0,0,.06.3.51.51,0,0,0,.1.22h-.45a.47.47,0,0,1-.05-.14,1.47,1.47,0,0,1,0-.18.8.8,0,0,0,0-.18c0-.06,0-.11,0-.16s0-.3,0-.45a1.26,1.26,0,0,0-.11-.4.71.71,0,0,0-.25-.28.79.79,0,0,0-.45-.1h-1.55v1.89h-.4V92.07Zm0,2a1.06,1.06,0,0,0,.35-.06,1,1,0,0,0,.3-.16.83.83,0,0,0,.19-.26.69.69,0,0,0,.08-.35.87.87,0,0,0-.23-.62,1,1,0,0,0-.7-.23h-1.52v1.68Z"/><path class="cls-4" d="M355.56,92.07v.34H353V94h2.38v.34H353V96h2.57v.35h-3V92.07Z"/><path class="cls-4" d="M358.11,92.07l2.48,3.61h0V92.07h.4v4.26h-.45l-2.48-3.61h0v3.61h-.4V92.07Z"/><path class="cls-4" d="M366.3,92.92a1.33,1.33,0,0,0-.3-.32,1.35,1.35,0,0,0-.39-.2,1.34,1.34,0,0,0-.43-.07,1.56,1.56,0,0,0-.74.16,1.47,1.47,0,0,0-.5.43,1.7,1.7,0,0,0-.28.6,2.28,2.28,0,0,0-.1.69,2.31,2.31,0,0,0,.1.69,1.72,1.72,0,0,0,.28.6,1.48,1.48,0,0,0,.5.43,1.6,1.6,0,0,0,.74.16,1.32,1.32,0,0,0,.54-.11,1.24,1.24,0,0,0,.4-.29,1.29,1.29,0,0,0,.28-.43,1.45,1.45,0,0,0,.14-.54h.4a2.08,2.08,0,0,1-.19.71,1.67,1.67,0,0,1-.37.54,1.52,1.52,0,0,1-.53.34,1.89,1.89,0,0,1-.68.12,2,2,0,0,1-.89-.18,1.76,1.76,0,0,1-.63-.49,2.08,2.08,0,0,1-.38-.71,2.9,2.9,0,0,1,0-1.68,2.2,2.2,0,0,1,.38-.71,1.77,1.77,0,0,1,.63-.49,2,2,0,0,1,.89-.18,2,2,0,0,1,.59.09,1.68,1.68,0,0,1,.52.26,1.53,1.53,0,0,1,.4.43,1.51,1.51,0,0,1,.2.59h-.4A1.45,1.45,0,0,0,366.3,92.92Z"/><path class="cls-4" d="M372,92.07v.34h-2.54V94h2.38v.34h-2.38V96H372v.35h-3V92.07Z"/><g class="cls-28"><path d="M287.43,117.66h-5.19a1.93,1.93,0,0,0-1.93,1.93v2.23l-2.47-3.37a1.93,1.93,0,0,0-1.56-.79h-5.35A1.93,1.93,0,0,0,269,119.6V127l-3-8.1a1.93,1.93,0,0,0-1.81-1.26h-6.53a1.93,1.93,0,0,0-1.81,1.26l-3,8.08a6.79,6.79,0,0,0-1.52-1.4l2.05-2.72a1.93,1.93,0,0,0-.32-2.66,13.23,13.23,0,0,0-8.49-2.83c-5.94,0-9.05,3.83-9.05,7.61a6.5,6.5,0,0,0,2,5l-2.23,3.19a1.93,1.93,0,0,0,.29,2.54,13.19,13.19,0,0,0,9.26,3.22,11.94,11.94,0,0,0,5-1,1.92,1.92,0,0,0,1.46.68h5.89a1.93,1.93,0,0,0,1.85-1.36l.2-.64h3.31l.2.64a1.93,1.93,0,0,0,1.85,1.36h5.89l.18,0,.22,0h5.19a1.93,1.93,0,0,0,1.93-1.93V134l2.83,3.89a1.93,1.93,0,0,0,1.56.79h5a1.93,1.93,0,0,0,1.93-1.93V119.6A1.93,1.93,0,0,0,287.43,117.66Z"/><path d="M429.76,117.38a11.31,11.31,0,0,0-9,4,10,10,0,0,0-8.35-4,11.56,11.56,0,0,0-8.44,3.36,1.92,1.92,0,0,0-.43-.51,13.24,13.24,0,0,0-8.49-2.82,9.62,9.62,0,0,0-6.7,2.34v-.16a1.93,1.93,0,0,0-1.93-1.93h-5.19a1.93,1.93,0,0,0-1.93,1.93v.29a10.26,10.26,0,0,0-7-2.5,11.46,11.46,0,0,0-8.83,3.77V119.6a1.93,1.93,0,0,0-1.93-1.93h-5.19a1.93,1.93,0,0,0-1.93,1.93v2.23L352,118.45a1.93,1.93,0,0,0-1.56-.79h-5.35a1.93,1.93,0,0,0-1.93,1.93V127l-3-8.1a1.93,1.93,0,0,0-1.81-1.26h-6.53a1.93,1.93,0,0,0-1.81,1.26l-2.33,6.31c-.12-4.47-3.4-7.58-8.09-7.58h-9.15a1.87,1.87,0,0,1-1.69,0h-13a1.93,1.93,0,0,0-1.93,1.93v17.14a1.93,1.93,0,0,0,1.93,1.93h5.19a1.93,1.93,0,0,0,1.93-1.93v-4.47h5.64v4.47a1.93,1.93,0,0,0,1.93,1.93h5.19a1.93,1.93,0,0,0,1.93-1.93v-.46l.54,1.23a1.93,1.93,0,0,0,1.77,1.16h11.51a1.93,1.93,0,0,0,1.85-1.36l.2-.64h3.31l.2.64a1.93,1.93,0,0,0,1.85,1.36h5.89l.18,0,.22,0h5.19a1.93,1.93,0,0,0,1.93-1.93V134l2.83,3.89a1.93,1.93,0,0,0,1.56.79h5a1.93,1.93,0,0,0,1.93-1.93v-1.53a11.46,11.46,0,0,0,8.83,3.77,10,10,0,0,0,7-2.54v.3a1.93,1.93,0,0,0,1.93,1.93h5.19a1.92,1.92,0,0,0,1.84-1.36,14.22,14.22,0,0,0,7.08,1.67c3.89,0,6.78-1.38,8.25-3.78a11.46,11.46,0,0,0,8.84,3.78,9.88,9.88,0,0,0,8.33-4.05,11.31,11.31,0,0,0,9,4.05c6.45,0,11.31-4.64,11.31-10.8S436.32,117.38,429.76,117.38ZM325.58,130.89l-.27.72-.16-.31C325.31,131.18,325.45,131,325.58,130.89Z"/></g><g class="cls-28"><circle cx="453" cy="128.22" r="10.3"/><circle cx="453" cy="128.22" r="8.82"/><g class="cls-29"><g id="layer1"><rect id="rect8764" x="439.75" y="118.83" width="35.13" height="18.45"/></g><g id="layer4"><rect id="rect8767" x="439.75" y="135.8" width="35.13" height="1.48"/><rect id="rect8769" x="439.75" y="134.31" width="35.13" height="1.48"/><rect id="rect8771" x="439.75" y="132.83" width="35.13" height="1.48"/><rect id="rect8773" x="439.75" y="131.35" width="35.13" height="1.48"/><rect id="rect8775" x="439.75" y="129.96" width="35.13" height="1.39"/><rect id="rect8777" x="439.75" y="128.57" width="35.13" height="1.39"/><rect id="rect8779" x="439.75" y="127.18" width="35.13" height="1.39"/><rect id="rect8781" x="439.75" y="125.79" width="35.13" height="1.39"/><rect id="rect8783" x="439.75" y="124.39" width="35.13" height="1.39"/><rect id="rect8785" x="439.75" y="123" width="35.13" height="1.39"/><rect id="rect8787" x="439.75" y="121.61" width="35.13" height="1.39"/><rect id="rect8791" x="439.75" y="120.22" width="35.13" height="1.39"/><rect id="rect8793" x="439.75" y="118.83" width="35.13" height="1.39"/></g><g id="layer5"><rect id="rect8796" x="439.75" y="118.83" width="14.09" height="9.73"/></g><g id="layer6"><path id="path8825" d="M440.34,127.42l.41,0,.16-.4.17.39.41,0-.31.29.1.42-.36-.22-.35.23.09-.42Z"/><path id="path8827" d="M442.66,127.42l.41,0,.16-.4.17.39.41,0-.31.29.1.42-.36-.22-.35.23.09-.42Z"/><path id="path8829" d="M445.07,127.42l.41,0,.16-.4.17.39.41,0-.31.29.1.42-.36-.22-.35.23.09-.42Z"/><path id="path8831" d="M447.38,127.42l.41,0,.16-.4.17.39.41,0-.31.29.1.42-.36-.22-.35.23.09-.42Z"/><path id="path8833" d="M449.7,127.42l.41,0,.16-.4.17.39.41,0-.31.29.1.42-.36-.22-.35.23.09-.42Z"/><path id="path8835" d="M452.11,127.42l.41,0,.16-.4.17.39.41,0-.31.29.1.42-.36-.22-.35.23.09-.42Z"/><path id="path8837" d="M441.54,126.49l.41,0,.16-.4.17.39.41,0-.31.29.1.42-.36-.22-.35.23.09-.42Z"/><path id="path8839" d="M440.34,125.47l.41,0,.16-.4.17.39.41,0-.31.29.1.42-.36-.22-.35.23.09-.42Z"/><path id="path8841" d="M441.54,124.54l.41,0,.16-.4.17.39.41,0-.31.29.1.42-.36-.22-.35.23.09-.42Z"/><path id="path8843" d="M440.34,123.52l.41,0,.16-.4.17.39.41,0-.31.29.1.42-.36-.22-.35.23.09-.42Z"/><path id="path8845" d="M441.54,122.6l.41,0,.16-.4.17.39.41,0-.31.29.1.42-.36-.22-.35.23.09-.42Z"/><path id="path8847" d="M440.34,121.58l.41,0,.16-.4.17.39.41,0-.31.29.1.42-.36-.22-.35.23.09-.42Z"/><path id="path8849" d="M441.54,120.65l.41,0,.16-.4.17.39.41,0-.31.29.1.42-.36-.22-.35.23.09-.42Z"/><path id="path8851" d="M440.34,119.63l.41,0,.16-.4.17.39.41,0-.31.29.1.42-.36-.22-.35.23.09-.42Z"/><path id="path8853" d="M443.86,126.49l.41,0,.16-.4.17.39.41,0-.31.29.1.42-.36-.22-.35.23.09-.42Z"/><path id="path8855" d="M442.66,125.47l.41,0,.16-.4.17.39.41,0-.31.29.1.42-.36-.22-.35.23.09-.42Z"/><path id="path8857" d="M443.86,124.54l.41,0,.16-.4.17.39.41,0-.31.29.1.42-.36-.22-.35.23.09-.42Z"/><path id="path8859" d="M442.66,123.52l.41,0,.16-.4.17.39.41,0-.31.29.1.42-.36-.22-.35.23.09-.42Z"/><path id="path8861" d="M443.86,122.6l.41,0,.16-.4.17.39.41,0-.31.29.1.42-.36-.22-.35.23.09-.42Z"/><path id="path8863" d="M442.66,121.58l.41,0,.16-.4.17.39.41,0-.31.29.1.42-.36-.22-.35.23.09-.42Z"/><path id="path8865" d="M443.86,120.65l.41,0,.16-.4.17.39.41,0-.31.29.1.42-.36-.22-.35.23.09-.42Z"/><path id="path8867" d="M442.66,119.63l.41,0,.16-.4.17.39.41,0-.31.29.1.42-.36-.22-.35.23.09-.42Z"/><path id="path8869" d="M446.18,126.49l.41,0,.16-.4.17.39.41,0-.31.29.1.42-.36-.22-.35.23.09-.42Z"/><path id="path8871" d="M445.07,125.47l.41,0,.16-.4.17.39.41,0-.31.29.1.42-.36-.22-.35.23.09-.42Z"/><path id="path8873" d="M449.7,125.47l.41,0,.16-.4.17.39.41,0-.31.29.1.42-.36-.22-.35.23.09-.42Z"/><path id="path8875" d="M447.38,125.47l.41,0,.16-.4.17.39.41,0-.31.29.1.42-.36-.22-.35.23.09-.42Z"/><path id="path8877" d="M450.91,126.49l.41,0,.16-.4.17.39.41,0-.31.29.1.42-.36-.22-.35.23.09-.42Z"/><path id="path8879" d="M448.59,126.49l.41,0,.16-.4.17.39.41,0-.31.29.1.42-.36-.22-.35.23.09-.42Z"/><path id="path8881" d="M445.07,119.63l.41,0,.16-.4.17.39.41,0-.31.29.1.42-.36-.22-.35.23.09-.42Z"/><path id="path8883" d="M446.18,120.65l.41,0,.16-.4.17.39.41,0-.31.29.1.42-.36-.22-.35.23.09-.42Z"/><path id="path8885" d="M445.07,121.58l.41,0,.16-.4.17.39.41,0-.31.29.1.42-.36-.22-.35.23.09-.42Z"/><path id="path8887" d="M446.18,122.6l.41,0,.16-.4.17.39.41,0-.31.29.1.42-.36-.22-.35.23.09-.42Z"/><path id="path8889" d="M445.07,123.52l.41,0,.16-.4.17.39.41,0-.31.29.1.42-.36-.22-.35.23.09-.42Z"/><path id="path8891" d="M446.18,124.54l.41,0,.16-.4.17.39.41,0-.31.29.1.42-.36-.22-.35.23.09-.42Z"/><path id="path8893" d="M452.11,125.47l.41,0,.16-.4.17.39.41,0-.31.29.1.42-.36-.22-.35.23.09-.42Z"/><path id="path8895" d="M447.38,123.52l.41,0,.16-.4.17.39.41,0-.31.29.1.42L448,124l-.35.23.09-.42Z"/><path id="path8897" d="M447.38,119.63l.41,0,.16-.4.17.39.41,0-.31.29.1.42-.36-.22-.35.23.09-.42Z"/><path id="path8899" d="M447.38,121.58l.41,0,.16-.4.17.39.41,0-.31.29.1.42-.36-.22-.35.23.09-.42Z"/><path id="path8901" d="M450.91,124.54l.41,0,.16-.4.17.39.41,0-.31.29.1.42-.36-.22-.35.23.09-.42Z"/><path id="path8903" d="M448.59,124.54l.41,0,.16-.4.17.39.41,0-.31.29.1.42-.36-.22-.35.23.09-.42Z"/><path id="path8905" d="M448.59,120.65l.41,0,.16-.4.17.39.41,0-.31.29.1.42-.36-.22-.35.23.09-.42Z"/><path id="path8907" d="M448.59,122.6l.41,0,.16-.4.17.39.41,0-.31.29.1.42-.36-.22-.35.23.09-.42Z"/><path id="path8909" d="M452.11,123.52l.41,0,.16-.4.17.39.41,0-.31.29.1.42-.36-.22-.35.23.09-.42Z"/><path id="path8911" d="M449.7,123.52l.41,0,.16-.4.17.39.41,0-.31.29.1.42-.36-.22-.35.23.09-.42Z"/><path id="path8913" d="M449.7,119.63l.41,0,.16-.4.17.39.41,0-.31.29.1.42-.36-.22-.35.23.09-.42Z"/><path id="path8915" d="M449.7,121.58l.41,0,.16-.4.17.39.41,0-.31.29.1.42-.36-.22-.35.23.09-.42Z"/><path id="path8917" d="M452.11,119.63l.41,0,.16-.4.17.39.41,0-.31.29.1.42-.36-.22-.35.23.09-.42Z"/><path id="path8919" d="M450.91,120.65l.41,0,.16-.4.17.39.41,0-.31.29.1.42-.36-.22-.35.23.09-.42Z"/><path id="path8921" d="M452.11,121.58l.41,0,.16-.4.17.39.41,0-.31.29.1.42-.36-.22-.35.23.09-.42Z"/><path id="path8923" d="M450.91,122.6l.41,0,.16-.4.17.39.41,0-.31.29.1.42-.36-.22-.35.23.09-.42Z"/></g></g></g><path class="cls-4" d="M288.86,116.24h-5.19a1.93,1.93,0,0,0-1.93,1.93v2.23L279.26,117a1.93,1.93,0,0,0-1.56-.79h-5.35a1.93,1.93,0,0,0-1.93,1.93v7.43l-3-8.1a1.93,1.93,0,0,0-1.81-1.26H259.1a1.93,1.93,0,0,0-1.81,1.26l-3,8.08a6.79,6.79,0,0,0-1.52-1.4l2.05-2.72a1.93,1.93,0,0,0-.32-2.66A13.23,13.23,0,0,0,246,116c-5.94,0-9.05,3.83-9.05,7.61a6.5,6.5,0,0,0,2,5l-2.23,3.19a1.93,1.93,0,0,0,.29,2.54,13.19,13.19,0,0,0,9.26,3.22,11.94,11.94,0,0,0,5-1,1.92,1.92,0,0,0,1.46.68h5.89a1.93,1.93,0,0,0,1.85-1.36l.2-.64H264l.2.64a1.93,1.93,0,0,0,1.85,1.36H272l.18,0,.22,0h5.19a1.93,1.93,0,0,0,1.93-1.93v-2.75l2.83,3.89a1.93,1.93,0,0,0,1.56.79h5a1.93,1.93,0,0,0,1.93-1.93V118.17A1.93,1.93,0,0,0,288.86,116.24Z"/><path class="cls-4" d="M431.19,116a11.31,11.31,0,0,0-9,4,10,10,0,0,0-8.35-4,11.56,11.56,0,0,0-8.44,3.36,1.92,1.92,0,0,0-.43-.51,13.24,13.24,0,0,0-8.49-2.82,9.62,9.62,0,0,0-6.7,2.34v-.16a1.93,1.93,0,0,0-1.93-1.93h-5.19a1.93,1.93,0,0,0-1.93,1.93v.29a10.26,10.26,0,0,0-7-2.5,11.46,11.46,0,0,0-8.83,3.77v-1.56a1.93,1.93,0,0,0-1.93-1.93H357.8a1.93,1.93,0,0,0-1.93,1.93v2.23L353.4,117a1.93,1.93,0,0,0-1.56-.79h-5.35a1.93,1.93,0,0,0-1.93,1.93v7.43l-3-8.1a1.93,1.93,0,0,0-1.81-1.26h-6.53a1.93,1.93,0,0,0-1.81,1.26l-2.33,6.31c-.12-4.47-3.4-7.58-8.09-7.58h-9.15a1.87,1.87,0,0,1-1.69,0h-13a1.93,1.93,0,0,0-1.93,1.93v17.14a1.93,1.93,0,0,0,1.93,1.93h5.19a1.93,1.93,0,0,0,1.93-1.93v-4.47h5.64v4.47a1.93,1.93,0,0,0,1.93,1.93H317a1.93,1.93,0,0,0,1.93-1.93v-.46l.54,1.23a1.93,1.93,0,0,0,1.77,1.16H332.8a1.93,1.93,0,0,0,1.85-1.36l.2-.64h3.31l.2.64a1.93,1.93,0,0,0,1.85,1.36h5.89l.18,0,.22,0h5.19a1.93,1.93,0,0,0,1.93-1.93v-2.75l2.83,3.89a1.93,1.93,0,0,0,1.56.79h5a1.93,1.93,0,0,0,1.93-1.93v-1.53a11.46,11.46,0,0,0,8.83,3.77,10,10,0,0,0,7-2.54v.3a1.93,1.93,0,0,0,1.93,1.93h5.19a1.92,1.92,0,0,0,1.84-1.36,14.22,14.22,0,0,0,7.08,1.67c3.89,0,6.78-1.38,8.25-3.78a11.46,11.46,0,0,0,8.84,3.78,9.88,9.88,0,0,0,8.33-4.05,11.31,11.31,0,0,0,9,4.05c6.45,0,11.31-4.64,11.31-10.8S437.75,116,431.19,116ZM327,129.47l-.27.72-.16-.31C326.73,129.75,326.87,129.61,327,129.47Z"/><path class="cls-30" d="M238.34,132.9,241,129a8,8,0,0,0,5.53,2.21c1,0,1.9-.26,1.9-.93,0-1.64-9.56,0-9.56-6.73,0-2.9,2.42-5.68,7.12-5.68a11.31,11.31,0,0,1,7.27,2.39L250.52,124a8.67,8.67,0,0,0-5-1.7c-1,0-1.31.33-1.31.77,0,1.62,9.54.23,9.54,6.61,0,3.78-2.8,6-7.4,6A11.3,11.3,0,0,1,238.34,132.9Z"/><path class="cls-30" d="M266.07,135.31l-.62-2h-6.17l-.62,2h-5.89l6.32-17.14h6.53L272,135.31Zm-3.7-12.05-1.7,5.53h3.39Z"/><path class="cls-30" d="M283.87,135.31l-6.32-8.69v8.69h-5.19V118.17h5.35l6,8.12v-8.12h5.19v17.14Z"/><path class="cls-30" d="M297.16,135.31V118.17h13v4.52h-7.81v1.7H310v4.52h-7.63v6.4Z"/><path class="cls-30" d="M321.29,135.31l-2.36-5.4H317v5.4h-5.19V118.17H321c4,0,6.17,2.67,6.17,5.89a5.53,5.53,0,0,1-3.08,5.19l3.11,6.07ZM321.9,124c0-.93-.82-1.34-1.7-1.34H317v2.7h3.16C321.08,125.39,321.9,125,321.9,124Z"/><path class="cls-30" d="M340.2,135.31l-.62-2h-6.17l-.62,2h-5.89l6.32-17.14h6.53l6.32,17.14Zm-3.7-12.05-1.7,5.53h3.39Z"/><path class="cls-30" d="M358,135.31l-6.32-8.69v8.69h-5.19V118.17h5.35l6,8.12v-8.12H363v17.14Z"/><path class="cls-30" d="M364.33,126.76c0-5.29,4.06-8.87,9.43-8.87a8,8,0,0,1,7.79,5L377.07,125a3.64,3.64,0,0,0-3.32-2.49,4.29,4.29,0,0,0,0,8.58,3.64,3.64,0,0,0,3.32-2.49l4.47,2.06a8.09,8.09,0,0,1-7.79,5C368.39,135.62,364.33,132,364.33,126.76Z"/><path class="cls-30" d="M382.65,135.31V118.17h5.19v17.14Z"/><path class="cls-30" d="M388.79,132.9l2.7-3.86a8,8,0,0,0,5.53,2.21c1,0,1.9-.26,1.9-.93,0-1.64-9.56,0-9.56-6.73,0-2.9,2.42-5.68,7.12-5.68a11.31,11.31,0,0,1,7.27,2.39L401,124a8.66,8.66,0,0,0-5-1.7c-1,0-1.31.33-1.31.77,0,1.62,9.54.23,9.54,6.61,0,3.78-2.8,6-7.4,6A11.3,11.3,0,0,1,388.79,132.9Z"/><path class="cls-30" d="M404.41,126.76c0-5.29,4.06-8.87,9.43-8.87a8,8,0,0,1,7.79,5L417.16,125a3.64,3.64,0,0,0-3.32-2.49,4.29,4.29,0,0,0,0,8.58,3.64,3.64,0,0,0,3.32-2.49l4.47,2.06a8.09,8.09,0,0,1-7.79,5C408.47,135.62,404.41,132,404.41,126.76Z"/><path class="cls-30" d="M421.81,126.76c0-5.27,4.09-8.87,9.38-8.87s9.38,3.6,9.38,8.87-4.09,8.87-9.38,8.87S421.81,132,421.81,126.76Zm13.49,0a4.12,4.12,0,1,0-4.11,4.29A4.06,4.06,0,0,0,435.3,126.76Z"/><circle class="cls-4" cx="454.43" cy="126.79" r="10.3"/><g class="cls-31"><g id="layer1-2" data-name="layer1"><rect id="rect8764-2" data-name="rect8764" class="cls-32" x="441.18" y="117.41" width="35.13" height="18.45"/></g><g id="layer4-2" data-name="layer4"><rect id="rect8767-2" data-name="rect8767" class="cls-33" x="441.18" y="134.37" width="35.13" height="1.48"/><rect id="rect8769-2" data-name="rect8769" class="cls-4" x="441.18" y="132.89" width="35.13" height="1.48"/><rect id="rect8771-2" data-name="rect8771" class="cls-33" x="441.18" y="131.4" width="35.13" height="1.48"/><rect id="rect8773-2" data-name="rect8773" class="cls-4" x="441.18" y="129.92" width="35.13" height="1.48"/><rect id="rect8775-2" data-name="rect8775" class="cls-33" x="441.18" y="128.53" width="35.13" height="1.39"/><rect id="rect8777-2" data-name="rect8777" class="cls-4" x="441.18" y="127.14" width="35.13" height="1.39"/><rect id="rect8779-2" data-name="rect8779" class="cls-33" x="441.18" y="125.75" width="35.13" height="1.39"/><rect id="rect8781-2" data-name="rect8781" class="cls-4" x="441.18" y="124.36" width="35.13" height="1.39"/><rect id="rect8783-2" data-name="rect8783" class="cls-33" x="441.18" y="122.97" width="35.13" height="1.39"/><rect id="rect8785-2" data-name="rect8785" class="cls-4" x="441.18" y="121.58" width="35.13" height="1.39"/><rect id="rect8787-2" data-name="rect8787" class="cls-33" x="441.18" y="120.19" width="35.13" height="1.39"/><rect id="rect8791-2" data-name="rect8791" class="cls-4" x="441.18" y="118.8" width="35.13" height="1.39"/><rect id="rect8793-2" data-name="rect8793" class="cls-33" x="441.18" y="117.41" width="35.13" height="1.39"/></g><g id="layer5-2" data-name="layer5"><rect id="rect8796-2" data-name="rect8796" class="cls-34" x="441.18" y="117.41" width="14.09" height="9.73"/></g><g id="layer6-2" data-name="layer6"><path id="path8825-2" data-name="path8825" class="cls-4" d="M441.76,126l.41,0,.16-.4.17.39.41,0-.31.29.1.42-.36-.22-.35.23.09-.42Z"/><path id="path8827-2" data-name="path8827" class="cls-4" d="M444.08,126l.41,0,.16-.4.17.39.41,0-.31.29.1.42-.36-.22-.35.23.09-.42Z"/><path id="path8829-2" data-name="path8829" class="cls-4" d="M446.49,126l.41,0,.16-.4.17.39.41,0-.31.29.1.42-.36-.22-.35.23.09-.42Z"/><path id="path8831-2" data-name="path8831" class="cls-4" d="M448.81,126l.41,0,.16-.4.17.39.41,0-.31.29.1.42-.36-.22-.35.23.09-.42Z"/><path id="path8833-2" data-name="path8833" class="cls-4" d="M451.13,126l.41,0,.16-.4.17.39.41,0-.31.29.1.42-.36-.22-.35.23.09-.42Z"/><path id="path8835-2" data-name="path8835" class="cls-4" d="M453.54,126l.41,0,.16-.4.17.39.41,0-.31.29.1.42-.36-.22-.35.23.09-.42Z"/><path id="path8837-2" data-name="path8837" class="cls-4" d="M443,125.07l.41,0,.16-.4.17.39.41,0-.31.29.1.42-.36-.22-.35.23.09-.42Z"/><path id="path8839-2" data-name="path8839" class="cls-4" d="M441.76,124l.41,0,.16-.4.17.39.41,0-.31.29.1.42-.36-.22-.35.23.09-.42Z"/><path id="path8841-2" data-name="path8841" class="cls-4" d="M443,123.12l.41,0,.16-.4.17.39.41,0-.31.29.1.42-.36-.22-.35.23.09-.42Z"/><path id="path8843-2" data-name="path8843" class="cls-4" d="M441.76,122.1l.41,0,.16-.4.17.39.41,0-.31.29.1.42-.36-.22-.35.23.09-.42Z"/><path id="path8845-2" data-name="path8845" class="cls-4" d="M443,121.17l.41,0,.16-.4.17.39.41,0-.31.29.1.42-.36-.22-.35.23.09-.42Z"/><path id="path8847-2" data-name="path8847" class="cls-4" d="M441.76,120.15l.41,0,.16-.4.17.39.41,0-.31.29.1.42-.36-.22-.35.23.09-.42Z"/><path id="path8849-2" data-name="path8849" class="cls-4" d="M443,119.23l.41,0,.16-.4.17.39.41,0-.31.29.1.42-.36-.22-.35.23.09-.42Z"/><path id="path8851-2" data-name="path8851" class="cls-4" d="M441.76,118.21l.41,0,.16-.4.17.39.41,0-.31.29.1.42-.36-.22-.35.23.09-.42Z"/><path id="path8853-2" data-name="path8853" class="cls-4" d="M445.29,125.07l.41,0,.16-.4.17.39.41,0-.31.29.1.42-.36-.22-.35.23.09-.42Z"/><path id="path8855-2" data-name="path8855" class="cls-4" d="M444.08,124l.41,0,.16-.4.17.39.41,0-.31.29.1.42-.36-.22-.35.23.09-.42Z"/><path id="path8857-2" data-name="path8857" class="cls-4" d="M445.29,123.12l.41,0,.16-.4.17.39.41,0-.31.29.1.42-.36-.22-.35.23.09-.42Z"/><path id="path8859-2" data-name="path8859" class="cls-4" d="M444.08,122.1l.41,0,.16-.4.17.39.41,0-.31.29.1.42-.36-.22-.35.23.09-.42Z"/><path id="path8861-2" data-name="path8861" class="cls-4" d="M445.29,121.17l.41,0,.16-.4.17.39.41,0-.31.29.1.42-.36-.22-.35.23.09-.42Z"/><path id="path8863-2" data-name="path8863" class="cls-4" d="M444.08,120.15l.41,0,.16-.4.17.39.41,0-.31.29.1.42-.36-.22-.35.23.09-.42Z"/><path id="path8865-2" data-name="path8865" class="cls-4" d="M445.29,119.23l.41,0,.16-.4.17.39.41,0-.31.29.1.42-.36-.22-.35.23.09-.42Z"/><path id="path8867-2" data-name="path8867" class="cls-4" d="M444.08,118.21l.41,0,.16-.4.17.39.41,0-.31.29.1.42-.36-.22-.35.23.09-.42Z"/><path id="path8869-2" data-name="path8869" class="cls-4" d="M447.6,125.07l.41,0,.16-.4.17.39.41,0-.31.29.1.42-.36-.22-.35.23.09-.42Z"/><path id="path8871-2" data-name="path8871" class="cls-4" d="M446.49,124l.41,0,.16-.4.17.39.41,0-.31.29.1.42-.36-.22-.35.23.09-.42Z"/><path id="path8873-2" data-name="path8873" class="cls-4" d="M451.13,124l.41,0,.16-.4.17.39.41,0-.31.29.1.42-.36-.22-.35.23.09-.42Z"/><path id="path8875-2" data-name="path8875" class="cls-4" d="M448.81,124l.41,0,.16-.4.17.39.41,0-.31.29.1.42-.36-.22-.35.23.09-.42Z"/><path id="path8877-2" data-name="path8877" class="cls-4" d="M452.33,125.07l.41,0,.16-.4.17.39.41,0-.31.29.1.42-.36-.22-.35.23.09-.42Z"/><path id="path8879-2" data-name="path8879" class="cls-4" d="M450,125.07l.41,0,.16-.4.17.39.41,0-.31.29.1.42-.36-.22-.35.23.09-.42Z"/><path id="path8881-2" data-name="path8881" class="cls-4" d="M446.49,118.21l.41,0,.16-.4.17.39.41,0-.31.29.1.42-.36-.22-.35.23.09-.42Z"/><path id="path8883-2" data-name="path8883" class="cls-4" d="M447.6,119.23l.41,0,.16-.4.17.39.41,0-.31.29.1.42-.36-.22-.35.23.09-.42Z"/><path id="path8885-2" data-name="path8885" class="cls-4" d="M446.49,120.15l.41,0,.16-.4.17.39.41,0-.31.29.1.42-.36-.22-.35.23.09-.42Z"/><path id="path8887-2" data-name="path8887" class="cls-4" d="M447.6,121.17l.41,0,.16-.4.17.39.41,0-.31.29.1.42-.36-.22-.35.23.09-.42Z"/><path id="path8889-2" data-name="path8889" class="cls-4" d="M446.49,122.1l.41,0,.16-.4.17.39.41,0-.31.29.1.42-.36-.22-.35.23.09-.42Z"/><path id="path8891-2" data-name="path8891" class="cls-4" d="M447.6,123.12l.41,0,.16-.4.17.39.41,0-.31.29.1.42-.36-.22-.35.23.09-.42Z"/><path id="path8893-2" data-name="path8893" class="cls-4" d="M453.54,124l.41,0,.16-.4.17.39.41,0-.31.29.1.42-.36-.22-.35.23.09-.42Z"/><path id="path8895-2" data-name="path8895" class="cls-4" d="M448.81,122.1l.41,0,.16-.4.17.39.41,0-.31.29.1.42-.36-.22-.35.23.09-.42Z"/><path id="path8897-2" data-name="path8897" class="cls-4" d="M448.81,118.21l.41,0,.16-.4.17.39.41,0-.31.29.1.42-.36-.22-.35.23.09-.42Z"/><path id="path8899-2" data-name="path8899" class="cls-4" d="M448.81,120.15l.41,0,.16-.4.17.39.41,0-.31.29.1.42-.36-.22-.35.23.09-.42Z"/><path id="path8901-2" data-name="path8901" class="cls-4" d="M452.33,123.12l.41,0,.16-.4.17.39.41,0-.31.29.1.42-.36-.22-.35.23.09-.42Z"/><path id="path8903-2" data-name="path8903" class="cls-4" d="M450,123.12l.41,0,.16-.4.17.39.41,0-.31.29.1.42-.36-.22-.35.23.09-.42Z"/><path id="path8905-2" data-name="path8905" class="cls-4" d="M450,119.23l.41,0,.16-.4.17.39.41,0-.31.29.1.42-.36-.22-.35.23.09-.42Z"/><path id="path8907-2" data-name="path8907" class="cls-4" d="M450,121.17l.41,0,.16-.4.17.39.41,0-.31.29.1.42-.36-.22-.35.23.09-.42Z"/><path id="path8909-2" data-name="path8909" class="cls-4" d="M453.54,122.1l.41,0,.16-.4.17.39.41,0-.31.29.1.42-.36-.22-.35.23.09-.42Z"/><path id="path8911-2" data-name="path8911" class="cls-4" d="M451.13,122.1l.41,0,.16-.4.17.39.41,0-.31.29.1.42-.36-.22-.35.23.09-.42Z"/><path id="path8913-2" data-name="path8913" class="cls-4" d="M451.13,118.21l.41,0,.16-.4.17.39.41,0-.31.29.1.42-.36-.22-.35.23.09-.42Z"/><path id="path8915-2" data-name="path8915" class="cls-4" d="M451.13,120.15l.41,0,.16-.4.17.39.41,0-.31.29.1.42-.36-.22-.35.23.09-.42Z"/><path id="path8917-2" data-name="path8917" class="cls-4" d="M453.54,118.21l.41,0,.16-.4.17.39.41,0-.31.29.1.42-.36-.22-.35.23.09-.42Z"/><path id="path8919-2" data-name="path8919" class="cls-4" d="M452.33,119.23l.41,0,.16-.4.17.39.41,0-.31.29.1.42-.36-.22-.35.23.09-.42Z"/><path id="path8921-2" data-name="path8921" class="cls-4" d="M453.54,120.15l.41,0,.16-.4.17.39.41,0-.31.29.1.42-.36-.22-.35.23.09-.42Z"/><path id="path8923-2" data-name="path8923" class="cls-4" d="M452.33,121.17l.41,0,.16-.4.17.39.41,0-.31.29.1.42-.36-.22-.35.23.09-.42Z"/></g></g><polygon class="cls-35" points="142.92 154.33 182.04 142.3 189.85 160.03 144.51 159.08 142.92 154.33"/><path class="cls-36" d="M189.52,148.64c.42,1.28,1.18,3.49,2.71,3.78,2.95.56.54-3.86-.1-5.16a35.9,35.9,0,0,0,3.69,4.13,10.71,10.71,0,0,0,2.36,1.8c.64.32,2.26.93,2.71,0s-1-2.36-1.53-2.95a9.86,9.86,0,0,0-6.35-2.89c1.75.09,3.51.13,5.26.08a25.44,25.44,0,0,0,3.33-.29c.85-.14,2.12-.3,2.68-1.06,1.58-2.15-4.17-2.13-5.07-2.13a25.21,25.21,0,0,0-9.4,2l-.23.09c-.6-1.64-2.37-6.87-4.76-6.36-3.1.77,2.15,6.85,4,7.39Z"/><path class="cls-37" d="M182,142.3S175.47,151,189.85,160"/><polygon class="cls-35" points="113.69 159.94 74.56 147.99 66.77 165.74 112.11 164.7 113.69 159.94"/><polygon class="cls-35" points="112.55 148.71 99.37 219.27 84.83 219.27 76.04 222.37 168.35 222.37 145.89 148.71 112.55 148.71"/><path class="cls-38" d="M141.59,166.55c1.18,10.88,2.77,22.3,2.71,33.48,4,2.32,6.67,7.49,3.54,12.61-1.48,2.43-1.45,6.34-1.23,9.72h21.74l-22.46-73.66h-5.6C141.91,154.31,142.07,160.44,141.59,166.55Z"/><path class="cls-37" d="M100.32,214.21s39.77,8,65.08-1.53"/><polygon class="cls-39" points="135.7 157.74 136.8 222.37 154.44 222.37 144.46 153.85 135.7 157.74"/><polygon class="cls-39" points="124.5 163.13 141.29 166.67 147.36 153.6 124.5 163.13"/><path class="cls-40" d="M171.8,57.24c-2.34-1.07-7.31.64-7.31.64s-13.25,11-15.26,11.15.69,23.82.69,23.82l1.44.81c2.8-4.64,8.13-5.63,13.08-3.71,4.86-19.76,28.43-14.09,28.43-14.09S174.14,58.31,171.8,57.24Z"/><path class="cls-41" d="M156.67,65.75l-.24-.06-6.54,7.08.44.26A51.94,51.94,0,0,1,165.1,87.69q.17-.49.36-.95a53.72,53.72,0,0,0-14.28-14.15l5.51-6c6.49,1.81,10.31,9.36,12.23,14.6q.33-.35.67-.68C167.57,75.1,163.58,67.51,156.67,65.75Z"/><path class="cls-41" d="M180.55,75.47l.82-.12a33.87,33.87,0,0,0-6.13-14.56l-.16-.2-12,2.32.72.56c.09.07,8.15,6.41,10.46,13.88L175,77c-2-6.44-8-11.89-10-13.63l9.73-1.88A33.14,33.14,0,0,1,180.55,75.47Z"/><path class="cls-36" d="M145.15,80.17s12.11-58.32,47.72-4.32c0,0-34.92-27.63-41.49,13.88Z"/><path class="cls-28" d="M192.87,75.85S158.49,58.57,156,87.58l-2.81-4S157.6,51.62,192.87,75.85Z"/><path class="cls-40" d="M19.64,110.55S56.7,86.17,76.88,114.1l13.2-14.44s-13-21.24-15.9-20.21-28.65-.38-28.65-.38-8,1.47-10.4,3.72S19.64,110.55,19.64,110.55Z"/><path class="cls-41" d="M33,96.2l-.28.31A25.42,25.42,0,0,0,35,103.4l1-.31a24,24,0,0,1-2.38-7.54C33.44,95.76,33.23,96,33,96.2Z"/><path class="cls-41" d="M47.37,89.19l-1.32.44c-1.3,3.44-2.26,7.7-1.22,11.48l1.05-.13C44.79,97.15,46,92.66,47.37,89.19Z"/><path class="cls-41" d="M57.59,86.86,56.31,87c-2.44,4.69-2.23,10-1.51,13.88l1.07.13C55.09,97.11,54.82,91.59,57.59,86.86Z"/><path class="cls-41" d="M70.61,88.55a45.37,45.37,0,0,0-5.9,15.14l1,.48a44.25,44.25,0,0,1,6-15.32Z"/><path class="cls-36" d="M84.18,83.19S29.9,44.9,19.64,110.55c0,0,28-43.32,66.24-12.62Z"/><path class="cls-28" d="M19.64,110.55S54.19,76.15,78,98.84l1-5S50.48,69.86,19.64,110.55Z"/><path class="cls-4" d="M71.71,89.66S47.85,77.87,19.64,110.55C19.64,110.55,41.12,76.82,71.71,89.66Z"/><path class="cls-36" d="M177.8,122.16a23.57,23.57,0,0,0-11.42-15.41s4.1-.21,5.32.57a21.84,21.84,0,0,0-10.79-6.93l-4.79-9.71c2.33-.3,4,.6,6.25.78A62.63,62.63,0,0,0,155.58,89l-.23-.32,8.46.66s-.41-2-5.63-4.58a4.07,4.07,0,0,1-.34.56,21.15,21.15,0,0,1-2.74,3c-2.68-3.5-16.24-20-38.46-27.2,0,0-20.42,21.43-25.71,36.79-1.48.63-5.6,0-7.11.51q1,1.81,2.15,3.77a23.84,23.84,0,0,0-5.1,5.1,43.37,43.37,0,0,1,5.68-4.13l0,.07S76.1,111,73.88,119.67c0,0,5.57-8,9-9.9,0,0-13.43,16-6.81,27.52,0,0-.24-6.36,1.45-9.06-.06,2.3-.17,18.5,7.85,26.08,0,0-2.61-7.66-2.64-11.16,0,0,3.18,14.44,24.21,19a25.32,25.32,0,0,1-8.51-6.89c4.47,3.89,24.11,12.56,44.57,3.13.35-.15.79-.35,1.3-.62l.18-.09h0l.49-.28a26.27,26.27,0,0,0,9.19-9.49s-1.27,6-2.2,6.92c0,0,7.83-5.21,9.57-12,0,0-.94,6.1-1.5,7.29,0,0,8.57-7.49,11.08-17.51,0,0,0,3.57-.38,4.24,0,0,9.32-4.51,3.13-17.24A6,6,0,0,1,177.8,122.16ZM78,128h-.21a3,3,0,0,1,.23-.28S78,127.79,78,128Zm56.89-24.77a9.36,9.36,0,0,1,1.64.61A3.49,3.49,0,0,1,134.85,103.2Z"/><path class="cls-42" d="M134.13,84.67a4.8,4.8,0,0,1,.55-1l.23-.32c-.9.15-1.81.34-2.67.53A16.28,16.28,0,0,1,134.13,84.67Z"/><g id="_Mouth" data-name="+Mouth"><path class="cls-4" d="M122.6,145.69a43.55,43.55,0,0,0,15.45,0,.36.36,0,0,0-.15-.71c-.16,0-15.58,3.27-26-4.52-5.62-4.22-8.79-10.9-9.41-19.86a.36.36,0,1,0-.73.05c.64,9.18,3.9,16,9.71,20.39A26.74,26.74,0,0,0,122.6,145.69Z"/></g><path class="cls-4" d="M146.13,120.76c-5.79,2.28,7.42,6.45,7.42,6.45s3.06-4,3.94-7.56S151.91,118.48,146.13,120.76Z"/><path class="cls-4" d="M140.81,101.52c-1.42,2-2.69.86-4.84-1.08-1.13-1-4.07.7-5.14-.34-3.87-.82-7.87-1-11.81-1.5a30.45,30.45,0,0,0-1.87,14.11c1.16,8.66,7.93,14.9,15.12,13.95s12.07-8.74,10.9-17.4A27.81,27.81,0,0,0,140.81,101.52Z"/><path class="cls-43" d="M140.33,109.81s-4.29,16.57-18.45,4.87C121.88,114.67,134.43,121.55,140.33,109.81Z"/><path class="cls-4" d="M160.76,106s-3,11.78-12,4C148.79,110,156.81,114.47,160.76,106Z"/><path class="cls-4" d="M95.61,122.19s6-10.56,12.6-.62C108.21,121.57,101.67,115.11,95.61,122.19Z"/><path class="cls-44" d="M143.72,76.56l-.8-.68a16.39,16.39,0,0,1-5.15,5.47,21,21,0,0,1-2.07,1.24A123.22,123.22,0,0,0,125.37,68.7,15.8,15.8,0,0,0,128.29,66l-1-.49a14.71,14.71,0,0,1-2.65,2.36c-2.08-2.38-4-4.38-5.53-5.92q-1.08-.39-2.19-.76a96.61,96.61,0,0,1,6.89,7.2,13.63,13.63,0,0,1-3.79,1.5,15.2,15.2,0,0,1-1.93.32,74.37,74.37,0,0,0-1.87-8.74l-.82.89a74.51,74.51,0,0,1,1.66,7.92,22.85,22.85,0,0,1-7.62-1.13l-.71.85a23.94,23.94,0,0,0,8.49,1.31,117.53,117.53,0,0,1,1.11,14.79A92.49,92.49,0,0,1,99.16,84l-.21,1a97.56,97.56,0,0,0,17.4,2.18q1,0,2,0c0,5-.22,8.38-.22,8.47l0,.44L145,102.27l-.27-.86a79.09,79.09,0,0,0-8.5-18,22,22,0,0,0,2.1-1.25A17.45,17.45,0,0,0,143.72,76.56Zm-25.44-5.28a15.06,15.06,0,0,0,6.25-2A121.9,121.9,0,0,1,134.79,83c-3.49,1.64-8.43,3-15.39,3.11A118.87,118.87,0,0,0,118.29,71.27Zm25.19,29.59-24.26-5.58c.07-1.09.22-4.08.19-8.13,7.2-.16,12.32-1.53,15.93-3.25A79.85,79.85,0,0,1,143.48,100.87Z"/><path class="cls-36" d="M116.63,61.12s-2.87-16.76,10.61-12.64C127.24,48.48,117.89,46,116.63,61.12Z"/><path class="cls-36" d="M116.61,61s9.94-13.8,16.45-1.29C133.06,59.7,128.29,51.28,116.61,61Z"/><path class="cls-44" d="M171.42,101.46s-12.06-65.21-27.17.11l.59,4.12S159.25,80.77,171.42,101.46Z"/><path class="cls-45" d="M148.86,100.19l.42-.48a26.57,26.57,0,0,1-3.18-5.58l-.26,1A27,27,0,0,0,148.86,100.19Z"/><path class="cls-45" d="M149.39,83.74a62.85,62.85,0,0,0,2.46,13.44l.51-.43c-1.28-3.82-2-9.35-2.45-14.33C149.74,82.84,149.57,83.28,149.39,83.74Z"/><path class="cls-45" d="M163.84,77.61l-.38-.64c-1.6,2.42-3.44,7.28-2.35,16.3l.64.07C160.7,84.78,162.36,80,163.84,77.61Z"/><path class="cls-45" d="M167.27,85.59l-.29-.83a16,16,0,0,0-1.7,9.87q.33.2.66.43A14.93,14.93,0,0,1,167.27,85.59Z"/><path class="cls-45" d="M155.42,73.53a7.75,7.75,0,0,0-.61.53c.16,6.3,1.13,15.15,1.72,20.07l.6-.24C156.52,88.81,155.54,79.72,155.42,73.53Z"/><path class="cls-4" d="M144.86,99c2.3-7.35,10.82-32.4,17.63-23.48h0C157.82,69.23,151.66,71,144.86,99Z"/><path class="cls-38" d="M171.42,101.46S162.69,67,144.84,105.7h0S159.43,80.23,171.42,101.46Z"/><path class="cls-44" d="M76.47,114.77S70.2,38.49,144.26,101l.82,4.74S95.27,86.29,76.47,114.77Z"/><path class="cls-45" d="M82.5,84.58q-.29.44-.57.89C87,87.2,94,91.31,96.22,101l1.12-.29C95,90.74,87.81,86.42,82.5,84.58Z"/><path class="cls-45" d="M87.53,103.12c-1-3.25-4.14-6.07-9.33-8.45q-.13.51-.25,1c4.72,2.2,7.56,4.77,8.46,7.68a6.58,6.58,0,0,1,.29,1.63l1.11-.64A7.73,7.73,0,0,0,87.53,103.12Z"/><path class="cls-45" d="M100.86,76.55c3.18,6.56,5.86,16.91,7.22,22.75l1.18,0c-1.31-5.67-3.89-15.74-7.07-22.53Q101.51,76.62,100.86,76.55Z"/><path class="cls-45" d="M136.6,94.77l-.93-.72a25,25,0,0,1-4.88,7.52l1.23.28A26.07,26.07,0,0,0,136.6,94.77Z"/><path class="cls-45" d="M121.55,100l1.15.15c1-4.61,0-10.56-1.58-15.9l-1.48-.84C121.36,88.91,122.63,95.24,121.55,100Z"/><path class="cls-4" d="M144.26,101S95.55,61.52,79.34,91C79.34,91,87.8,51.68,144.26,101Z"/><path class="cls-38" d="M145.5,105.69s-61.48-39-69,9.08c0,0,13.38-27.28,69-9.08Z"/><path class="cls-36" d="M135.7,157.74l5.66,9.88,1.83-12.52S135.12,158.17,135.7,157.74Z"/><line class="cls-37" x1="141.29" y1="166.67" x2="145.07" y2="221.75"/><line class="cls-37" x1="109.45" y1="165.29" x2="135.93" y2="170.63"/><line class="cls-37" x1="108.11" y1="172.5" x2="135.96" y2="173.21"/><line class="cls-37" x1="146.68" y1="169.13" x2="150.8" y2="164.82"/><line class="cls-37" x1="147.18" y1="172.5" x2="152.28" y2="169.67"/><path class="cls-36" d="M67.09,154.35c-.41,1.28-1.17,3.5-2.7,3.78-2.95.56-.54-3.86.09-5.16a35.9,35.9,0,0,1-3.68,4.14,10.71,10.71,0,0,1-2.36,1.81c-.64.32-2.26.93-2.71,0s1-2.36,1.53-2.95a9.86,9.86,0,0,1,6.35-2.9c-1.75.09-3.51.14-5.26.09a25.44,25.44,0,0,1-3.33-.28c-.85-.14-2.12-.3-2.68-1.06-1.58-2.15,4.16-2.14,5.06-2.14a25.21,25.21,0,0,1,9.4,2l.23.09c.6-1.64,2.35-6.88,4.75-6.37,3.1.76-2.13,6.85-4,7.4Z"/><path class="cls-37" d="M74.56,148s6.59,8.71-7.78,17.75"/><path class="cls-46" d="M252.06,33.14l-44,91.87-5.42-2.73,45.77-90.91a2,2,0,0,1,2.69-.89h0A2,2,0,0,1,252.06,33.14Z"/><rect class="cls-22" x="200.13" y="125.03" width="6.07" height="6.07" transform="translate(-2.59 251.94) rotate(-63.27)"/><polygon class="cls-23" points="198.32 128.02 192.48 138.94 199.89 142.84 206.26 131.14 198.32 128.02"/><path class="cls-24" d="M199.16,135.85c-1,1.61-2.12,3.18-3.1,4.83l-.06.11,3.9,2.05,6.37-11.7-3.72-1.46C201.47,131.77,200.42,133.87,199.16,135.85Z"/><polygon class="cls-22" points="192.48 138.94 199.89 142.84 193.02 155.55 185.62 151.94 192.48 138.94"/><polygon class="cls-22" points="184.1 154.16 191.87 158.24 184.65 170.77 177.25 167.16 184.1 154.16"/><polygon class="cls-23" points="183.89 150.71 194.93 156.31 193.14 159.17 182.13 153.92 183.89 150.71"/><polygon class="cls-23" points="176.3 164.97 187.34 170.57 185.55 173.43 174.53 168.18 176.3 164.97"/><polygon class="cls-23" points="178.52 168.75 186.34 154.09 187.47 154.97 180.35 169.22 178.52 168.75"/><polygon class="cls-23" points="181.54 170.77 189.35 156.11 190.49 156.99 183.36 171.24 181.54 170.77"/><polygon class="cls-25" points="175.56 168.68 177.31 165.52 177.79 165.76 176.06 169.04 175.56 168.68"/><polygon class="cls-25" points="177.18 169.42 178.93 166.25 179.41 166.5 177.67 169.78 177.18 169.42"/><polygon class="cls-25" points="178.56 170.18 180.31 167.02 180.8 167.26 179.06 170.54 178.56 170.18"/><polygon class="cls-25" points="180.18 171.06 181.93 167.9 182.41 168.14 180.67 171.43 180.18 171.06"/><polygon class="cls-25" points="182.16 171.81 183.91 168.64 184.39 168.89 182.66 172.17 182.16 171.81"/><polygon class="cls-25" points="184.1 172.68 185.86 169.51 186.34 169.76 184.6 173.04 184.1 172.68"/><rect class="cls-23" x="187.99" y="134.5" width="5.45" height="1.47" transform="translate(-19.54 237.48) rotate(-61.27)"/><rect class="cls-23" x="192.02" y="134.05" width="1.42" height="4.58" transform="translate(-19.46 239.82) rotate(-61.27)"/><path class="cls-47" d="M188.76,137.27a5,5,0,0,0,2.62-4.77"/><rect class="cls-23" x="191.02" y="128.48" width="5.45" height="1.47" transform="translate(-12.69 237.01) rotate(-61.27)"/><rect class="cls-23" x="195.05" y="128.04" width="1.42" height="4.58" transform="translate(-12.61 239.35) rotate(-61.27)"/><path class="cls-47" d="M191.79,131.25a5,5,0,0,0,2.62-4.77"/><polygon class="cls-22" points="211.16 123.25 208.98 127.6 199.13 122.64 199.13 122.64 211.16 123.25"/><polygon class="cls-23" points="199.13 122.64 205.8 109.38 207.05 123.04 199.13 122.64"/><polygon class="cls-24" points="203.87 122.88 205.8 109.38 207.05 123.04 203.87 122.88"/><polygon class="cls-35" points="106.18 183.24 101.79 187.57 105.95 188.92 106.18 183.24"/><polygon class="cls-38" points="105.1 188.67 108.37 189.56 104.78 190.41 105.1 188.67"/><polygon class="cls-4" points="46.1 175.63 43.13 189.87 55.75 197.09 41.3 198.67 38.33 212.91 32.36 199.64 17.91 201.22 28.68 191.45 22.71 178.18 35.33 185.41 46.1 175.63"/></g></g></svg>