<svg xmlns="http://www.w3.org/2000/svg" xmlns:xlink="http://www.w3.org/1999/xlink" viewBox="0 0 381.47 307"><defs><style>.cls-1{fill:none;}.cls-2{isolation:isolate;}.cls-3{fill:#d4fcf8;}.cls-4{fill:#abefea;}.cls-5{fill:#8dd8d4;}.cls-6{opacity:0.05;}.cls-18,.cls-22,.cls-6,.cls-7{mix-blend-mode:multiply;}.cls-7{opacity:0.1;}.cls-8{fill:#221f1f;}.cls-9{fill:#58595b;}.cls-10{fill:#fff;}.cls-11{fill:#e64d25;}.cls-12{fill:#c93824;}.cls-13{fill:#2b71b9;}.cls-14{fill:#e73c31;}.cls-15{fill:#122f49;}.cls-16{fill:#82d4f6;}.cls-17{fill:#ffc708;}.cls-18{opacity:0.3;}.cls-19{fill:#e1e2e3;}.cls-20{clip-path:url(#clip-path);}.cls-21{fill:#e85551;}.cls-22{opacity:0.2;}.cls-23{fill:#414142;}.cls-24{fill:#e6e7e8;}.cls-25{fill:#e5e4e4;}.cls-26{fill:#d2d2d2;}.cls-27{fill:#515254;}</style><clipPath id="clip-path"><polygon class="cls-1" points="302.45 214.88 265.53 205.98 240.74 282.01 260.84 292.75 280.94 303.49 330.37 240.63 302.45 214.88"/></clipPath></defs><title>Artboard 9 copy 3</title><g class="cls-2"><g id="Layer_1" data-name="Layer 1"><path class="cls-3" d="M325.55,292a163.55,163.55,0,1,0-266.66,0Z"/><path class="cls-4" d="M295.26,292a140,140,0,1,0-206.08,0Z"/><path class="cls-5" d="M127.43,292H257a114.77,114.77,0,1,0-129.58,0Z"/><g class="cls-6"><path d="M212.13,287.09l.58.24Z"/><path d="M355.39,112.36l.43-.19L345.75,86q-7.17-19.73-14.29-39.49C256.24,94.79,207,177.38,194.81,279.66l6.34,2.78c0,.13-.05.27-.06.4l4.09,1.33c2.1.9,4.28,1.81,6.95,2.92l-.49-.21c.06-.21.1-.4.15-.57l1.28.42c.14-.5.28-1,.41-1.48l.66.28c.09,0,.09.28,0,.54-.2.67-.29,1-.48,1.66l1.15.48C241,208.33,292.11,151.6,362,130.36,359.77,124.36,357.59,118.36,355.39,112.36ZM325.75,54c1.27-.82,1.91-1.22,3.19-2,.24-.15.54,0,.67.39,1.08,2.91,1.61,4.37,2.69,7.28a.78.78,0,0,1-.18.9c-1.27.74-1.9,1.12-3.16,1.89-.23.14-.53,0-.66-.39l-2.73-7.14A.8.8,0,0,1,325.75,54Zm-10.09,6.83c1.23-.88,1.85-1.31,3.09-2.17.23-.16.53,0,.67.34l2.78,6.93a.75.75,0,0,1-.16.89L319,68.84c-.23.15-.52,0-.66-.34l-2.82-6.8A.79.79,0,0,1,315.66,60.79Zm-9.77,7.35c1.19-.94,1.79-1.41,3-2.33.22-.17.52,0,.66.28l2.86,6.6a.76.76,0,0,1-.14.88c-1.19.88-1.79,1.32-3,2.21-.22.16-.51,0-.65-.28-1.16-2.59-1.74-3.88-2.89-6.47A.78.78,0,0,1,305.89,68.14ZM296.44,76c1.15-1,1.73-1.49,2.9-2.48.21-.18.5-.07.65.24L302.91,80a.75.75,0,0,1-.12.87c-1.16.93-1.73,1.4-2.87,2.35-.21.18-.5.08-.65-.23l-2.95-6.12A.81.81,0,0,1,296.44,76Zm-9.1,8.32c1.11-1.06,1.67-1.59,2.79-2.63.2-.19.49-.11.64.18,1.19,2.37,1.78,3.56,3,5.92a.76.76,0,0,1-.1.86c-1.12,1-1.67,1.5-2.77,2.51a.41.41,0,0,1-.64-.18c-1.19-2.32-1.79-3.47-3-5.79A.78.78,0,0,1,287.34,84.29Zm-8.75,8.77c1.06-1.12,1.6-1.67,2.68-2.77a.38.38,0,0,1,.63.13c1.2,2.24,1.8,3.36,3,5.59a.75.75,0,0,1-.09.85c-1.07,1-1.61,1.57-2.67,2.64a.37.37,0,0,1-.62-.13l-3-5.45A.78.78,0,0,1,278.59,93.06Zm-8.39,9.21c1-1.17,1.53-1.75,2.56-2.9a.36.36,0,0,1,.62.08c1.21,2.11,1.82,3.16,3,5.25a.74.74,0,0,1-.07.84c-1,1.11-1.54,1.66-2.55,2.78a.36.36,0,0,1-.61-.08c-1.22-2-1.83-3.07-3-5.12A.79.79,0,0,1,270.2,102.27Zm-8,9.64c1-1.22,1.46-1.82,2.44-3a.36.36,0,0,1,.61,0c1.21,2,1.82,3,3,4.91a.76.76,0,0,1-.06.83c-1,1.16-1.47,1.74-2.44,2.91a.35.35,0,0,1-.6,0c-1.22-1.91-1.82-2.87-3-4.79A.78.78,0,0,1,262.19,111.91ZM254.56,122c.92-1.27,1.39-1.9,2.32-3.16a.34.34,0,0,1,.59,0c1.21,1.84,1.82,2.76,3,4.59a.75.75,0,0,1,0,.81c-.94,1.21-1.41,1.82-2.33,3a.33.33,0,0,1-.58,0c-1.22-1.78-1.82-2.67-3-4.46A.76.76,0,0,1,254.56,122Zm-7.23,10.45c.87-1.32,1.31-2,2.2-3.28.16-.24.42-.27.56,0,1.21,1.7,1.82,2.55,3,4.26a.75.75,0,0,1,0,.8c-.89,1.26-1.34,1.89-2.21,3.16-.16.23-.42.26-.56.06l-3-4.14A.77.77,0,0,1,247.33,132.42Zm-6.83,10.83c.82-1.37,1.24-2.05,2.07-3.4.16-.25.4-.29.55-.1,1.2,1.58,1.79,2.37,3,3.94a.73.73,0,0,1,0,.79c-.84,1.31-1.26,2-2.08,3.28-.15.25-.4.29-.54.1l-3-3.81A.79.79,0,0,1,240.5,143.25Zm-6.41,11.19c.77-1.41,1.16-2.11,1.94-3.51.15-.25.38-.32.53-.14l2.94,3.62a.73.73,0,0,1,0,.78c-.79,1.35-1.18,2-2,3.39-.14.25-.38.32-.52.14l-2.92-3.49A.77.77,0,0,1,234.09,154.44Zm-6,11.54c.72-1.45,1.08-2.18,1.81-3.62.13-.26.36-.34.5-.18l2.89,3.31a.76.76,0,0,1,0,.76c-.74,1.4-1.11,2.1-1.83,3.5-.14.26-.36.35-.5.19l-2.86-3.19A.77.77,0,0,1,228.11,166Zm-5.45,11.67c.66-1.49,1-2.24,1.67-3.72.13-.27.34-.37.48-.22l2.81,3a.75.75,0,0,1,0,.75c-.69,1.43-1,2.15-1.7,3.6-.13.27-.34.37-.48.22l-2.78-2.89A.75.75,0,0,1,222.66,177.65Zm-5.1,12.17c.6-1.53.91-2.29,1.53-3.81.12-.28.32-.39.45-.26l2.74,2.71a.73.73,0,0,1,0,.73c-.64,1.48-.95,2.22-1.57,3.7-.11.28-.31.39-.44.27l-2.7-2.6A.77.77,0,0,1,217.56,189.82Zm-4.64,12.47c.55-1.57.82-2.35,1.39-3.9.1-.29.29-.42.42-.3l2.64,2.42a.73.73,0,0,1,0,.72c-.58,1.51-.86,2.27-1.42,3.79-.11.28-.3.41-.42.3L213,203A.77.77,0,0,1,212.92,202.29ZM208.75,215c.49-1.59.74-2.39,1.24-4,.1-.29.27-.44.4-.34l2.53,2.13a.76.76,0,0,1,.05.71c-.52,1.55-.78,2.32-1.29,3.88-.09.28-.26.44-.39.34l-2.48-2A.79.79,0,0,1,208.75,215Zm-3.69,13c.43-1.63.65-2.44,1.09-4.06.09-.3.25-.47.37-.37l2.41,1.85c.12.09.14.4.06.69-.47,1.58-.69,2.37-1.14,4-.08.29-.24.46-.36.37l-2.36-1.74A.83.83,0,0,1,205.06,228Zm-3.19,13.25c.36-1.66.55-2.49.94-4.14.07-.3.22-.48.33-.4l2.28,1.58c.11.08.14.38.06.68-.4,1.61-.6,2.41-1,4-.08.3-.22.48-.33.41L202,242C201.84,241.9,201.8,241.59,201.87,241.29Zm-2.69,13.47c.3-1.69.45-2.53.78-4.2.06-.31.19-.51.3-.44l2.13,1.32c.1.06.14.36.07.66-.34,1.64-.51,2.46-.83,4.11-.06.3-.19.5-.3.44l-2.07-1.22C199.16,255.37,199.12,255.07,199.18,254.76ZM197,268.44c.23-1.71.36-2.56.62-4.26,0-.32.16-.53.26-.48l2,1.07c.1.05.13.35.08.65-.28,1.67-.42,2.5-.68,4.18,0,.3-.16.51-.26.47l-1.91-1C197,269.05,197,268.75,197,268.44Zm.92,10.51-.25,2-2.09-.93c.08-.8.13-1.2.22-2,0-.32.13-.54.22-.5l1.81.82C197.92,278.35,198,278.64,197.92,279Zm19.81-4.2c-.47,1.38-.7,2.08-1.15,3.48-.09.25-.23.43-.32.38l-.77-.37c.44-1.5.9-3,1.37-4.48l.85.43C217.8,274.24,217.81,274.49,217.73,274.75Zm4-11c-.51,1.34-.77,2-1.27,3.38-.09.25-.25.41-.35.35l-1-.54c.5-1.47,1-2.92,1.53-4.38.31.19.62.38,1,.62C221.78,263.22,221.79,263.47,221.69,263.72ZM226.05,253c-.56,1.31-.84,2-1.39,3.29-.1.25-.27.39-.38.32-.47-.3-.81-.53-1.17-.75.35-.93.71-1.85,1.07-2.77l-1.22-.71c.14-.34.28-.71.46-1.14.1-.25.27-.39.38-.32l2.24,1.51C226.15,252.5,226.16,252.75,226.05,253Zm4.74-10.4c-.61,1.27-.91,1.91-1.51,3.19-.11.24-.29.36-.41.28l-1.3-.93q.93-2.07,1.88-4.12l1.33,1C230.9,242.1,230.9,242.36,230.79,242.59Zm5.1-10.06c-.66,1.22-1,1.84-1.62,3.08-.12.23-.31.34-.44.24l-1.42-1.13c.65-1.34,1.31-2.69,2-4l1.5,1.23C236,232,236,232.3,235.89,232.53Zm5.45-9.72c-.7,1.18-1,1.77-1.73,3-.12.22-.33.31-.46.2l-1.64-1.42q1-2,2.08-3.93l1.75,1.57A.52.52,0,0,1,241.34,222.81Zm5.79-9.37c-.74,1.14-1.1,1.71-1.83,2.87-.13.21-.35.28-.48.16l-1.94-1.82c.72-1.28,1.46-2.55,2.19-3.82l2.06,2A.49.49,0,0,1,247.13,213.44Zm6.12-9c-.78,1.09-1.16,1.64-1.93,2.75-.14.2-.37.26-.5.12L248.53,205c.62-1,1.24-2.07,1.87-3.1l-.62-.61L250,201c.14-.2.37-.26.51-.11l2.79,2.93A.51.51,0,0,1,253.25,204.45Zm6.33-8.47c-.82,1-1.22,1.57-2,2.63a.33.33,0,0,1-.52.07l-2.52-2.75c.83-1.17,1.67-2.33,2.51-3.48l2.57,2.89A.51.51,0,0,1,259.58,196Zm6.73-8.22c-.85,1-1.27,1.49-2.12,2.5a.34.34,0,0,1-.54,0L261,187.16c.87-1.13,1.73-2.27,2.6-3.38l2.76,3.33A.53.53,0,0,1,266.31,187.76Zm7-7.82c-.89.94-1.33,1.42-2.21,2.38a.36.36,0,0,1-.56,0l-2.89-3.65c.89-1.09,1.8-2.16,2.71-3.24h0l3,3.85A.53.53,0,0,1,273.34,179.94Zm7.31-7.4c-.93.89-1.39,1.34-2.3,2.25a.37.37,0,0,1-.57-.06l-3-4a.51.51,0,0,1-.09-.26q1.26-1.46,2.55-2.88a.38.38,0,0,1,.43.15c1.21,1.67,1.81,2.51,3,4.18A.53.53,0,0,1,280.65,172.54Zm7.57-7c-1,.84-1.43,1.26-2.38,2.12a.38.38,0,0,1-.58-.11l-3-4.37a.55.55,0,0,1,0-.69c1-.9,1.42-1.35,2.37-2.23a.38.38,0,0,1,.59.1l3,4.5A.54.54,0,0,1,288.22,165.56ZM296,159c-1,.78-1.47,1.18-2.45,2a.41.41,0,0,1-.6-.16l-3-4.69a.57.57,0,0,1,.06-.71c1-.85,1.46-1.27,2.45-2.1a.4.4,0,0,1,.6.16c1.22,1.93,1.82,2.9,3,4.82A.54.54,0,0,1,296,159Zm8.07-6.09-2.52,1.84a.43.43,0,0,1-.61-.2c-1.22-2-1.83-3-3-5a.56.56,0,0,1,.06-.71c1-.8,1.51-1.19,2.53-2,.19-.15.46,0,.61.2,1.22,2.07,1.82,3.1,3,5.16A.53.53,0,0,1,304.11,152.94Zm8.3-5.62c-1,.67-1.56,1-2.6,1.69-.19.13-.46,0-.61-.25l-3-5.36a.57.57,0,0,1,.07-.73l2.61-1.81c.19-.13.47,0,.62.25l3,5.49A.56.56,0,0,1,312.41,147.32Zm8.51-5.16c-1.06.61-1.6.92-2.66,1.55-.19.12-.47,0-.62-.3l-3-5.7a.57.57,0,0,1,.08-.73c1.07-.68,1.61-1,2.68-1.67.2-.12.48,0,.63.3l3,5.83A.54.54,0,0,1,320.92,142.16Zm8.72-4.67c-1.09.55-1.64.83-2.72,1.4-.2.1-.48,0-.63-.35-1.18-2.41-1.78-3.62-3-6a.56.56,0,0,1,.1-.74c1.09-.62,1.64-.93,2.74-1.52.2-.11.49,0,.63.35,1.18,2.47,1.77,3.7,2.94,6.17C329.89,137.06,329.84,137.39,329.64,137.49Zm8.91-4.18-2.78,1.24c-.21.1-.49-.08-.63-.4-1.16-2.54-1.74-3.82-2.91-6.37-.14-.32-.09-.66.12-.76,1.11-.55,1.68-.83,2.8-1.36.21-.1.49.08.64.4l2.87,6.51C338.81,132.89,338.76,133.22,338.55,133.31Zm9.09-3.68c-1.14.43-1.71.64-2.84,1.09-.21.08-.49-.12-.63-.45-1.13-2.69-1.7-4-2.84-6.72-.14-.33-.08-.67.13-.76,1.14-.5,1.72-.74,2.87-1.21.21-.09.49.11.63.45,1.12,2.74,1.68,4.11,2.81,6.85C347.91,129.22,347.85,129.55,347.64,129.63Zm9.25-3.16c-1.16.36-1.73.54-2.88.92-.22.07-.5-.15-.64-.5l-2.75-7c-.13-.35-.07-.7.14-.78,1.17-.43,1.75-.64,2.92-1,.22-.08.5.15.64.51L357,125.7C357.17,126.06,357.1,126.4,356.89,126.47Z"/></g><g class="cls-7"><path class="cls-8" d="M324.3,93.21c10.12-6.48,20.09-12.3,30.71-17.91q-14.17-22.9-28.33-45.82a322.7,322.7,0,0,0-31.77,25.09Z"/><path class="cls-8" d="M213.7,239.65a292.32,292.32,0,0,0-9.37,35.7l-14.83-1.81a314,314,0,0,1,4.78-40.21C202.05,235.87,205.94,237.13,213.7,239.65Z"/><path class="cls-8" d="M277.7,132.62a353.06,353.06,0,0,1,44.2-37.78q-14.73-19-29.44-38.06a389.66,389.66,0,0,0-43.64,49.08Z"/><path class="cls-8" d="M240.63,181.2a359.28,359.28,0,0,1,35.09-46.48q-14.4-13.09-28.78-26.21a386.27,386.27,0,0,0-31.88,56.75Z"/><path class="cls-8" d="M214.5,237.27a363.78,363.78,0,0,1,24.64-53.57l-25.35-15.46a383.37,383.37,0,0,0-19,62.38Z"/></g><path class="cls-9" d="M205.17,276.25l.38-1.75c.06-.28,0-.52-.08-.54l-2.2-.46c-.11,0-.25.19-.3.47-.14.71-.21,1.07-.34,1.78L204,276c-8.79-1.7-13.26-2.62-22.35-4.58,2.64-104.75,52-196.21,136.5-257.74q23,39.5,46.43,78.78c-81.29,33.5-135.9,99.34-157.93,184ZM317,30c1.41-1,2.13-1.47,3.56-2.44a.71.71,0,0,0,.11-.94l-4.08-6.83a.6.6,0,0,0-.84-.28c-1.45,1-2.17,1.54-3.59,2.58a.71.71,0,0,0-.11.95c1.64,2.68,2.46,4,4.11,6.69A.59.59,0,0,0,317,30Zm37.65,60.85c1.33-.58,2-.87,3.35-1.43.24-.1.28-.46.08-.79L354,81.92a.74.74,0,0,0-.82-.4c-1.36.62-2,.93-3.38,1.57-.25.11-.28.48-.08.8l4.13,6.6A.74.74,0,0,0,354.63,90.88ZM305.76,38.23c1.36-1,2.05-1.56,3.43-2.59a.68.68,0,0,0,.09-.92l-4.15-6.48a.58.58,0,0,0-.84-.22c-1.39,1.08-2.08,1.63-3.45,2.72a.72.72,0,0,0-.09.94L304.93,38A.58.58,0,0,0,305.76,38.23ZM344,95.83c1.3-.65,2-1,3.27-1.59.25-.11.27-.46.07-.78l-4.17-6.38a.68.68,0,0,0-.81-.34c-1.32.67-2,1-3.3,1.71-.24.13-.26.48-.06.79,1.68,2.5,2.51,3.75,4.19,6.24A.72.72,0,0,0,344,95.83ZM295,46.89c1.31-1.1,2-1.65,3.3-2.73a.68.68,0,0,0,.07-.91l-4.21-6.12a.55.55,0,0,0-.82-.17c-1.34,1.13-2,1.71-3.32,2.86a.71.71,0,0,0-.06.92l4.22,6A.56.56,0,0,0,295,46.89Zm38.64,54.36c1.27-.7,1.91-1,3.19-1.73.23-.13.26-.47,0-.77l-4.22-6a.65.65,0,0,0-.8-.3c-1.29.73-1.93,1.11-3.21,1.86a.53.53,0,0,0,0,.78L332.8,101A.67.67,0,0,0,333.6,101.25ZM284.59,56c1.26-1.16,1.89-1.73,3.17-2.87a.69.69,0,0,0,0-.9l-4.24-5.76a.54.54,0,0,0-.81-.13c-1.28,1.19-1.91,1.79-3.17,3a.71.71,0,0,0,0,.91l4.25,5.63A.54.54,0,0,0,284.59,56Zm38.9,51.15c1.24-.76,1.86-1.13,3.11-1.87.23-.14.24-.48,0-.76l-4.25-5.67a.64.64,0,0,0-.79-.25c-1.25.79-1.88,1.19-3.11,2a.51.51,0,0,0,0,.76l4.26,5.54A.64.64,0,0,0,323.49,107.14ZM274.67,65.5c1.2-1.2,1.81-1.8,3-3a.68.68,0,0,0,0-.88l-4.26-5.42a.51.51,0,0,0-.79-.08c-1.22,1.24-1.83,1.87-3,3.12a.71.71,0,0,0,0,.9l4.27,5.28A.5.5,0,0,0,274.67,65.5Zm39,48c1.2-.81,1.8-1.22,3-2a.5.5,0,0,0,0-.74l-4.26-5.32a.6.6,0,0,0-.79-.2c-1.21.85-1.81,1.28-3,2.14a.52.52,0,0,0,0,.76l4.27,5.19A.61.61,0,0,0,313.68,113.49ZM265.2,75.43c1.15-1.26,1.73-1.88,2.89-3.12a.67.67,0,0,0,0-.87c-1.7-2-2.56-3-4.26-5.08a.5.5,0,0,0-.77,0c-1.16,1.29-1.74,1.94-2.88,3.24a.68.68,0,0,0,0,.88c1.7,2,2.55,3,4.26,4.94A.49.49,0,0,0,265.2,75.43Zm39,44.85c1.16-.87,1.75-1.3,2.92-2.15a.5.5,0,0,0,0-.73l-4.27-5a.57.57,0,0,0-.77-.15c-1.17.9-1.75,1.36-2.91,2.28a.51.51,0,0,0,0,.74l4.26,4.85A.58.58,0,0,0,304.17,120.28Zm-48-34.54c1.08-1.3,1.63-1.95,2.73-3.24a.65.65,0,0,0,0-.85l-4.25-4.74a.48.48,0,0,0-.75,0c-1.1,1.34-1.65,2-2.73,3.36a.69.69,0,0,0,0,.87l4.24,4.6A.49.49,0,0,0,256.21,85.74ZM295,127.51c1.11-.92,1.68-1.38,2.81-2.29a.49.49,0,0,0,0-.72l-4.25-4.64a.57.57,0,0,0-.76-.1c-1.13,1-1.69,1.44-2.8,2.41a.5.5,0,0,0,0,.73l4.23,4.51A.58.58,0,0,0,295,127.51Zm-47.3-31.09c1-1.35,1.54-2,2.59-3.35a.66.66,0,0,0,0-.84L246,87.83a.46.46,0,0,0-.72.06c-1,1.39-1.56,2.08-2.58,3.47a.68.68,0,0,0,0,.85L247,96.49A.47.47,0,0,0,247.69,96.42Zm38.44,38.73c1.08-1,1.62-1.46,2.71-2.41a.5.5,0,0,0,0-.71l-4.22-4.31a.53.53,0,0,0-.74,0c-1.08,1-1.62,1.51-2.69,2.53a.5.5,0,0,0,0,.72l4.19,4.18A.54.54,0,0,0,286.13,135.15Zm-46.47-27.7c1-1.39,1.45-2.08,2.44-3.46a.65.65,0,0,0,0-.82l-4.18-4.07a.45.45,0,0,0-.7.11c-1,1.42-1.46,2.14-2.42,3.57a.69.69,0,0,0,.06.84c1.66,1.58,2.49,2.37,4.16,3.94A.44.44,0,0,0,239.66,107.45Zm38,35.75c1-1,1.55-1.53,2.6-2.54a.48.48,0,0,0,0-.69L276,136a.52.52,0,0,0-.72,0c-1,1.05-1.55,1.58-2.57,2.65a.5.5,0,0,0,0,.71l4.14,3.85A.52.52,0,0,0,277.62,143.2Zm-45.49-24.38c.91-1.43,1.36-2.14,2.28-3.56a.64.64,0,0,0-.06-.81c-1.65-1.49-2.47-2.24-4.12-3.75a.44.44,0,0,0-.67.16c-.91,1.46-1.36,2.2-2.25,3.67a.66.66,0,0,0,.07.82c1.63,1.45,2.45,2.18,4.09,3.62A.43.43,0,0,0,232.13,118.82Zm37.34,32.81c1-1.07,1.49-1.6,2.49-2.65a.48.48,0,0,0,0-.68l-4.1-3.66a.49.49,0,0,0-.7,0c-1,1.11-1.48,1.66-2.46,2.78a.49.49,0,0,0,0,.69l4.07,3.54A.5.5,0,0,0,269.47,151.63Zm-44.35-21.12c.84-1.47,1.26-2.2,2.12-3.66a.64.64,0,0,0-.07-.79l-4-3.43a.42.42,0,0,0-.64.19c-.85,1.5-1.26,2.26-2.09,3.77a.66.66,0,0,0,.09.8l4,3.31A.42.42,0,0,0,225.12,130.51Zm36.58,29.94c.94-1.11,1.41-1.67,2.37-2.77a.47.47,0,0,0,0-.67l-4-3.34a.48.48,0,0,0-.68.08c-.94,1.14-1.41,1.72-2.33,2.88a.49.49,0,0,0,0,.68l4,3.23A.48.48,0,0,0,261.7,160.45Zm-43.06-18c.77-1.5,1.16-2.25,2-3.74a.63.63,0,0,0-.09-.78l-3.95-3.12c-.2-.16-.47,0-.61.23-.78,1.54-1.16,2.31-1.92,3.86a.65.65,0,0,0,.1.78l3.91,3C218.22,142.87,218.5,142.77,218.64,142.49Zm35.67,27.14c.89-1.16,1.34-1.73,2.25-2.88a.46.46,0,0,0-.05-.66l-3.92-3a.46.46,0,0,0-.65.12c-.89,1.19-1.34,1.79-2.21,3a.48.48,0,0,0,.05.66l3.89,2.92A.46.46,0,0,0,254.31,169.63Zm-41.62-14.87c.7-1.54,1.06-2.31,1.79-3.83a.66.66,0,0,0-.11-.77l-3.84-2.81c-.19-.14-.45,0-.58.27-.71,1.57-1.06,2.36-1.75,3.94a.67.67,0,0,0,.11.77l3.8,2.7C212.3,155.16,212.56,155,212.69,154.76Zm34.64,24.41c.84-1.21,1.26-1.81,2.12-3a.45.45,0,0,0-.06-.64l-3.81-2.73a.44.44,0,0,0-.62.16c-.84,1.23-1.26,1.85-2.08,3.1a.48.48,0,0,0,.06.65l3.77,2.62A.46.46,0,0,0,247.33,179.17Zm-40-12.09c.64-1.57,1-2.35,1.62-3.91a.65.65,0,0,0-.11-.75l-3.73-2.53c-.19-.12-.43,0-.55.31-.64,1.6-.95,2.41-1.57,4a.67.67,0,0,0,.12.75l3.68,2.42C207,167.51,207.26,167.37,207.37,167.08Zm33.49,21.79c.79-1.24,1.19-1.86,2-3.09a.46.46,0,0,0-.07-.63l-3.69-2.45a.44.44,0,0,0-.59.2c-.79,1.28-1.18,1.92-1.95,3.2a.47.47,0,0,0,.07.64l3.64,2.34A.45.45,0,0,0,240.86,188.87Zm-38.34-9c.57-1.6.86-2.4,1.45-4a.65.65,0,0,0-.13-.73l-3.59-2.24c-.18-.11-.41,0-.52.34-.56,1.63-.84,2.45-1.39,4.09a.66.66,0,0,0,.14.74l3.54,2.13C202.19,180.3,202.42,180.14,202.52,179.85Zm32.19,19.21c.74-1.28,1.11-1.92,1.86-3.19a.45.45,0,0,0-.07-.62L233,193.09a.42.42,0,0,0-.56.24c-.73,1.31-1.09,2-1.81,3.29a.47.47,0,0,0,.08.63l3.49,2.06A.44.44,0,0,0,234.71,199.06Zm-36.47-6.21c.49-1.63.75-2.44,1.27-4.06.09-.3,0-.62-.14-.71l-3.44-2c-.18-.09-.39.07-.48.38-.49,1.66-.74,2.49-1.21,4.15-.08.31,0,.63.15.72l3.38,1.86C197.94,193.31,198.15,193.14,198.24,192.85ZM229,209.56c.68-1.32,1-2,1.72-3.29.13-.24.1-.51-.07-.6l-3.4-1.89c-.17-.1-.4,0-.53.28-.67,1.35-1,2-1.66,3.38-.12.25-.09.53.08.62l3.34,1.78C228.64,209.93,228.88,209.8,229,209.56Zm-34.46-3.51c.42-1.65.64-2.47,1.08-4.12a.63.63,0,0,0-.14-.7l-3.28-1.69c-.17-.09-.36.1-.44.41-.42,1.68-.62,2.52-1,4.21-.07.31,0,.62.16.7l3.21,1.6C194.27,206.54,194.46,206.35,194.54,206.05Zm29.21,14.31c.62-1.36.94-2,1.58-3.38.12-.25.08-.52-.08-.6L222,214.76c-.16-.08-.38.06-.5.32-.61,1.38-.92,2.07-1.51,3.47-.11.25-.07.52.08.6l3.17,1.52C223.41,220.75,223.63,220.61,223.75,220.36Zm-32.32-.92c.35-1.67.53-2.5.9-4.17.07-.31,0-.61-.15-.68l-3.11-1.44c-.15-.07-.33.12-.39.44-.35,1.7-.52,2.55-.84,4.26-.06.32,0,.62.17.69l3,1.34C191.19,220,191.36,219.75,191.43,219.44Zm27.53,12c.56-1.39.85-2.08,1.43-3.46.11-.26.08-.52-.08-.58L217.26,226c-.15-.07-.36.09-.46.35-.55,1.41-.83,2.12-1.36,3.55-.1.26-.06.53.09.59l3,1.27C218.65,231.85,218.86,231.69,219,231.43Zm-30,1.57c.27-1.69.42-2.53.71-4.22.06-.31,0-.61-.16-.67l-2.91-1.19c-.15,0-.31.15-.35.47-.27,1.72-.4,2.58-.64,4.31,0,.32,0,.62.17.68l2.84,1.09C188.72,233.52,188.87,233.32,188.92,233Zm25.73,9.78c.51-1.43.76-2.14,1.29-3.55.09-.26.06-.52-.08-.57L213,237.54c-.15-.06-.34.11-.43.38-.49,1.45-.73,2.17-1.21,3.63-.08.27,0,.53.1.58l2.78,1C214.37,243.21,214.56,243,214.65,242.78ZM187,246.72c.19-1.71.3-2.56.52-4.27,0-.31,0-.61-.17-.65l-2.71-1c-.14,0-.27.17-.31.49-.19,1.74-.28,2.61-.44,4.35,0,.32.05.62.18.66l2.63.86C186.86,247.25,187,247,187,246.72Zm23.81,7.65c.44-1.45.67-2.18,1.13-3.62.08-.27.05-.52-.08-.56l-2.66-.89c-.13,0-.3.14-.38.41-.43,1.48-.64,2.22-1,3.71-.08.27,0,.52.09.56l2.57.8C210.59,254.82,210.76,254.64,210.84,254.37Zm-25.08,6.19c.12-1.72.18-2.58.32-4.3,0-.32-.05-.61-.17-.64l-2.5-.73c-.12,0-.24.2-.26.52-.11,1.75-.16,2.63-.24,4.39,0,.32.07.61.19.64l2.4.64C185.62,261.11,185.74,260.88,185.76,260.56Zm21.77,5.64c.38-1.48.58-2.22,1-3.69.08-.27,0-.52-.08-.55l-2.43-.67c-.13,0-.28.17-.35.45-.36,1.5-.54,2.25-.88,3.77-.07.28,0,.53.09.55l2.35.59C207.31,266.68,207.46,266.48,207.53,266.2Zm-22.28,4c0-.32-.07-.6-.18-.62l-2.27-.51c-.11,0-.2.21-.21.54,0,.82,0,1.23,0,2.05l2.62.56C185.21,271.39,185.22,271,185.25,270.18Z"/><path class="cls-10" d="M323,92.51c10.38-6.2,20.56-11.67,31.46-16.91q-13.72-23.16-27.33-46.39a307,307,0,0,0-32.61,24Q308.75,72.88,323,92.51Z"/><path class="cls-10" d="M210.23,239.07a276.4,276.4,0,0,0-8.93,36.42c-5.83-1.14-8.77-1.74-14.73-3a301.88,301.88,0,0,1,4.5-40.89C198.79,234.65,202.62,236.14,210.23,239.07Z"/><path class="cls-10" d="M275.18,131a334.92,334.92,0,0,1,45.39-37Q306.26,74.74,292,55.31a371,371,0,0,0-45,48.09Q261.06,117.28,275.18,131Z"/><path class="cls-10" d="M237.25,179.73a339.67,339.67,0,0,1,35.9-46.6q-14.08-13.5-28.07-27.1a367.77,367.77,0,0,0-32.88,56.72Q224.7,171.29,237.25,179.73Z"/><path class="cls-10" d="M211,236.64a345.4,345.4,0,0,1,24.72-54.39q-12.45-8.19-24.84-16.5a365.54,365.54,0,0,0-19.31,63.1C199.41,232,203.29,233.59,211,236.64Z"/><path class="cls-11" d="M237.19,292V249.85a26.51,26.51,0,0,0-26.5-26.5H146.22a26.5,26.5,0,0,0-26.5,26.5V292Z"/><path class="cls-12" d="M133.31,292a10.53,10.53,0,0,0,.69-3.74V270.63a10.59,10.59,0,0,0-21.18,0v17.62a10.53,10.53,0,0,0,.7,3.74Z"/><path class="cls-7" d="M140.16,287.53c-.34-2.22,6.06-64.18,6.06-64.18l11.6.34-3.21,64.47Z"/><path class="cls-12" d="M245.46,292a10.53,10.53,0,0,0,.69-3.74V270.63A10.59,10.59,0,0,0,235.56,260h0A10.59,10.59,0,0,0,225,270.63v17.62a10.53,10.53,0,0,0,.69,3.74Z"/><path class="cls-13" d="M242.44,252.74a21.83,21.83,0,0,1-6.65-1c-20.27-6.46-27.75-41.1-28.06-42.57l5.33-1.12c.07.33,7.14,33,24.4,38.5,7.62,2.43,16.46-1,26.26-10l3.7,4C258.62,248.64,250.25,252.74,242.44,252.74Z"/><path class="cls-7" d="M251.33,183.48c.06-12.42-11.26-26.4-11.26-26.4,21.7-21.34,23.06-32.31,23.06-32.31-18.71-12.63-44.93-4.5-44.93-4.5a32.68,32.68,0,0,0-22.75-15.76c5,2.35,8.48,8.14,8.48,8.14a106,106,0,0,0-19.27-8.79c-.77-4-4.77-16.65-24.47-21.9h0c-1.13-.3-2.31-.58-3.55-.83,0,0-7.61,15.91-5.63,26.44-7.85,1.61-9.1,4.19-9.1,4.19l7.62,0-7.59,15.86a30,30,0,0,0-16.79,5.54c1.89-.63,7.29,1.08,7.29,1.08-15.4,4.47-20.56,16.67-20.56,16.67a8.24,8.24,0,0,1,6.1-2.09c-12.68,14.91-1.8,24.17-1.8,24.17-.3-1.05,1-5.82,1-5.82-.13,14.28,8.72,27.28,8.72,27.28-.33-1.79.52-10.28.52-10.28,0,9.69,8.61,19.38,8.61,19.38-.92-1.55-.53-10-.53-10a36.19,36.19,0,0,0,9,15.89l.52.51c-33.5-.41-52.52-17.8-59.32-25.52,6.17.84,20.37-1.63,16.66-7.14-3.38-4.69-14.74,1.68-18.38,3.59l-.27-.51c-3.82-7.3-7-12.85-13.2-18.41-1.57-1.42-11.59-10.53-12.23-4.28-.22,2.22,1.74,4.51,3,6.09a58.39,58.39,0,0,0,5.36,5.76c3,2.87,6.12,5.57,9.32,8.18a23.23,23.23,0,0,0-15.67-5c-1.94.12-6.66.41-7.33,2.73s3.11,3.84,4.75,4.29a25.15,25.15,0,0,0,7,.59,84.34,84.34,0,0,0,13-1.4c-3.17,1.27-14.37,5.18-8.33,8.87,3,1.87,7.72-.63,10.5-2.22a74,74,0,0,0,18.36,16.27,85,85,0,0,0,30.82,11.85A99.89,99.89,0,0,0,150.2,215l-6.55,63.1,61.64,3.76,3.35-54.47c17-4.21,22.71-15.54,22.71-15.54-1.26,4.67-7.39,14-7.39,14,13.33-7.38,18.78-29.12,19.49-32.2,1.32,4.19-1.2,12.62-1.2,12.62,12.8-13.08.44-39.2.44-39.2C246.67,170.82,251.33,183.48,251.33,183.48ZM158,96.8,156.56,106A30.47,30.47,0,0,1,158,96.8Zm85.35,96.44-.28-.06c0-.25.07-.39.07-.39A4.69,4.69,0,0,1,243.3,193.24Z"/><path class="cls-13" d="M132.48,208.18a103.33,103.33,0,0,0,31.56.54l-.68-5.18c-53.3,6.89-76.85-27.9-77.08-28.25l-4.37,2.87c.25.39,6.47,9.71,19.75,18.17A85,85,0,0,0,132.48,208.18Z"/><path class="cls-14" d="M256.65,230.88c-2-2.46-5.4-6.8-4-10.19,2.68-6.55,8.32,3.88,10.08,6.81a84.19,84.19,0,0,1-3.44-12.58,25.6,25.6,0,0,1-.54-7c.19-1.68,1.07-5.65,3.48-5.37s3.43,4.91,3.87,6.81a23.23,23.23,0,0,1-2.43,16.25c2.07-3.57,4.23-7.1,6.59-10.5a59,59,0,0,1,4.83-6.21c1.36-1.5,3.31-3.81,5.53-3.94,6.27-.36-1.12,11-2.27,12.75-4.51,7-9.48,11-16.07,16l-.47.35c2.47,3.29,10.57,13.49,6.48,17.57-5.49,5.14-10.8-13-9.52-17.34Z"/><polygon class="cls-15" points="148.2 272.64 147.31 286.09 210.32 286.09 210.09 276.34 148.2 272.64"/><path class="cls-7" d="M267.91,301.19h0Z"/><polygon class="cls-13" points="156.11 196.36 148.2 272.64 209.84 276.4 214.61 198.72 156.11 196.36"/><path class="cls-16" d="M172.28,239.41a4.06,4.06,0,1,1,4.06-4.06A4.06,4.06,0,0,1,172.28,239.41Zm0-6.3a2.24,2.24,0,1,0,2.24,2.24A2.24,2.24,0,0,0,172.28,233.11Z"/><path class="cls-16" d="M167.3,271.56a4.06,4.06,0,1,1,4.06-4.05A4.06,4.06,0,0,1,167.3,271.56Zm0-6.29a2.24,2.24,0,1,0,2.24,2.24A2.24,2.24,0,0,0,167.3,265.27Z"/><path class="cls-16" d="M169.13,255.49a4.06,4.06,0,1,1,4.06-4.06A4.06,4.06,0,0,1,169.13,255.49Zm0-6.3a2.24,2.24,0,1,0,2.24,2.24A2.24,2.24,0,0,0,169.13,249.19Z"/><polygon class="cls-16" points="165.98 211.33 165.98 223.9 175.09 215.87 181.4 226.33 184.09 212.04 165.98 211.33"/><polygon class="cls-7" points="177.84 196.81 155.65 196.45 148.5 272.97 166.74 273.61 177.84 196.81"/><path class="cls-17" d="M331.85,233.5a9.87,9.87,0,0,0,3.32-7.33,6.89,6.89,0,0,0-3.45-5.7q1.18-.76,2.31-1.65a6.87,6.87,0,0,0,2.4-2.92,4.89,4.89,0,0,0-.61-4.13A13.05,13.05,0,0,0,332,208.1a4.79,4.79,0,0,0,.66-1.64c.45-2.36-1.19-4.49-3.07-5.74a15,15,0,0,0-9.63-1.81c.26-3.88-4.9-7.23-8.47-7a8.46,8.46,0,0,0-5,2.4,14.8,14.8,0,0,0-2.69,3.53,8,8,0,0,0-11.68-3.48,4.48,4.48,0,0,0-.54-1.07,6,6,0,0,0-4.76-2.25c-4.93-.14-7.47,3.56-8.5,7.82a4.77,4.77,0,0,0-2.13-.88c-2.65-.36-5.47,1.45-6.72,4a8.93,8.93,0,0,0,.26,8l10.94,13.5a11.55,11.55,0,0,0-3.39,1,5.44,5.44,0,0,0-3,3.74,6.22,6.22,0,0,0,1.6,4.63,18.46,18.46,0,0,0,6.57,5.37c2.37,1.16,5.24,1.77,7.73.59a4.82,4.82,0,0,0,1.06-.69,19.61,19.61,0,0,0,13.18,6.43c2.09.13,4.22-.06,6.29.23,2.4.34,4.7,1.32,7.14,1.17,3.26-.2,6.18-2.36,8.82-4.51,2.47-2,2.3-4.22.79-5.64A11.19,11.19,0,0,0,331.85,233.5ZM280.74,225a6,6,0,0,0,.54-.66l.07.1Z"/><g class="cls-18"><path d="M335.17,226.17a6.89,6.89,0,0,0-3.45-5.7c.79-.51,1.56-1.06,2.3-1.65q.51-.4,1-.87a7.26,7.26,0,0,0-3.16-7.07c-3-1.76-7.09-.66-9.19,2,.14-1.75.28-3.47-.79-4.77a4.45,4.45,0,0,0-2.94-1.44,6.92,6.92,0,0,0-6.55,3.16,6.63,6.63,0,0,0-.31.59,6.25,6.25,0,0,0-.24-.6,5.14,5.14,0,0,0-4.34-3.05,4.92,4.92,0,0,0-4,2.71,10.9,10.9,0,0,0-1.06,4.95,9.93,9.93,0,0,0,.7,4.46,4.47,4.47,0,0,0,3.4,2.69l.68,9.64c.35-.16.7-.34,1-.52a15.32,15.32,0,0,0-3.75,9.83,10.37,10.37,0,0,0,1,4.16,44.86,44.86,0,0,1,5.19.2c2.4.34,4.7,1.32,7.14,1.17a8.92,8.92,0,0,0,1.36-.2,2,2,0,0,1,.08-.22l.15.15c2.63-.66,5-2.45,7.23-4.24,2.47-2,2.3-4.22.79-5.64a11.19,11.19,0,0,0,4.46-2.39A9.87,9.87,0,0,0,335.17,226.17Z"/></g><polygon class="cls-19" points="265.53 205.98 302.45 214.88 260.84 292.75 240.74 282.01 265.53 205.98"/><polygon class="cls-19" points="330.37 240.63 302.45 214.88 260.84 292.75 280.94 303.49 330.37 240.63"/><g class="cls-20"><polygon class="cls-21" points="277.41 201.5 243.78 291.02 248.54 294.98 288 202.75 277.41 201.5"/><polygon class="cls-21" points="328.73 228.93 273 306.63 268.48 304.22 321.82 220.82 328.73 228.93"/><polygon class="cls-21" points="258.06 304.57 252.26 301.47 299.84 203.15 313.65 210.54 258.06 304.57"/></g><polygon class="cls-22" points="330.37 240.63 302.45 214.88 260.84 292.75 280.94 303.49 330.37 240.63"/><path class="cls-17" d="M353,171.63a6.52,6.52,0,0,0-2-7,4.75,4.75,0,0,0-3.77-1.08,6.47,6.47,0,0,0-3.26,2.13c-.1.1-.2.22-.3.34a3.75,3.75,0,0,0-1.18-1,3,3,0,0,0-1.26-.32,3.63,3.63,0,0,0-2.8,1.77,7.68,7.68,0,0,0-1.22,5.34c.1.74.94,2.07.85,2.72-.2,1.48-2.11,1.84-1.07,3.72a3.86,3.86,0,0,0,2.25,1.67,6.76,6.76,0,0,0,3.09.26c1-.14,2.91-1.7,3.55-1.65,1.82.16,2.62,3.36,5.17,3.46a4.83,4.83,0,0,0,4.47-2.77c1.05-2.34-.25-4.41-1.5-6.33A7.13,7.13,0,0,0,353,171.63Z"/><path class="cls-17" d="M369.67,227a6.51,6.51,0,0,0-5.79-4.35,4.75,4.75,0,0,0-3.66,1.42,6.54,6.54,0,0,0-1.32,3.66l0,.46a3.49,3.49,0,0,0-1.54-.08,3,3,0,0,0-1.2.49,3.6,3.6,0,0,0-1.16,3.1,7.62,7.62,0,0,0,2.25,5c.52.53,2,1.09,2.31,1.66.74,1.3-.57,2.74,1.39,3.61a4,4,0,0,0,2.81,0,6.91,6.91,0,0,0,2.62-1.67c.67-.68,1.29-3.1,1.83-3.45,1.55-1,4.12,1.09,6.21-.36a4.83,4.83,0,0,0,1.9-4.9c-.57-2.5-2.86-3.37-5-4.15A7.25,7.25,0,0,0,369.67,227Z"/><path class="cls-17" d="M349.11,203.93a4,4,0,0,0,3.45,2.32,6.26,6.26,0,0,0,4.29-1.6,4.27,4.27,0,0,0,1.77-3.1,3.32,3.32,0,0,0-2.52-3c.17-.34.32-.68.46-1a5.07,5.07,0,0,0,.44-1.74,2,2,0,0,0-.66-1.62,2,2,0,0,0-2.26,0,3.12,3.12,0,0,0-.81.77,1.22,1.22,0,0,1-.07-.17,2.57,2.57,0,0,0-1.58-1.59,2,2,0,0,0-1.8.67,2.51,2.51,0,0,0-.65,1.17,3.23,3.23,0,0,0-2.65,1.28,4.43,4.43,0,0,0-.81,3.72,6.26,6.26,0,0,0,2,3.05,4.18,4.18,0,0,0,1.34.87Z"/><path class="cls-17" d="M324,183.37c0-.11,0-.21,0-.32a3.89,3.89,0,0,0,1-.93,3.72,3.72,0,0,0,.89-2.4,3.6,3.6,0,0,0-1.61-2.62,5.53,5.53,0,0,0-2.33-1h-.08a3.13,3.13,0,0,0-.46-1.47,4.41,4.41,0,0,0-2.82-2.09,4.18,4.18,0,0,0-3.42.75,2.56,2.56,0,0,0-1.09,2.23,1.83,1.83,0,0,0,.15.52,2.71,2.71,0,0,0-.42.2,4.32,4.32,0,0,0-1.62,1.41,3.1,3.1,0,0,0-.5,2.07c.17,1.35,1.33,2.35,2.46,3.12l.55.36a3.71,3.71,0,0,0,.51,1.44,5.33,5.33,0,0,0,3,2.37,4.71,4.71,0,0,0,3.76-.47A4.27,4.27,0,0,0,324,183.37Z"/><rect class="cls-9" x="27.22" y="237.05" width="90.99" height="53.54" transform="translate(-55.17 21.89) rotate(-12.45)"/><polygon class="cls-23" points="113.15 235.91 33.41 253.52 43.18 297.75 34.07 299.77 24.3 255.53 22.52 247.49 31.64 245.47 111.37 227.87 113.15 235.91"/><rect class="cls-24" x="19.7" y="221.66" width="90.99" height="16.21" transform="translate(-48.01 19.46) rotate(-12.45)"/><polygon class="cls-9" points="94.17 231.66 102.82 229.75 107.88 212.04 99.23 213.95 94.17 231.66"/><polygon class="cls-9" points="76.26 235.62 84.91 233.71 89.96 215.99 81.31 217.9 76.26 235.62"/><polygon class="cls-9" points="58.34 239.57 66.99 237.66 72.05 219.95 63.4 221.86 58.34 239.57"/><polygon class="cls-9" points="40.43 243.53 49.08 241.62 54.14 223.9 45.49 225.81 40.43 243.53"/><polygon class="cls-9" points="22.52 247.49 31.17 245.57 36.23 227.86 27.58 229.77 22.52 247.49"/><rect class="cls-10" x="19.7" y="221.66" width="90.99" height="16.21" transform="translate(-48.01 19.46) rotate(-12.45)"/><polygon class="cls-9" points="94.17 231.66 102.82 229.75 107.88 212.04 99.23 213.95 94.17 231.66"/><polygon class="cls-9" points="76.26 235.62 84.91 233.71 89.96 215.99 81.31 217.9 76.26 235.62"/><polygon class="cls-9" points="58.34 239.57 66.99 237.66 72.05 219.95 63.4 221.86 58.34 239.57"/><polygon class="cls-9" points="40.43 243.53 49.08 241.62 54.14 223.9 45.49 225.81 40.43 243.53"/><polygon class="cls-9" points="22.52 247.49 31.17 245.57 36.23 227.86 27.58 229.77 22.52 247.49"/><rect class="cls-10" x="55.04" y="151.55" width="16.21" height="90.99" transform="translate(-140.95 231.04) rotate(-81.69)"/><polygon class="cls-9" points="89.56 209.09 98.33 210.37 109.34 195.6 100.57 194.32 89.56 209.09"/><polygon class="cls-9" points="71.41 206.44 80.17 207.72 91.19 192.95 82.42 191.67 71.41 206.44"/><polygon class="cls-9" points="53.26 203.79 62.03 205.07 73.04 190.3 64.27 189.01 53.26 203.79"/><polygon class="cls-9" points="35.11 201.13 43.88 202.41 54.89 187.64 46.12 186.36 35.11 201.13"/><polygon class="cls-9" points="36.74 184.99 25.73 199.76 16.96 198.48 27.97 183.71 36.74 184.99"/><path class="cls-10" d="M104.21,215.89a5.32,5.32,0,1,0-.18-7.52,5.31,5.31,0,0,0,.18,7.52"/><path class="cls-9" d="M104.21,215.89l1.27-1.34a3.45,3.45,0,0,0,4.91-.12,3.44,3.44,0,0,0,.94-2,3.46,3.46,0,0,0-1.06-2.89,3.44,3.44,0,0,0-2-.94,3.5,3.5,0,0,0-1.54.19,3.34,3.34,0,0,0-1.35.87,3.47,3.47,0,0,0-.94,2,3.72,3.72,0,0,0,.18,1.55,3.51,3.51,0,0,0,.88,1.34l-1.27,1.34-1.27,1.33a7.16,7.16,0,0,1-.25-10.12,7.21,7.21,0,0,1,6-2.18A7.17,7.17,0,0,1,113.06,217a7.21,7.21,0,0,1-2.78,1.8,7.3,7.3,0,0,1-3.17.38,7.17,7.17,0,0,1-4.17-1.94Z"/><path class="cls-25" d="M110.2,222.57l1.17,5.3Z"/><path class="cls-26" d="M110.2,222.57l-5.69,1.25-1.69,5.94-8,1.75,16.51-3.64-1.17-5.3m-23.6,5.21-1.69,5.93-2.81.62,12.07-2.66,1.69-5.94Z"/><polygon class="cls-27" points="104.51 223.82 102.82 229.75 94.86 231.51 94.17 231.66 95.86 225.73 104.51 223.82"/><path class="cls-26" d="M68.69,231.73,67,237.67l9.27-2L78,229.69Zm-17.91,4-1.7,5.93,9.26-2,1.7-5.94Zm-17.91,3.95-1.7,5.93-8.65,1.92L44,242.75l-3.53.78,1.7-5.93Z"/><polygon class="cls-27" points="86.6 227.78 84.91 233.71 82.1 234.33 76.25 235.62 77.95 229.69 86.6 227.78"/><polygon class="cls-27" points="68.69 231.73 66.99 237.66 58.34 239.57 60.04 233.64 68.69 231.73"/><polygon class="cls-27" points="50.78 235.69 49.08 241.62 43.96 242.75 40.43 243.53 42.13 237.6 50.78 235.69"/><polygon class="cls-26" points="24.22 241.55 22.52 247.49 21.35 242.19 24.22 241.55"/><polygon class="cls-27" points="32.87 239.64 31.17 245.57 22.52 247.49 24.22 241.55 32.87 239.64"/><path id="SMASHING" class="cls-10" d="M100.69,255.28a3.47,3.47,0,0,1,6.09-2.89l-1.18.66a2.16,2.16,0,1,0-1.08,3.66,2.19,2.19,0,0,0,1.47-1.08l-.73.27-1.07-.72,1.87-.71,1.87-.71.08,2,.08,2-1.08-.72,0-.55a3.46,3.46,0,0,1-6.29-1.22Zm-39.07,9a2.16,2.16,0,0,0,.44,1,1.82,1.82,0,0,0,.77.6,2.67,2.67,0,0,0,1,.24,4.53,4.53,0,0,0,1.1-.08,4.05,4.05,0,0,0,1.16-.4,2.84,2.84,0,0,0,.77-.61,1.89,1.89,0,0,0,.39-.79,2.17,2.17,0,0,0,0-.88,1.62,1.62,0,0,0-.42-.86,1.87,1.87,0,0,0-.68-.46,2.39,2.39,0,0,0-.71-.18,4.13,4.13,0,0,0-.55,0l-1.06-.06a3.17,3.17,0,0,1-.65-.08.52.52,0,0,1-.47-.47.65.65,0,0,1,0-.37,1,1,0,0,1,.48-.47,2.35,2.35,0,0,1,.35-.11,2.23,2.23,0,0,1,.5-.05,1.33,1.33,0,0,1,.45.07.88.88,0,0,1,.33.25,1,1,0,0,1,.23.47l1.42-.29a2.11,2.11,0,0,0-.43-.93,1.93,1.93,0,0,0-.72-.55,2.34,2.34,0,0,0-.93-.19,3.56,3.56,0,0,0-1,.07,3.28,3.28,0,0,0-.86.31,2.58,2.58,0,0,0-.73.53,1.89,1.89,0,0,0-.44.75,1.68,1.68,0,0,0,0,.92,1.61,1.61,0,0,0,.32.75,1.68,1.68,0,0,0,.56.44,2.29,2.29,0,0,0,.7.22,6.94,6.94,0,0,0,.77.08l.76,0a6,6,0,0,1,.66.06,1.51,1.51,0,0,1,.51.19.62.62,0,0,1,.26.41.6.6,0,0,1,0,.44,1.35,1.35,0,0,1-.27.32,1.47,1.47,0,0,1-.39.21,3.74,3.74,0,0,1-.42.11,2.2,2.2,0,0,1-.57.05,1.59,1.59,0,0,1-.51-.11,1.13,1.13,0,0,1-.4-.32A1.21,1.21,0,0,1,63,264Zm15.61-6.09,1.34,2.27-1.72.35ZM75,263.76l-1.34-6.55-2.05.42-.55,4.86-2.49-4.24-2,.41,1.35,6.64,1.37-.28-.93-4.65,2.57,4.32,1.13-.23.69-5,1,4.7,1.36-.27,1.44-.29.22-1.58,2.48-.51.81,1.37,1.51-.3-3.83-6.14-1.49.31Zm5.56-3.33a2.34,2.34,0,0,0,.44,1,2.15,2.15,0,0,0,.77.61,2.52,2.52,0,0,0,1,.23,4.05,4.05,0,0,0,1.1-.08,4.26,4.26,0,0,0,1.16-.39,2.59,2.59,0,0,0,.77-.62,1.91,1.91,0,0,0,.4-.79,2.17,2.17,0,0,0,0-.88,1.67,1.67,0,0,0-.43-.86,1.87,1.87,0,0,0-.67-.46,2.21,2.21,0,0,0-.72-.17,4.26,4.26,0,0,0-.54,0l-1.07-.05a5.8,5.8,0,0,1-.64-.08.63.63,0,0,1-.33-.17.53.53,0,0,1-.14-.3.65.65,0,0,1,0-.37.84.84,0,0,1,.18-.28.92.92,0,0,1,.31-.2,1.69,1.69,0,0,1,.34-.11,2.23,2.23,0,0,1,.5-.05,1,1,0,0,1,.43.08.61.61,0,0,1,.34.25,1,1,0,0,1,.24.47l1.41-.29A2,2,0,0,0,85,256a2,2,0,0,0-.72-.55,2.53,2.53,0,0,0-.93-.19,4,4,0,0,0-1,.08,3.6,3.6,0,0,0-.85.3,2.35,2.35,0,0,0-.73.54,2.08,2.08,0,0,0-.45.74,1.81,1.81,0,0,0,0,.93,1.48,1.48,0,0,0,.89,1.18,2.62,2.62,0,0,0,.7.23c.25,0,.51.06.77.07l.75.05a3.4,3.4,0,0,1,.67.06,1.29,1.29,0,0,1,.51.19.54.54,0,0,1,.26.4.69.69,0,0,1,0,.45,1.31,1.31,0,0,1-.27.31,1.53,1.53,0,0,1-.4.21,2.52,2.52,0,0,1-.41.11,2.24,2.24,0,0,1-.57.05,1.36,1.36,0,0,1-.51-.11,1.11,1.11,0,0,1-.4-.32,1.34,1.34,0,0,1-.24-.54Zm6.27,1,1.47-.29-.59-2.87,2.69-.54L91,260.6l1.45-.29-1.35-6.64-1.45.3.51,2.54-2.69.54L87,254.51l-1.47.3Zm6.27-1.27,1.46-.3-1.34-6.63-1.47.29Zm2.13-.43,1.37-.28L95.73,255l3.66,3.88,1.46-.3L99.5,252l-1.36.28L99,256.7l-3.68-3.89-1.44.29Z"/><path class="cls-10" d="M60.16,270l-4.88-10.68a1.72,1.72,0,0,0-2.28-.86l-1.81.82c.22,0,.45,0,.67,0l1-.46a1.73,1.73,0,0,1,2.28.86l1.8,3.94A7.73,7.73,0,0,1,55.2,267a6,6,0,0,1,.87.57,4.7,4.7,0,0,1,1.52,2.7,4.42,4.42,0,0,1-.34,3l2-.93A1.74,1.74,0,0,0,60.16,270Z"/><path class="cls-10" d="M47,276l.74-3.27a6.1,6.1,0,0,0,4.08.56q2.2-.45,1.89-2a2,2,0,0,0-1-1.38,10.71,10.71,0,0,0-2.87-.86,11.4,11.4,0,0,1-2.17-.64,7.81,7.81,0,0,0-3.18,3.22l-2.7-5.92a1.74,1.74,0,0,1,.86-2.29l2.35-1.06a4.49,4.49,0,0,1,.24-.42l-3,1.37a1.72,1.72,0,0,0-.86,2.29l4.88,10.68a1.71,1.71,0,0,0,2.28.85l1.23-.55h-.11A14,14,0,0,1,47,276Z"/><path class="cls-10" d="M44.73,265.07a4,4,0,0,1,.32-2.69l-2.35,1.06a1.57,1.57,0,0,0-.86,2.29l2.7,5.92a7.81,7.81,0,0,1,3.18-3.22A4.67,4.67,0,0,1,44.73,265.07Z"/><path class="cls-10" d="M54,262.79a5.29,5.29,0,0,0-3.66-.35c-1.31.27-1.87.92-1.65,2a1.41,1.41,0,0,0,.87,1,13.26,13.26,0,0,0,3.05.78,8.85,8.85,0,0,1,2.6.82A7.73,7.73,0,0,0,57,263.61l-1.8-3.94a1.61,1.61,0,0,0-2.28-.86l-1,.46a10.55,10.55,0,0,1,2.61.38Z"/><path class="cls-10" d="M66.31,268.82a1,1,0,0,0-.31-.23,1,1,0,0,0-.38-.11,1.09,1.09,0,0,0-.4,0,1.37,1.37,0,0,0-.61.27,1.34,1.34,0,0,0-.36.46,2.16,2.16,0,0,0-.14.57,2.47,2.47,0,0,0,0,.61,2.42,2.42,0,0,0,.2.59,1.89,1.89,0,0,0,.36.47,1.41,1.41,0,0,0,.51.28,1.37,1.37,0,0,0,.67,0,1,1,0,0,0,.44-.19,1.18,1.18,0,0,0,.31-.32,1.25,1.25,0,0,0,.17-.43,1.6,1.6,0,0,0,0-.49l.36-.07a2.3,2.3,0,0,1,0,.65,1.45,1.45,0,0,1-.23.54,1.49,1.49,0,0,1-.4.39,2,2,0,0,1-1.37.22,1.66,1.66,0,0,1-.64-.31,2.07,2.07,0,0,1-.46-.55,3.05,3.05,0,0,1-.25-.72,2.7,2.7,0,0,1,0-.75,2,2,0,0,1,.2-.68,1.7,1.7,0,0,1,.46-.54,1.9,1.9,0,0,1,.74-.31,1.58,1.58,0,0,1,.53,0,1.43,1.43,0,0,1,.51.14,1.24,1.24,0,0,1,.41.31,1.09,1.09,0,0,1,.28.48l-.35.07A1.12,1.12,0,0,0,66.31,268.82Z"/><path class="cls-10" d="M68.7,268.73a2,2,0,0,1,.2-.69,1.65,1.65,0,0,1,.46-.53,1.85,1.85,0,0,1,.74-.32,1.9,1.9,0,0,1,.79,0,1.69,1.69,0,0,1,.63.31,1.63,1.63,0,0,1,.46.55,2.5,2.5,0,0,1,.25.71,2.46,2.46,0,0,1,0,.76,1.75,1.75,0,0,1-.66,1.21,1.81,1.81,0,0,1-.73.32,1.83,1.83,0,0,1-.81,0,1.55,1.55,0,0,1-.63-.31,1.87,1.87,0,0,1-.45-.55,2.31,2.31,0,0,1-.26-.71A2.38,2.38,0,0,1,68.7,268.73Zm.6,1.26a1.38,1.38,0,0,0,.35.47,1.16,1.16,0,0,0,.52.29,1.45,1.45,0,0,0,.66,0,1.29,1.29,0,0,0,.59-.27,1.23,1.23,0,0,0,.36-.46,1.59,1.59,0,0,0,.14-.57,2.16,2.16,0,0,0,0-.62,2.49,2.49,0,0,0-.2-.58,1.65,1.65,0,0,0-.35-.47,1.38,1.38,0,0,0-.52-.28,1.36,1.36,0,0,0-.64,0,1.38,1.38,0,0,0-.61.27,1.47,1.47,0,0,0-.37.46,1.58,1.58,0,0,0-.13.57,1.84,1.84,0,0,0,0,.62A1.92,1.92,0,0,0,69.3,270Z"/><path class="cls-10" d="M74.1,266.46l2.8,2.7h0L76.27,266l.36-.07.76,3.71-.41.08-2.8-2.7h0l.64,3.14-.35.07-.75-3.71Z"/><path class="cls-10" d="M81,265.05l.07.3-2,.41.27,1.34,1.79-.36.06.3-1.78.36.36,1.77-.36.07-.75-3.71Z"/><path class="cls-10" d="M85.32,264.18l.06.3-2.2.45.27,1.34,2.07-.42.06.3-2.07.42.3,1.47,2.23-.46.06.3-2.59.53-.75-3.71Z"/><path class="cls-10" d="M88.84,263.46a1.73,1.73,0,0,1,.45,0,1.12,1.12,0,0,1,.39.1.93.93,0,0,1,.31.25,1.07,1.07,0,0,1,.18.42,1,1,0,0,1-.06.65.82.82,0,0,1-.47.44h0a1,1,0,0,1,.32,0,.53.53,0,0,1,.23.14.67.67,0,0,1,.16.23,2.09,2.09,0,0,1,.11.3c0,.06,0,.13.06.22a2.68,2.68,0,0,0,.07.27,1.89,1.89,0,0,0,.11.25.4.4,0,0,0,.13.17l-.4.08-.07-.11-.06-.16a.88.88,0,0,0,0-.15,1.3,1.3,0,0,0,0-.13c0-.13-.07-.26-.12-.39a.92.92,0,0,0-.16-.33.66.66,0,0,0-.27-.2.64.64,0,0,0-.41,0l-1.35.27.34,1.65-.35.07-.76-3.71Zm.33,1.77a1,1,0,0,0,.3-.11.74.74,0,0,0,.23-.2.62.62,0,0,0,.12-.26.65.65,0,0,0,0-.31.79.79,0,0,0-.3-.51.88.88,0,0,0-.66-.07l-1.31.27.29,1.46Z"/><path class="cls-10" d="M94.47,262.32l.06.3-2.21.45.28,1.34,2.07-.42.06.3-2.07.42.3,1.47,2.23-.46.06.3-2.59.53-.75-3.71Z"/><path class="cls-10" d="M96.68,261.87l2.8,2.7h0l-.64-3.13.34-.07.76,3.7-.39.08-2.8-2.69h0l.64,3.14-.35.07L96.29,262Z"/><path class="cls-10" d="M104,261.16a1.28,1.28,0,0,0-.32-.23,1.36,1.36,0,0,0-.38-.11,1.46,1.46,0,0,0-1,.29,1.23,1.23,0,0,0-.36.46,1.41,1.41,0,0,0-.14.57,2.15,2.15,0,0,0,0,.62,2.52,2.52,0,0,0,.21.58,1.51,1.51,0,0,0,.36.47,1.08,1.08,0,0,0,.5.28,1.36,1.36,0,0,0,.67,0,1.3,1.3,0,0,0,.45-.19,1,1,0,0,0,.3-.33,1.25,1.25,0,0,0,.17-.43,1.6,1.6,0,0,0,0-.49l.34-.07a1.74,1.74,0,0,1,0,.65,1.45,1.45,0,0,1-.23.54,1.36,1.36,0,0,1-.4.39,1.93,1.93,0,0,1-1.37.22,1.53,1.53,0,0,1-.64-.31,1.87,1.87,0,0,1-.45-.55,2.41,2.41,0,0,1-.26-.71,2.74,2.74,0,0,1,0-.75,2,2,0,0,1,.2-.69,1.58,1.58,0,0,1,.47-.53,1.62,1.62,0,0,1,.74-.32,1.56,1.56,0,0,1,.53,0,1.78,1.78,0,0,1,.5.14,1.43,1.43,0,0,1,.42.31,1.41,1.41,0,0,1,.28.48l-.35.07A1.52,1.52,0,0,0,104,261.16Z"/><path class="cls-10" d="M108.77,259.41l.06.3-2.21.45.28,1.34,2.06-.42.07.3-2.07.42.29,1.47,2.24-.45.06.29-2.59.53-.75-3.71Z"/><rect class="cls-11" x="37.32" y="57.02" width="39.94" height="11.09" transform="translate(-23.79 37.62) rotate(-30.42)"/><rect class="cls-17" x="42.94" y="66.59" width="39.94" height="11.09" transform="translate(-27.86 41.78) rotate(-30.42)"/><polygon class="cls-5" points="60.08 46.08 41.54 56.96 37.27 67.9 71.71 47.68 60.08 46.08"/><polygon class="cls-5" points="78.67 77.74 60.12 88.62 48.49 87.02 82.94 66.8 78.67 77.74"/><rect class="cls-5" x="38.33" y="45.41" width="21.64" height="6.56" transform="translate(-17.89 31.58) rotate(-30.42)"/><rect class="cls-5" x="50.7" y="82.79" width="39.94" height="5.12" rx="2.56" ry="2.56" transform="matrix(0.86, -0.51, 0.51, 0.86, -33.48, 47.52)"/><rect class="cls-5" x="60.28" y="87.21" width="25.85" height="4.9" rx="2.45" ry="2.45" transform="translate(-35.32 49.4) rotate(-30.42)"/><polygon class="cls-5" points="69.98 90.98 102.18 161.6 121.9 150.03 75.92 87.5 69.98 90.98"/><path class="cls-5" d="M40.64,17.4h0a3.07,3.07,0,0,1,3.07,3.07V51a0,0,0,0,1,0,0H37.57a0,0,0,0,1,0,0V20.47A3.07,3.07,0,0,1,40.64,17.4Z" transform="translate(-11.72 25.28) rotate(-30.42)"/><path class="cls-14" d="M83.5,180c-2.75,1.58-7.58,4.25-10.7,2.33-6-3.69,5.16-7.6,8.34-8.87a84.47,84.47,0,0,1-13,1.4,25.15,25.15,0,0,1-7-.59c-1.64-.45-5.41-1.95-4.75-4.29s5.4-2.61,7.34-2.73a23.21,23.21,0,0,1,15.66,5c-3.2-2.61-6.34-5.31-9.32-8.18a59.62,59.62,0,0,1-5.36-5.76c-1.26-1.58-3.23-3.87-3-6.09.65-6.25,10.66,2.86,12.23,4.28,6.16,5.56,9.39,11.11,13.2,18.41l.28.51c3.63-1.91,15-8.27,18.37-3.59,4.2,6.24-14.57,8.59-18.64,6.63Z"/><path class="cls-5" d="M54.6,139.73c-5.63,1.93-8.21-.67-11.18-5.42,1.46,7.28-7.54,12.37-14.23,9.44a6.29,6.29,0,0,1-3.5-3.42c-7.74,3.23-19.23,1.56-15.95-3.76,2.51-4.22,11-3.56,15.1-3.23-3.33-1.19-7-3.18-8.77-6.36-2.69-4.5-1.54-14.1,5.37-12.27,4.13.88,6.61,6.75,7.88,10.23,1.25-12.87,20.66-11.68,16.76,2.69,1.14-4.42,4.56-6.77,9-6.18C66,122.8,63.17,136.84,54.6,139.73Z"/><path class="cls-5" d="M151.63,44.37c7.25,2.18,10.42-1.24,14-7.43-1.52,9.33,10.18,15.39,18.56,11.35a8,8,0,0,0,4.29-4.52c10,3.75,24.54,1.09,20.11-5.53-3.39-5.25-14.15-4-19.36-3.4,4.18-1.67,8.73-4.38,10.87-8.51,3.2-5.85,1.29-18-7.41-15.36-5.22,1.32-8.1,8.9-9.55,13.39-2.2-16.32-26.84-13.9-21.2,4.21-1.66-5.57-6.12-8.41-11.68-7.45C136.33,23.35,140.59,41.09,151.63,44.37Z"/><polygon class="cls-10" points="188.83 207.66 225.66 198.99 240.76 158.16 245.34 145.13 263.46 122.42 256.92 114.91 232.98 115.36 205.56 122.39 178.46 91.91 164.73 76.5 159.47 111.34 139.05 135.35 138.76 163.6 158.4 196.57 188.83 207.66"/><path class="cls-14" d="M122.51,143.32c-12.68,14.91-1.8,24.17-1.8,24.17-.3-1.05,1-5.82,1-5.82C121.54,176,130.39,189,130.39,189c-.33-1.79.52-10.28.52-10.28,0,9.69,8.61,19.38,8.61,19.38-.92-1.55-.53-10-.53-10a36.19,36.19,0,0,0,9,15.89,18.74,18.74,0,0,0,3.39,2.79l1.4.87h0l-.1,0a34.13,34.13,0,0,1,6.88,4c-8.12-6-5.21-3,.3-1.31,4,1.21,6.55,2.71,10.38,2.62,8-.18,15.84-.11,23.81.16,8.72.3,14.16-.92,22.3-2,1.67,0,3.33.06,5,.1,3.24-1.6,6.5-3,9.91-4.35.56-.21,1.12-.36,1.68-.53a88.64,88.64,0,0,0,5.66-8.72c.33,2.12-.85,5.18-2.27,7.93a26.05,26.05,0,0,1,4.22-.25,1.36,1.36,0,0,0,.12-.12,9.74,9.74,0,0,1,1.54-1.2l-.55.16c4.55-7.28,6-16.75,6-16.75,2.08,3.74-.84,13.5-.84,13.5,12.8-13.08.44-39.2.44-39.2,4,3.73,8.64,16.39,8.64,16.39.06-12.42-11.26-26.4-11.26-26.4,21.71-21.34,23.06-32.31,23.06-32.31-18.7-12.63-44.93-4.5-44.93-4.5A32.68,32.68,0,0,0,200,99.06c5,2.35,8.48,8.14,8.48,8.14a106,106,0,0,0-19.27-8.79c-.82-4.21-5.23-18.15-28-22.74,0,0-7.61,15.91-5.63,26.44-7.85,1.61-9.1,4.19-9.1,4.19l7.63,0-7.6,15.85a30,30,0,0,0-16.79,5.54c1.9-.63,7.29,1.08,7.29,1.08-15.4,4.47-20.55,16.67-20.55,16.67A8.22,8.22,0,0,1,122.51,143.32Zm109.42-20.69s17.25-6.17,26.67.35c0,0-7.39,13.42-16.37,17.62C242.23,140.6,238.5,129.75,231.93,122.63Zm-64.88,17.5c4.55-11.18,18.63-24.31,27.88-20.55s10.17,23,5.63,34.17-15.77,14.95-25,11.19S162.51,151.32,167.05,140.13Zm-1.56-56.75C177.93,87.45,183.08,98.9,181,99.12c-4.89.53-18.61,6.55-18.61,6.55C158.23,98.23,165.49,83.38,165.49,83.38Z"/><path class="cls-14" d="M248.08,187.84s-5.22,24.63-19.58,32.58c0,0,6.13-9.36,7.39-14,0,0-9.24,18.23-38.86,17a34.88,34.88,0,0,0,15.44-7.67s-40.71,11.2-64-11.3L203.65,202s28.45-17.61,29-17.55S248.08,187.84,248.08,187.84Z"/><path class="cls-10" d="M193.31,194.63c-12.14,2.71-25.65-.62-40.24-9.91a.66.66,0,0,1,.71-1.11c15.58,9.93,29.86,12.91,42.44,8.86,19.58-6.29,28.37-27.72,28.46-27.93a.65.65,0,0,1,.85-.37.67.67,0,0,1,.37.86c-.09.22-9.11,22.21-29.27,28.69C195.53,194.08,194.43,194.38,193.31,194.63Z"/><path class="cls-10" d="M232.61,168.44s-.14-18.7-13.7-7.41c0,0,11.37-7.44,13.26,10.24"/><path class="cls-10" d="M159.15,154.5c6.93,5-12.12,6.07-12.12,6.07s-2.7-6.41-2.64-11.49S152.22,149.45,159.15,154.5Z"/><ellipse class="cls-14" cx="185.52" cy="153.27" rx="6.39" ry="2.72" transform="translate(-1.98 304.12) rotate(-78.38)"/><ellipse class="cls-10" cx="159" cy="143.35" rx="6.39" ry="2.72" transform="translate(-13.43 270.22) rotate(-78.38)"/><polygon class="cls-7" points="186.48 229.76 205.05 230.48 205.05 235.03 186.48 232.4 186.48 229.76"/><path class="cls-13" d="M197.38,90.2s21-13.11,34.65-.13-3.33,22.74-3.33,22.74S205.67,120.53,197.38,90.2Z"/><path class="cls-16" d="M228.33,122.13s-38.78-7.21-42.5-33.47l11.42-3.54s11.31,25.65,31.45,27.69Z"/><rect class="cls-13" x="187.34" y="90.04" width="10.43" height="0.73" transform="translate(-18.08 60.7) rotate(-17.12)"/><rect class="cls-13" x="189.23" y="93.97" width="10.42" height="0.73" transform="translate(-21.21 80.11) rotate(-22.11)"/><rect class="cls-13" x="192.06" y="97.89" width="10.43" height="0.73" transform="translate(-22.59 113.44) rotate(-30.43)"/><rect class="cls-13" x="194.99" y="101.7" width="10.43" height="0.73" transform="translate(-22.06 135.16) rotate(-35.48)"/><rect class="cls-13" x="199.7" y="105.56" width="9.35" height="0.73" transform="translate(-20.95 153.03) rotate(-39.21)"/><rect class="cls-13" x="205.15" y="108.9" width="7.68" height="0.73" transform="translate(-15.14 182.61) rotate(-45.72)"/><rect class="cls-13" x="209.43" y="111.98" width="6.84" height="0.73" transform="translate(-6.58 211.2) rotate(-52.08)"/><rect class="cls-13" x="214.81" y="114.36" width="6.84" height="0.73" transform="translate(14.49 253.57) rotate(-62.01)"/><rect class="cls-13" x="221.01" y="116.58" width="6.84" height="0.73" transform="translate(62.05 311.06) rotate(-77.61)"/></g></g></svg>