<svg xmlns="http://www.w3.org/2000/svg" xmlns:xlink="http://www.w3.org/1999/xlink" viewBox="0 0 372.95 400"><defs><style>.cls-1,.cls-26,.cls-27,.cls-28,.cls-5{fill:none;}.cls-2{isolation:isolate;}.cls-3,.cls-4{fill:#8dd5e8;}.cls-23,.cls-25,.cls-26,.cls-27,.cls-28,.cls-3{opacity:0.2;}.cls-5{stroke:#939598;stroke-width:0.92px;stroke-dasharray:2.78 3.48;}.cls-26,.cls-27,.cls-28,.cls-5{stroke-miterlimit:10;}.cls-6{fill:#2b82bf;}.cls-7{fill:#fedd10;}.cls-8{fill:#fff;}.cls-9{fill:#df5b27;}.cls-10{fill:#8dc63f;}.cls-11{fill:#9a1e26;}.cls-12{fill:#cf232c;}.cls-13{fill:#1b75bc;}.cls-14{fill:#be1e2d;}.cls-15{fill:#010101;opacity:0.3;}.cls-15,.cls-17,.cls-23,.cls-25,.cls-26,.cls-27,.cls-28{mix-blend-mode:multiply;}.cls-16{fill:#e83d32;}.cls-17,.cls-23{fill:#231f20;}.cls-17{opacity:0.1;}.cls-18{clip-path:url(#clip-path);}.cls-19{fill:#ffde17;}.cls-20{fill:#27aae1;}.cls-21{fill:#c9b07a;}.cls-22{fill:#f4d086;}.cls-24{fill:#ea6f37;}.cls-25{fill:#383838;}.cls-26,.cls-27,.cls-28{stroke:#383838;}.cls-26{stroke-width:3.28px;}.cls-27{stroke-width:5.96px;}.cls-28{stroke-width:2.64px;}</style><clipPath id="clip-path"><path class="cls-1" d="M240.78,183.83s-37.94,49.09-85.14,56.48l-13.11-14.62s33.37-36.82,42.93-63.17Z"/></clipPath></defs><title>Artboard 81 copy 2</title><g class="cls-2"><g id="Layer_1" data-name="Layer 1"><circle class="cls-3" cx="187.52" cy="191.99" r="152.36"/><circle class="cls-4" cx="187.52" cy="191.99" r="105.22"/><path class="cls-5" d="M90.75,54.41c9.56,9.59,22.81,7.46,32.41-2a34.9,34.9,0,0,0,9.25-15.55c1.81-6.54,1.65-14.62-1.21-20.24s-8.62-7.74-12.44-3.68c-4.52,4.79-4.47,15.75-1.15,22.45s8.83,9.92,14.18,11.86a49.34,49.34,0,0,0,10.43,2.57c5.5.72,11.66.09,15.54-5.89,3-4.56,4.22-11.75,8-14.62s8.38.12,10.44,5.43S177.88,47,176,52.43a33,33,0,0,1-8.44,13c-5.93,5.82-12.8,9.43-19.82,10.43-4.21.6-9.63-1.11-10.46-7.42-.67-5.12,2.78-10,6.2-9.76s6.3,4.53,7.46,9.44.91,10.33.3,15.47a99.49,99.49,0,0,1-11.09,35.88"/><path class="cls-6" d="M45.5,154.76l-7.29,21.16-.29-22.42-22.58,8.31,20.3-15.2L16.4,133.26l21.48,7,3.87-23.61,4.42,23.8s27.59-9.39,26.36-8.69L48.42,145.38s17.11,18.82,16.37,17.87S45.5,154.76,45.5,154.76Z"/><path class="cls-7" d="M322.07,116.43l-6.22,19.18-.63-20.19L295,123.28l18-14L295.5,97.55l19.46,6,3.1-21.33,4.37,21.37s24.7-8.91,23.6-8.26l-21.49,12.61s15.72,16.67,15,15.83S322.07,116.43,322.07,116.43Z"/><path class="cls-8" d="M170.08,327.92l-5.35,6.51,2.77-8-9.21-.08,9.28-2.66-5.22-7.29,6.84,5.36,4.43-7.83-1.46,9s11.16.36,10.62.45L172.34,325s3.75,8.94,3.61,8.5S170.08,327.92,170.08,327.92Z"/><path class="cls-8" d="M176.36,274.85,165,272.65l11.48-1.79-5.91-11,9.28,9.31,5.45-10.85-2,11.54,12.4.26-11.9,4s6.84,13.48,6.38,12.89l-8.72-11.38s-8.41,10.16-8,9.71S176.36,274.85,176.36,274.85Z"/><path class="cls-9" d="M106.95,316.4,120.2,327l-16.08-5.51.17,18.24-5.67-18.38L84.17,331.69l10.51-13.54-15.87-8.79,18.13,2.92s.34-22.1.53-21S101,311.92,101,311.92s17.81-7.41,16.94-7.13S106.95,316.4,106.95,316.4Z"/><path class="cls-10" d="M335.12,226.68,330.53,240l-.19-14.09-14.19,5.22,12.76-9.55-12.09-8.4,13.5,4.43,2.44-14.84,2.78,15s17.35-5.9,16.57-5.46L337,220.78s10.75,11.83,10.29,11.23S335.12,226.68,335.12,226.68Z"/><path class="cls-8" d="M333,174.64a12.11,12.11,0,0,0-3.51-3.14c2.39-2.47,3.15-4.51,3.23-6.51a7.18,7.18,0,0,0-3.33-6.35c-5.36-3.68-12.48,1.13-15.17,2.94a62.18,62.18,0,0,0-8.8,7.19l-.15.16-.6.7c-3.62-2.4-8.24-4.54-12.34-2.92a38.36,38.36,0,0,0-3.49-12.45,5.68,5.68,0,0,0,.86-5.52,34.33,34.33,0,0,0-10.59-13.62l.42-5.16a5.67,5.67,0,0,0,7-5.09c.12-1.65-.32-4.77-3.9-9,5.19-9.43,6.41-22.44,6.54-24.11a5.68,5.68,0,0,0-3.84-5.84,50.24,50.24,0,0,0-16-2.84c-11,0-18.12,4.48-21.94,7.91l-1.92-.3a5.67,5.67,0,0,0-3.07-3.41,33.33,33.33,0,0,0-12.84-2.39,36.82,36.82,0,0,0-14.84,3.11c-6.08-5.59-20.4-16.76-37.72-16.76-1,0-2.11,0-3.15.12a5.67,5.67,0,0,0-4.78,3.46c-.48,1.14-4.26,11.44,2,37.69-5.8,3-15.61,8.94-20.38,17.42-.08.14-.14.29-.2.43-2-3.58-6.42-5.21-10.43-6q0-.45.07-.92,0-.11,0-.21a62.1,62.1,0,0,0-1.1-11.31c-.61-3.19-2.21-11.63-8.6-12.84a7.18,7.18,0,0,0-6.85,2.11c-1.36,1.46-2.28,3.44-2.34,6.87a12.11,12.11,0,0,0-4.7-.28,5.67,5.67,0,0,0-4.45,3.46c-2.08,5,.53,9.25,4.35,12.49a7.81,7.81,0,0,0,.44,6,9.86,9.86,0,0,0,6.28,5.25,60.35,60.35,0,0,0,4.09,16.63,65.64,65.64,0,0,0,8.87,15.34c-2.53-.17-5.13-.26-7.79-.26-23.38,0-46.33,6.78-68.22,20.15a5.66,5.66,0,0,0-1.25,1c-.54.6-13.27,14.85-12.08,31.77a5.68,5.68,0,0,0,9.63,3.65,140.55,140.55,0,0,1,16.85-13.29c1.3,2.39,2.79,5.29,4.36,8.66C71,220.83,63.09,225.49,63,230.8c-.08,3,2.07,6.44,7,6.69q.6,0,1.19,0a35.49,35.49,0,0,0,7.42-.94,22.54,22.54,0,0,1,4.27-.62,5.94,5.94,0,0,1,2,.33c1.12,3.27,2.21,6.75,3.24,10.43A5.65,5.65,0,0,0,86,249c-.19.4-.7,1.57-1.28,3.23-.08.14-.17.26-.24.41s-.18.36-.32.67a31.9,31.9,0,0,0-4.82,8.8A7.9,7.9,0,0,0,76,261.4c-9.41,0-14.58,16.81-14.58,22.38,0,5.1,3.37,7.42,6.51,7.42h0a7.59,7.59,0,0,0,5-2,32.62,32.62,0,0,0,5.62-6.58c2.39-3.42,3.48-5,7.74-5.29l1.24-.1a5.67,5.67,0,0,0,6.47.29l4.93-3.11a5.67,5.67,0,0,0,2.54-3.71,113.84,113.84,0,0,0,20-7.42,24.91,24.91,0,0,0,12.93,4,19.63,19.63,0,0,0,5-.64c8.65-2.26,14.09-10.09,17.51-18.62l2.59-1.93h0l1.19-.89.23-.05q1.3-.27,2.6-.58c.76-.18,1.52-.38,2.28-.58l.87-.23c15.45-4.24,31.18-12.67,46.94-25.16l.88-.7,1.89-1.53q1.39-1.14,2.72-2.27c.63,0,1.27,0,1.91,0a47.57,47.57,0,0,0,12.12-1.55l.29-.08.5-.13a34.88,34.88,0,0,0,4.95-1.8,5.67,5.67,0,0,0,5.2.78,45.55,45.55,0,0,0,7.65-3.6,5.67,5.67,0,0,0,5,0,57.89,57.89,0,0,0,7.38-4.62c1,0,2,.06,3,.06a70.19,70.19,0,0,0,27.32-5.19,60.33,60.33,0,0,0,14.68-8.81,11.09,11.09,0,0,0,5,1.33,8.79,8.79,0,0,0,3.11-.57,7.84,7.84,0,0,0,4.56-3.9c5,.42,9.81-.68,11.93-5.72A5.68,5.68,0,0,0,333,174.64Z"/><path class="cls-11" d="M185.6,187.42l-39.79-13.85-57,14.58-15.69,10.4s18.1,25.61,25,67.46c.72-.39,1.44-.77,2.15-1.17A112.56,112.56,0,0,1,112,259.17c6.07-2.58,12-5.35,18-7.91.8-.82,1.62-1.61,2.47-2.37,5.08-4.53,11.17-8.28,16.84-11.83a75.86,75.86,0,0,1,19.14-8.71,31.24,31.24,0,0,1,5.9-6.89,143,143,0,0,1,23.41-15.86c.57-.32,1.15-.6,1.73-.86Z"/><path class="cls-12" d="M189.14,189.81c2,1-55.74-41.17-126,1.76,0,0-11.66,12.86-10.62,27.56C52.52,219.12,117.6,155.32,189.14,189.81Z"/><path class="cls-13" d="M134.43,261.56c-9.7,0-21-9.87-34.29-30l4.93-3.26c12.85,19.42,24,29,31.39,27.11,6-1.58,9.66-10.48,11.63-17.66A96.8,96.8,0,0,0,151,221.37l5.89.43c-.26,3.59-3,35.15-18.92,39.31A13.9,13.9,0,0,1,134.43,261.56Z"/><path class="cls-14" d="M100.06,239.07s-.22-4,10.41-10.55l-1.33-5.87s-14,5.59-14.8,15.29Z"/><path class="cls-14" d="M107,225.84s-1.57-4-15.68,3.82c0,0-1.9,2.55-3.27-4.77s-25.78,6.52-17.85,6.92,13.12-4.76,21.18,1.86,7.23,2,7.23,2Z"/><path class="cls-15" d="M94.27,235.83a21.56,21.56,0,0,1,11.13-11.53s-10.57,3.86-11.77,11.09Z"/><path class="cls-13" d="M89.73,267.26l-.61-5.88.3,2.94-.31-2.94c.35,0,35.66-4.08,60.43-34.39l4.58,3.74C127.76,263,91.27,267.1,89.73,267.26Z"/><path class="cls-14" d="M95.88,269.59s-2.9-2.73.29-14.82l-5-3.35s-6.33,13.7-.22,21.28Z"/><path class="cls-14" d="M91.82,255.21s-3.91-1.84-8.75,13.56c0,0,.37,3.15-5.65-1.21S63.19,290,69.22,284.87s6.24-12.48,16.65-13.22,6.6-3.54,6.6-3.54Z"/><path class="cls-15" d="M89.44,271.23a21.56,21.56,0,0,1,.14-16s-5,10.07-.91,16.15Z"/><path class="cls-13" d="M292.19,192.67c-31.43,13.2-68.16-5.28-68.61-5.51l1.79-3.49c.52.27,52.78,26.51,83.76-7.84l2.92,2.63A55.43,55.43,0,0,1,292.19,192.67Z"/><path class="cls-16" d="M305.67,179.84c-3.12.81-16-3.41-12.16-7.23,3-2.83,10.11,3.21,12.4,5.05l.26-.33a26.6,26.6,0,0,1,3.4-4.67c2.07-2.2,13.31-11.71,16.67-9.33,4.68,3-11.64,11.77-14.28,13.19,4.33-2.2,13.3-2.81,16.52,1.5-2.16,5.13-14.15.51-17.87-.88,2.05,1.33,9.37,5.62,4.63,7.38-2.45.92-5.47-1.62-7.18-3.11"/><path class="cls-13" d="M132.59,149.37C145.37,181,184.35,194,184.84,194.18l1.21-3.73c-.56-.18-56-18.78-53.45-65l-3.92-.22A55.43,55.43,0,0,0,132.59,149.37Z"/><path class="cls-16" d="M132.21,130.76c1.62,2.79,13.67,8.92,13.7,3.54-.11-4.13-9.4-4.91-12.32-5.24l0-.42a26.6,26.6,0,0,0,.92-5.7c.1-3-1.07-17.7-5.13-18.4-5.44-1.19-.15,16.55.7,19.43-1.49-4.62-7.38-11.42-12.7-10.66-2.12,5.15,9.61,10.4,13.21,12.07-2.39-.52-10.59-2.69-8.5,1.92,1.07,2.39,5,2.74,7.27,2.91"/><path class="cls-13" d="M240.78,183.83s-37.94,49.09-85.14,56.48l-13.11-14.62s33.37-36.82,42.93-63.17Z"/><path class="cls-17" d="M155.65,240.3c24.72-3.87,46.9-19.18,62.42-32.89-28.06,15.9-57.4,20.06-73,21.12Z"/><polygon class="cls-8" points="196.79 190.29 170.54 165.11 177.83 123.04 180.35 109.72 176.36 81.63 185.4 78.39 204.97 90.34 224.24 109.57 262.03 95.03 279.67 92.92 267.69 122.44 272.95 152.75 259.52 176.95 227.32 195.54 196.79 190.29"/><path class="cls-16" d="M177.8,115.61s-16.12,6.44-22.08,17c0,0,10-8.53,15.07-9.78,0,0-22.86,16.27-18.61,33.59,0,0,2-8.4,5.12-11.33-.9,3-6.92,24.12.53,36.84,0,0-.54-10.93.68-15.52,0,0-1.19,20,23.88,33.29a33.5,33.5,0,0,1-9.05-14S201.57,215,231.68,207h0l.72-.19a35.2,35.2,0,0,0,15.11-9.2s-3.78,7.4-5.29,8.28c0,0,11.84-4.08,16.5-12.34,0,0-3.4,7.64-4.54,9,0,0,13.6-6.8,20.41-19,0,0-1.26,4.67-2,5.42,0,0,13.47-2.63,10.21-21.45a7.8,7.8,0,0,1,4,4.72,32,32,0,0,0-8.92-24.14s5.29,1.16,6.55,2.61a28.74,28.74,0,0,0-11.2-12.84l1.4-17.17,6.29,3.71s.21-2.8-5.5-8c6.73-8,8.15-25.24,8.15-25.24-21.07-7.11-31.47,2.63-34.18,5.82a99.38,99.38,0,0,0-20.18-1.82s5.67-3.26,11-2.84a30.76,30.76,0,0,0-26.44,2.43S196,75.24,174.38,77C174.38,77,170.19,87,177.8,115.61ZM202.32,97c-8.87,2.89-17.21,10.32-17.21,10.32-5.39-7.92-5-22.91-5-22.91C191,83.45,202.32,97,202.32,97Zm45.17,46.25c-1.66,11.72-10.67,20.2-20.14,18.93s-15.8-11.8-14.15-23.52,11.73-27.65,21.2-26.38S249.14,131.57,247.49,143.3ZM268,116.21s-8.43-11.75-12.21-14.56c-1.63-1.21,8.16-8.47,20.42-5.93C276.25,95.72,275.07,111.87,268,116.21Zm-13.89,54.17s-15.25-10.08-7.08-11,17.22-1.84,14.82,2.52S254.15,170.38,254.15,170.38ZM158,144.57l-.13.36-.26-.08A4.16,4.16,0,0,1,158,144.57Z"/><path class="cls-8" d="M214.31,185.68q9.94,3.15,23.16,2.47a.78.78,0,0,0,.73-.81.75.75,0,0,0-.78-.73c-17.64.92-30.85-3.42-39.27-12.92-13.1-14.76-10-37.22-10-37.44a.75.75,0,0,0-.63-.87.77.77,0,0,0-.86.66c0,.23-3.23,23.38,10.34,38.68A37.9,37.9,0,0,0,214.31,185.68Z"/><path class="cls-8" d="M180.3,133.94s9.14-14.43,16.1,4.23C196.39,138.17,189.69,125.31,180.3,133.94Z"/><path class="cls-16" d="M222,149.81s11.57-18.26,19,.87C241,150.68,233,138.67,222,149.81Z"/><path class="cls-8" d="M251.71,151.4s11.57-18.26,19,.87C270.72,152.28,262.69,140.26,251.71,151.4Z"/><g class="cls-18"><path class="cls-8" d="M193.36,231.63l10.4-12.56a2.41,2.41,0,0,0-.31-3.38l-2.12-1.76c.14.28.29.55.41.83a14.64,14.64,0,0,1,1.11,3.5l-4.22,1.3a7.29,7.29,0,0,0-1.77-4.78c-1.13-1.48-2.28-1.78-3.47-.87a2,2,0,0,0-.69,1.69,18.72,18.72,0,0,0,.87,4.28,12.11,12.11,0,0,1,.55,3.75,7,7,0,0,1-.19,1.43,6.44,6.44,0,0,1-2.45,3.53,6.15,6.15,0,0,1-3.9,1.37l2.4,2A2.4,2.4,0,0,0,193.36,231.63Z"/><path class="cls-8" d="M188.3,218.24a15,15,0,0,1-.51-3.11,6.43,6.43,0,0,1,2.38-5.76,5.53,5.53,0,0,1,3.56-1.24,6.37,6.37,0,0,1,.66.06l-3.52-2.9a2.39,2.39,0,0,0-3.38.31l-10.39,12.57a2.4,2.4,0,0,0,.32,3.37l1.44,1.2-.07-.14a18.32,18.32,0,0,1-.93-3.73l4.53-1.06a8.47,8.47,0,0,0,1.77,5.45c1.27,1.66,2.48,2,3.66,1.14a2.75,2.75,0,0,0,1.13-2A14.7,14.7,0,0,0,188.3,218.24Z"/></g><polygon class="cls-14" points="144.98 222.91 158.33 239.84 153.22 243.65 140.11 226.98 144.98 222.91"/><polygon class="cls-19" points="144.98 222.91 158.33 239.84 156.11 241.49 142.57 224.93 144.98 222.91"/></g><g id="Layer_2" data-name="Layer 2"><circle class="cls-8" cx="64.9" cy="58.11" r="40.65" transform="translate(-0.76 0.86) rotate(-0.75)"/><circle class="cls-20" cx="64.9" cy="58.11" r="36.9" transform="translate(-0.76 0.86) rotate(-0.75)"/><path class="cls-21" d="M101.8,57.62a36.79,36.79,0,0,0-3.12-14.4c-3.5,2.06-7.3,5.83-8.77,9.19-1.72,4.28,3.28,6.52,2.63,10.79C91,70.85,72.21,56,69,67.06c-1.52,5.7,4,17.34,9.82,18.15,2.31.32,4.78-.77,7.1.26a4.87,4.87,0,0,1,1.87,1.6A36.84,36.84,0,0,0,101.8,57.62Z"/><path class="cls-8" d="M73.37,88.83c-3.25,0-6.73,2.09-9.87,1.26-2.89-.71-3.67-3.21-7.16-1.91-2.18.86-3.48,2.57-4.69,4.38a37,37,0,0,0,29.68-1.39A12.83,12.83,0,0,0,73.37,88.83Z"/><path class="cls-8" d="M58.56,26.87c3.25.18,6.86-1.62,9.94-.57,2.83.91,3.44,3.45,7,2.4,2.23-.71,3.65-2.33,5-4A37,37,0,0,0,50.78,24,12.83,12.83,0,0,0,58.56,26.87Z"/><path class="cls-22" d="M94,61.77c.56,2,2.56,5,.62,6.41-1.24.91-5.35-.11-6.6-.27-4.64-.65-9.84-3.08-13.35,1.24a9.34,9.34,0,0,0,5.54,15.07c2.86.5,5.87-.43,8.73-.11a4,4,0,0,1,1.54.56,37,37,0,0,0,10.54-34c-1.46.11-3.29,0-4.67.7C92.15,53.6,92.74,57.86,94,61.77Z"/><path class="cls-21" d="M28.45,63.63a35.84,35.84,0,0,0,5,13.43c3.08-2.47,6.21-6.65,7.16-10.09,1.05-4.37-4.08-5.82-4.05-10,.36-7.58,20.6,4.06,22.15-7,.66-5.71-6.26-16.15-12-16.11-2.27,0-4.5,1.42-6.88.75a4.75,4.75,0,0,1-2-1.28A35.88,35.88,0,0,0,28.45,63.63Z"/><path class="cls-22" d="M35.35,58.54c-.82-1.8-3.16-4.41-1.5-6.09,1.06-1,5.17-.65,6.39-.67,4.56,0,9.92,1.58,12.69-3.08A9.1,9.1,0,0,0,45.46,35c-2.82-.08-5.6,1.25-8.4,1.34A3.85,3.85,0,0,1,35.51,36a36,36,0,0,0-5.37,34.21,13.3,13.3,0,0,0,4.4-1.33C38.32,66.14,37.15,62.11,35.35,58.54Z"/><path class="cls-22" d="M96.33,67s.48,5.63-6.93,9"/><path class="cls-22" d="M96.34,67.62s.5,5.82-7.18,9.33"/><path class="cls-23" d="M43.11,67.41c-6.06-14.18-6.63-28-1-38.32A36.91,36.91,0,0,0,67.9,94.9C57.5,91.05,48.7,80.49,43.11,67.41Z"/><path class="cls-8" d="M353,315.2v-.05a77.32,77.32,0,0,0-17.07-53.3,76.4,76.4,0,0,0-51.84-28.24A78.31,78.31,0,0,0,215.26,360.5a76.4,76.4,0,0,0,51.84,28.24c1.4.15,2.82.26,4.23.33s2.84.12,4.26.12c41.24,0,75.05-32.58,77.37-73.52C353,315.51,353,315.36,353,315.2Z"/><path class="cls-24" d="M349.5,318.94c4.51-41.1-24.93-77.9-65.75-82.19s-77.57,25.55-82.08,66.65,24.93,77.9,65.75,82.19S345,360,349.5,318.94Z"/><path class="cls-25" d="M317.28,249.2a74.85,74.85,0,0,1,18.05,48.89c0,41.34-33.28,74.85-74.34,74.85a73.64,73.64,0,0,1-41.69-12.87,74,74,0,0,0,56.29,26c41.06,0,74.34-33.51,74.34-74.85A74.91,74.91,0,0,0,317.28,249.2Z"/><ellipse class="cls-25" cx="236.09" cy="296.76" rx="7.15" ry="7.2"/><ellipse class="cls-26" cx="277.59" cy="290.85" rx="7.15" ry="7.2"/><ellipse class="cls-27" cx="239.95" cy="342.17" rx="13.01" ry="13.09"/><ellipse class="cls-28" cx="235.49" cy="269.94" rx="5.77" ry="5.81"/><ellipse class="cls-25" cx="277.59" cy="350.41" rx="4.41" ry="4.44"/><ellipse class="cls-25" cx="312.08" cy="285.06" rx="2.21" ry="2.22"/><ellipse class="cls-25" cx="220.69" cy="316.18" rx="2.21" ry="2.22"/><ellipse class="cls-25" cx="258.65" cy="249.2" rx="2.21" ry="2.22"/><circle class="cls-8" cx="307.18" cy="333.29" r="4.05"/><circle class="cls-8" cx="289.65" cy="257.61" r="3.65"/><circle class="cls-8" cx="260.72" cy="305.98" r="3.07"/><circle class="cls-8" cx="217.63" cy="291.25" r="2.27"/><circle class="cls-8" cx="315.71" cy="265.99" r="1.5"/><circle class="cls-8" cx="262.26" cy="368.21" r="1.53"/><circle class="cls-8" cx="355.15" cy="255.15" r="2.47"/></g></g></svg>