<svg xmlns="http://www.w3.org/2000/svg" xmlns:xlink="http://www.w3.org/1999/xlink" viewBox="0 0 150.97 180"><defs><style>.cls-1,.cls-12,.cls-15,.cls-18,.cls-9{fill:none;}.cls-2{fill:#a6a8ab;}.cls-3{isolation:isolate;}.cls-4{fill:#e83d31;}.cls-24,.cls-5{opacity:0.2;}.cls-24,.cls-30,.cls-33,.cls-36,.cls-39,.cls-5{mix-blend-mode:multiply;}.cls-6{fill:#754c28;}.cls-7{fill:#aaa;}.cls-8{fill:#c0342c;}.cls-9{stroke:#d3d3d3;stroke-width:0.69px;}.cls-12,.cls-18,.cls-9{stroke-miterlimit:10;}.cls-10{fill:#f29400;}.cls-11{clip-path:url(#clip-path);}.cls-12{stroke:#e83d31;stroke-width:1.04px;}.cls-13{fill:#c4912c;}.cls-14{fill:#fff;}.cls-15{stroke:#fff;stroke-linecap:round;stroke-linejoin:round;stroke-width:0.7px;}.cls-16{fill:#ecb425;}.cls-17{clip-path:url(#clip-path-2);}.cls-18{stroke:#c0342c;stroke-width:0.61px;}.cls-19{fill:#e73c31;}.cls-20{clip-path:url(#clip-path-3);}.cls-21{clip-path:url(#clip-path-4);}.cls-22{fill:#8a5d3b;}.cls-23,.cls-24{fill:#231f20;}.cls-23{opacity:0.33;}.cls-25{fill:#808184;}.cls-26{fill:#f6f7f7;}.cls-27{fill:#420837;}.cls-28{fill:#770c5e;}.cls-29{fill:#fcf7df;}.cls-30,.cls-33,.cls-36,.cls-39{opacity:0.1;}.cls-31{fill:#66750d;}.cls-32,.cls-33{fill:#aed313;}.cls-34{fill:#656565;}.cls-35,.cls-36{fill:#b3b3b3;}.cls-37{fill:#f6f6f6;}.cls-38,.cls-39{fill:#2dcfe0;}</style><clipPath id="clip-path"><polygon class="cls-1" points="56.84 115.29 64.93 111.8 58.31 92.63 66.61 89.46 67.59 83 60.12 82.03 59.39 87.03 56.7 87.85 56.48 83.1 44.91 86.35 48.4 91.02 45.46 91.9 40.95 88.64 37.52 94.47 49.82 97.48 56.84 115.29"/></clipPath><clipPath id="clip-path-2"><path class="cls-1" d="M127.94,55.61S115,10.81,84.67,19L84.61,3s49.82-1,50.77,48.84Z"/></clipPath><clipPath id="clip-path-3"><path class="cls-2" d="M115.94,93.51c-8.6-18-30.47-25.67-48.84-17S40.8,106.78,49.41,124.83s30.47,25.67,48.84,17S124.54,111.56,115.94,93.51Z"/></clipPath><clipPath id="clip-path-4"><path class="cls-1" d="M112.65,95.06c-7.75-16.27-27.46-23.13-44-15.34a32.68,32.68,0,0,0-15.94,43.56c7.75,16.27,27.46,23.13,44,15.34A32.69,32.69,0,0,0,112.65,95.06Z"/></clipPath></defs><title>Artboard 1</title><g class="cls-3"><g id="Layer_1" data-name="Layer 1"><path class="cls-4" d="M97.77,122.17c2.77-3.12,7.93-2.81,11.51-.66a15,15,0,0,1,6.41,8c1.37,4.07,1,8.77,3.37,12.35a9.24,9.24,0,0,0,16.93-4.7c.11-2.47-.82-6.26,1.65-7.88,4.26-2.79,7.88,3.27,8.68,6.73,2.25,9.67-8,18.89-16.85,20-5.48.68-11.4-1.61-14.44-6.21-2.1-3.17-2.72-7.06-3.22-10.83s-1-7.65-2.81-11-5.47-6-9.23-5.45c-.27,0-.61.06-.75-.18s.41-.45.36-.18"/><ellipse class="cls-5" cx="89.68" cy="174.61" rx="35.82" ry="1.52"/><polygon class="cls-4" points="93.16 119.99 81.26 119.91 82.24 172.68 83.49 172.77 83.13 125.89 91.3 125.69 91.58 172.33 93.04 172.59 93.16 119.99"/><path class="cls-6" d="M81.85,151.73l.39,20.95,1.25.09-.16-21.11Z"/><path class="cls-6" d="M91.45,151.3l.13,21,1.46.26.05-21.35Z"/><path class="cls-6" d="M82.24,172.68a4.29,4.29,0,0,1-3.58,1.8l-.06.53s3.3.16,4.24-1.45l0,1.21,1.09-.14-.41-2.17Z"/><path class="cls-6" d="M92.92,172.23a4.29,4.29,0,0,0,3.69,1.58l.09.52s-3.29.37-4.33-1.18l.1,1.2-1.1-.09.28-2.18Z"/><polygon class="cls-7" points="54.69 83.6 42.9 32.26 31.5 21.83 26.68 38.67 47.99 87.96 54.69 83.6"/><polygon class="cls-8" points="56.84 115.29 64.93 111.8 58.31 92.63 66.61 89.46 67.59 83 60.12 82.03 59.39 87.03 56.7 87.85 56.48 83.1 44.91 86.35 48.4 91.02 45.46 91.9 40.95 88.64 37.52 94.47 49.82 97.48 56.84 115.29"/><polyline class="cls-9" points="51.13 83.51 34.77 38.33 42.9 32.26"/><polyline class="cls-10" points="52.91 90.86 55.09 83.12 48.41 77.33 46.07 86.02 52.91 90.86"/><g class="cls-11"><polyline class="cls-12" points="61.33 93.94 48.99 101.06 50.36 103.44 62.95 99.6 64.79 102.78 51.35 106.98 52.89 113.34 67 108.91"/></g><line class="cls-9" x1="34.77" y1="38.32" x2="27.06" y2="37.34"/><polygon class="cls-13" points="121.64 43.56 118.11 44.53 119.28 47.47 122.21 46.57 121.64 43.56"/><polygon class="cls-13" points="106.27 24.7 103.13 30.01 107.06 30.69 110.82 24.97 106.27 24.7"/><path class="cls-14" d="M78.94,32.23a27.83,27.83,0,0,1,3.13.26c.43.07.86.14,1.29.22.06,0,1,.28,1.16.32a63.66,63.66,0,0,1,6.89,3c1.21.55,2.43,1.09,3.65,1.63l3.35,3.81,3.07-.77h0l.58.3.14.08c.47.27.94.54,1.4.82a45.32,45.32,0,0,1,5.26,3.8c.42.35.83.7,1.24,1.06.14.12,1.22,1.13.76.68.68.65,1.35,1.31,2,2,.89,1,1.77,2.09,2.75,3.06l-1.73,4.83-6.78,18L90.78,79.11l-13.4-5L68.8,59.52,69,47l9.08-10.54Z"/><path class="cls-4" d="M61.68,50.52c-5.64,6.55-.86,10.66-.86,10.66a10.78,10.78,0,0,1,.44-2.56C61.16,64.92,65,70.69,65,70.69a36.9,36.9,0,0,1,.26-4.53c0,4.28,3.75,8.58,3.75,8.58-.4-.69-.21-4.43-.21-4.43a16,16,0,0,0,3.92,7,8.44,8.44,0,0,0,1.49,1.24l.62.39h0l0,0a15.2,15.2,0,0,1,3,1.77c-3.57-2.68-2.29-1.32.13-.58,1.78.55,2.88,1.21,4.58,1.18,3.52-.06,7,0,10.51.14,3.85.16,6.25-.37,9.85-.81l2.2.06c1.44-.7,2.88-1.33,4.39-1.89.25-.09.5-.16.74-.23a38.94,38.94,0,0,0,2.52-3.83,6.73,6.73,0,0,1-1,3.5,11,11,0,0,1,1.86-.1l0-.05a4.12,4.12,0,0,1,.69-.53l-.24.07a22.58,22.58,0,0,0,2.7-7.37c.91,1.65-.41,6-.41,6,5.68-5.74.3-17.3.3-17.3,1.75,1.66,3.77,7.26,3.77,7.26.06-5.48-4.9-11.69-4.9-11.69l1-1a33.07,33.07,0,0,1-3.78-4c-.62-.71-1.29-1.36-2-2,.46.44-.62-.56-.76-.68-.41-.36-.82-.71-1.24-1.06A45.32,45.32,0,0,0,103.6,42c-.46-.29-.93-.55-1.4-.82l-.14-.08-.58-.3c-1.18-.63-2.39-1.2-3.6-1.77-2.15-1-4.32-1.93-6.48-2.92-1.68-.76-3.3-1.62-5-2.33l-5,1.2a5.57,5.57,0,0,1-.66-2.6c-.63-.05-1.26-.09-1.89-.11h-.61a17.48,17.48,0,0,1-3.61,2h1.12l-3.4,7a13.27,13.27,0,0,0-7.43,2.4c.84-.27,3.22.49,3.22.49A14.38,14.38,0,0,0,59,51.43,3.62,3.62,0,0,1,61.68,50.52Zm19.67-1.28c2-4.92,8.29-10.68,12.36-9s4.43,10.18,2.39,15.1-7,7.55-11.07,5.86S79.31,54.16,81.35,49.24Zm-3.53,6.32c3,2.25-5.37,2.65-5.37,2.65a15.52,15.52,0,0,1-1.13-5.08C71.37,50.88,74.78,53.31,77.82,55.56Z"/><path class="cls-4" d="M117,70.53s-2.38,10.86-8.73,14.32c0,0,2.73-4.11,3.3-6.17,0,0-4.13,8-17.2,7.41a15.39,15.39,0,0,0,6.84-3.34s-18,4.83-28.2-5.17l24.35-.92S109.94,69,110.2,69,117,70.53,117,70.53Z"/><path class="cls-15" d="M106,65.66S91.78,86.87,74.71,67.56"/><path class="cls-14" d="M109.18,66.2s-.15-6.83-6-2.68C103.15,63.52,107.39,60.3,109.18,66.2Z"/><polygon class="cls-16" points="122.95 58.92 121.21 61.8 74.98 31.35 77.52 27.85 122.95 58.92"/><path class="cls-16" d="M117.8,57.19l-.69-.51c-3.34-3-6.38-6.27-10.39-8.36a59.79,59.79,0,0,1-6.29-3.68c-2-1.36-3.92-2.79-5.87-4.19-4-2.89-8.28-5.52-12.45-8.23-1.2-.78-2.42-1.55-3.66-2.28,5.54-3.18,9.5-6.85,17.13-5.14,13.76,3.08,26.45,16.94,24,27.79A15.75,15.75,0,0,1,117.8,57.19Z"/><polygon class="cls-16" points="114.27 56.2 112.03 62.2 104.96 58.99 108.25 52.77 114.27 56.2"/><polyline class="cls-16" points="91.11 30.82 89.52 20.66 83.48 22.27 85.11 32.66"/><polyline class="cls-16" points="108.67 36.49 113.36 28.88 108.27 25.05 102.88 34.08"/><polyline class="cls-16" points="115.96 52.7 124.84 51.66 124.69 45.3 114.27 46.66"/><path class="cls-16" d="M77.88,17.81l1.5,6.77c32.54-15.16,46.57,31.24,46.57,31.24l3.14-.33S119.93,4.08,77.88,17.81Z"/><path class="cls-4" d="M127.94,55.61S115,10.81,84.67,19L84.61,3s49.82-1,50.77,48.84Z"/><polygon class="cls-8" points="84.67 18.98 84.61 2.97 82.03 3.45 81.2 8.96 80.37 3.34 77.36 3.91 80.13 20.2 84.67 18.98"/><g class="cls-17"><polyline class="cls-18" points="139.13 46.94 125.11 51.64 124.78 48.29 137.5 39.48 135.38 35.57 121.82 45.12 121.53 41.69 133.57 29.5 131.8 27.1 119.39 37.81 117.24 34.7 127.18 17.88 123.63 15.08 113.82 30.23 111.4 27.41 119.55 10.52 115.9 8.37 107.01 26.03 103.78 23.08 109.09 5.69 105.47 4.06 100.48 21.7 96.11 21.76 99.88 -0.1 94.24 0.44 93.51 20.5 89.84 21.96 90.24 -0.08"/></g><ellipse class="cls-19" cx="89.5" cy="54.34" rx="3.35" ry="1.55" transform="translate(-0.33 108.14) rotate(-62.18)"/><ellipse class="cls-14" cx="77.64" cy="48.08" rx="2.55" ry="1.18" transform="translate(-1.12 94.31) rotate(-62.18)"/><path class="cls-2" d="M115.94,93.51c-8.6-18-30.47-25.67-48.84-17S40.8,106.78,49.41,124.83s30.47,25.67,48.84,17S124.54,111.56,115.94,93.51Z"/><g class="cls-20"><polygon class="cls-2" points="118.97 133.49 134.16 126.34 101.92 58.71 87.3 65.59 87.3 65.59 72.45 72.58 72.45 72.58 58.73 79.03 58.73 79.03 43.62 86.15 43.62 86.15 28.43 93.3 60.68 160.92 75.86 153.78 75.86 153.78 90.97 146.66 90.97 146.66 104.69 140.21 104.69 140.21 118.97 133.49 118.97 133.49"/></g><g class="cls-21"><polygon class="cls-22" points="115.39 131.09 129.08 124.64 100.02 63.69 86.84 69.89 86.84 69.89 73.46 76.19 73.46 76.19 61.1 82.01 61.1 82.01 47.48 88.42 47.48 88.42 33.79 94.86 62.85 155.81 76.54 149.37 76.54 149.37 90.16 142.96 90.16 142.96 102.52 137.14 102.52 137.14 115.39 131.09 115.39 131.09"/><path class="cls-23" d="M46.31,85.34c1.82,3.57,2.83,7.44,4.36,11.12,1.33,3.19,3.44,6.06,5.22,9a31.47,31.47,0,0,1,4.37,13.14c.83,7.24,1.52,15,4.5,21.69.89,2,2.21,4.14,4.45,4.86,2.71.88,4.68-1.48,5.45-3.73,1.11-3.21-.19-6.91-3.87-7.21-3.28-.26-1.6,3.79-.05,4.74.34.21.63-.34.29-.56-2.62-1.62-.75-4.06,1.53-3.11,1.38.57,1.72,2.33,1.82,3.6.16,2.1-.81,4.69-2.88,5.57-2.33,1-4.26-1.12-5.33-2.84-2.95-4.75-3.68-11.11-4.45-16.52-.6-4.22-.7-8.62-1.89-12.73-1.3-4.48-4.13-8.42-6.53-12.37-2.87-4.73-4-10.13-6.45-15-.18-.35-.71,0-.53.35Z"/><path class="cls-23" d="M58,80.65c-.71,5.28,1.44,9.63,4.25,13.94,1.49,2.29,3.06,4.53,4.48,6.87a10.67,10.67,0,0,1,1.59,4.82,5.59,5.59,0,0,1-.64,2.46c-1,2.13-3.08.63-3.66-.89-.14-.38-.74-.18-.6.2,2,5.12,5.77,1.53,5.48-2.54-.22-3.18-2.77-6.29-4.46-8.8-3.28-4.89-6.65-9.74-5.83-15.93.06-.4-.56-.53-.61-.13Z"/><path class="cls-23" d="M68,108.51c4.64,8.49-1.51,18.92,4.36,26.95.23.32.77,0,.53-.35-5.81-8,.28-18.46-4.36-27-.19-.35-.72,0-.53.35Z"/><path class="cls-23" d="M74.93,99.42c2.15,7.35,4.47,14.64,6.3,22.08,1.75,7.08,2.28,14.32,2.63,21.58l.52.14c-.05-1.28-.11-2.57-.17-3.85A105.07,105.07,0,0,0,81,118.12c-1.89-7.26-3.87-14.69-6.44-21.73a45.7,45.7,0,0,0-9.2-15.33c-.27-.29-.7.18-.42.47A45.31,45.31,0,0,1,74.93,99.42Z"/><path class="cls-23" d="M71.18,76.17a81.58,81.58,0,0,0,4.14,11.14,51.49,51.49,0,0,1,2.46,9.81c.86,4.28,2.88,10,8.26,9.83,3.16-.09,4.32-5,1.64-6.53-3.58-2-6,1.5-2.74,3.9.32.24.75-.23.42-.47q-2.12-1.15,1.52-3.17a2.86,2.86,0,0,1,1.62,3.14c-.26,2.91-3.61,2.73-5.56,1.76-3.13-1.56-4.12-6.15-4.67-9.24a46.17,46.17,0,0,0-2.36-9.22c-1.46-3.7-3.17-7.25-4.14-11.14-.1-.39-.7-.19-.6.2Z"/><path class="cls-23" d="M90.84,143l.61-.06c-.47-3.36-1.12-6.71-1.82-10-1.76-8.42-2.26-17.52-6.74-25.08-.21-.34-.74,0-.53.35,4.32,7.29,4.74,15.9,6.48,24C89.6,135.79,90.33,139.41,90.84,143Z"/><path class="cls-23" d="M88.45,110.1c4.36,4.68,4.64,12.77,5.18,18.78.7,7.73.84,15.5,1.52,23.23,0,.4.67.37.63,0-.73-8.24-.87-16.51-1.66-24.75-.55-5.77-1.08-13.23-5.25-17.7-.27-.3-.69.18-.42.47Z"/><path class="cls-23" d="M78.61,73.43c1.62,6,1.64,12.29,4.06,18a16.64,16.64,0,0,0,4.08,5.63,36.78,36.78,0,0,1,6.34,7.82c3.08,5.12,4.67,11,6.47,16.68,2.17,6.81,4.72,13.48,7,20.26a.32.32,0,0,0,.6-.2c-2.14-6.47-4.55-12.85-6.66-19.34-1.69-5.19-3.1-10.55-5.59-15.43a38.23,38.23,0,0,0-4.32-6.73c-2-2.55-4.7-4.47-6.44-7.27-3.59-5.75-3.16-13.27-4.89-19.66-.11-.38-.7-.19-.6.2Z"/><path class="cls-23" d="M89.17,74.77l-.62-.08a31.82,31.82,0,0,0,4.82,10.77c1.86,2.92,3.94,5.7,5.79,8.64a73.15,73.15,0,0,1,5.53,11.49,40,40,0,0,1,3.19,11.88c.29,3.81.2,7.69,1,11.44q.37,1.75.76,3.49l.53-.38a61.31,61.31,0,0,1-1.1-6c-.47-3.78-.15-7.68-.92-11.42a66.91,66.91,0,0,0-8.46-20.81C96,87.79,90.55,81.73,89.17,74.77Z"/><path class="cls-23" d="M96.8,66.31c3.46,6.7,7.1,13.31,9.72,20.39s3.09,14.25,4,21.53A49.59,49.59,0,0,0,115.74,125c1.55,3.06,3.76,8.45,7.83,8.78.4,0,.54-.58.14-.61-4.26-.34-6.5-6.71-8.15-9.92-3.37-6.51-4.27-13.38-5-20.58A70,70,0,0,0,106,83.7c-2.46-6.11-5.69-11.89-8.71-17.74-.19-.36-.71,0-.53.35Z"/><path class="cls-23" d="M119.58,113.94c-2.2.19-1,5.16-.41,6.24s2.46,1.72,3.24.54c2-3-.58-9.07-2.45-11.52-3.33-4.36-5.14,3.83-4.93,6.07.38,4.11,2.57,8.14,4.7,11.61,1.84,3,4.22,6.43,7.41,8.15a.31.31,0,0,0,.29-.56c-4.76-2.57-8-8.73-10.07-13.45-1.08-2.49-2.07-5.36-1.67-8.11.16-1.08.86-4.63,2.56-4.31,2.45.45,3.54,5.84,3.88,7.75a6.45,6.45,0,0,1-.18,3.93c-.52,1-1.85.07-2.25-.46s-1.43-5.16-.09-5.27c.41,0,.38-.66,0-.62Z"/></g><path class="cls-24" d="M94.6,105.42c-2.85-6-9.78-8.64-15.49-6a11.64,11.64,0,0,0-5.17,15.68c2.85,6,9.78,8.64,15.48,6A11.64,11.64,0,0,0,94.6,105.42Z"/><path class="cls-2" d="M92.13,104.72a10.44,10.44,0,0,0-13.88-4.84,10.31,10.31,0,0,0-5,13.74,10.43,10.43,0,0,0,13.88,4.84A10.31,10.31,0,0,0,92.13,104.72Z"/><path class="cls-25" d="M88.27,106.54a6.18,6.18,0,0,0-8.22-2.86,6.1,6.1,0,0,0-3,8.13,6.17,6.17,0,0,0,8.21,2.86A6.1,6.1,0,0,0,88.27,106.54Z"/><path class="cls-26" d="M90.8,105.8a3.11,3.11,0,0,0-4.14-1.44,3.07,3.07,0,0,0-1.5,4.09,3.11,3.11,0,0,0,4.13,1.44A3.07,3.07,0,0,0,90.8,105.8Z"/><path class="cls-27" d="M30.54,89.93l-7.88,2.15-3.28-3.84-1.23-4.5,4-2.19s2.18-2.27,2.41-1.1S30.54,89.93,30.54,89.93Z"/><path class="cls-28" d="M23.55,86.5a.83.83,0,0,0,.4.22l2,.67a6.4,6.4,0,0,1-1.44,1.28,14.6,14.6,0,0,0,2.6-.27l-.91,1.8,2.83-.74.29,3.36a16.2,16.2,0,0,0,.31,3.09c3.12-2,5-5.51,3.26-9.08l-.1-.19a12.74,12.74,0,0,0-8.26-6.19c-3.17-.72-7,1-7.42,4.51-.27,2.56,1.15,5.34,2.73,7.26a11.07,11.07,0,0,0,2.38,2.21c.21.14,2.71,1.36,2.79,1.1l1-3.18-2.7-.9.7-1.12-3.07-.58a16.71,16.71,0,0,0,2.2-1.87q-1.31-.54-2.58-1.18a40.26,40.26,0,0,0,2.87-4.92V86A.83.83,0,0,0,23.55,86.5Z"/><path class="cls-28" d="M17.82,86.76a4.37,4.37,0,0,1-2.22,0A1.58,1.58,0,0,1,14.49,85c.2-.92,1.45-2.42-.05-3a1.87,1.87,0,0,0-1.14,0,3.25,3.25,0,0,0-2,4.28,3,3,0,0,0,2.08,1.87,6.65,6.65,0,0,0,3.26-.19,1.66,1.66,0,0,0,1.2-.76"/><path class="cls-28" d="M28,81.25a3.17,3.17,0,0,0,4.23,4.69c1.2-1.09.91-2.72-.26-4S29.16,80.17,28,81.25Z"/><path class="cls-29" d="M28.58,81.12a3.17,3.17,0,0,0,4.23,4.69c1.2-1.09.91-2.72-.26-4S29.79,80,28.58,81.12Z"/><path class="cls-30" d="M31.39,86.48a3.21,3.21,0,0,1-2.87-1.06,3.05,3.05,0,0,1,.06-4.31,2.47,2.47,0,0,1,.51-.36C27.57,84.16,30.27,85.92,31.39,86.48Z"/><circle cx="32.14" cy="84.13" r="0.73" transform="translate(-48.09 43.21) rotate(-42.06)"/><circle class="cls-29" cx="31.94" cy="83.58" r="0.41" transform="translate(-47.77 42.93) rotate(-42.06)"/><polygon points="33.32 77.89 31.15 78.4 33.08 86.87 34.45 86.68 33.32 77.89"/><path class="cls-28" d="M15,87.26c0,.07.13,0,.19,0a6.28,6.28,0,0,0,1.55-2.31.4.4,0,0,0,0-.2.36.36,0,0,0-.21-.23,1.44,1.44,0,0,0-.55-.17.32.32,0,0,0-.22,0,.34.34,0,0,0-.09.32,2.66,2.66,0,0,0,.35,1.07,1,1,0,0,0-.26-.23.33.33,0,0,0-.34,0,.2.2,0,0,0,0,.3l.4.36-.45-.11c-.08,0-.18,0-.22,0a.17.17,0,0,0,0,.13,1.3,1.3,0,0,0,.54.71.9.9,0,0,0-.61.41v0"/><path class="cls-28" d="M17.18,90.39a1.53,1.53,0,0,0-.38.61c-.06.15-.19.44-.08.6.3.43.58-.42.63-.63.09.32.38,1.09.88.89s-.22-.91-.46-1l0,0a.82.82,0,0,0,.43,0c.23-.06.44-.33.24-.56a.54.54,0,0,0-.46-.12,1.39,1.39,0,0,0-.7.24Z"/><path class="cls-28" d="M16.18,89.14a2.39,2.39,0,0,1,.21-1.72l.24.12a2.25,2.25,0,0,0,.85,2.94l-.14.22A3,3,0,0,1,16.18,89.14Z"/><path class="cls-28" d="M15,90.72a1.53,1.53,0,0,0-.59.41c-.11.11-.35.33-.31.52.11.51.7-.16.83-.33,0,.32-.09,1.15.46,1.17s.16-.93,0-1.11c0,0,0,0,0-.07a.82.82,0,0,0,.4.16c.24,0,.54-.13.44-.41a.54.54,0,0,0-.38-.29,1.39,1.39,0,0,0-.74-.06Z"/><path class="cls-28" d="M14.65,90.22a2.34,2.34,0,0,1,.8-2.54l.17.2a2.25,2.25,0,0,0-.39,3l-.22.15A3.08,3.08,0,0,1,14.65,90.22Z"/><path class="cls-28" d="M9.17,82.88a1.24,1.24,0,0,1,.51-1.19l.18.19c-.37.36-.52.67-.43.95.2.65,1.66,1,2.2,1.08l0,.26c-.09,0-2.12-.33-2.41-1.26Z"/><path class="cls-28" d="M9.9,81.89A4,4,0,0,0,8,80.56c-.13,0-.29,0-.36.08a.25.25,0,0,0,0,.17.7.7,0,0,0,.34.43,3,3,0,0,0,.78.35c.37.12.74.21,1.12.29"/><path class="cls-28" d="M8.61,84a1.4,1.4,0,0,1,.3-1.11l.22.15c-.29.43-.36.77-.21,1,.34.59,1.84.6,2.39.56l0,.26c-.09,0-2.14.15-2.63-.69A.78.78,0,0,1,8.61,84Z"/><path class="cls-28" d="M9.17,83A4,4,0,0,0,7,82.16c-.13,0-.29,0-.34.16a.25.25,0,0,0,0,.17.7.7,0,0,0,.42.34A3,3,0,0,0,8,83c.38,0,.77,0,1.16,0"/><polygon class="cls-28" points="27.37 81.52 26.11 78.34 29.52 76.25 24.66 78.28 26.08 81.87 27.37 81.52"/><polygon class="cls-28" points="23.1 80.6 20.43 78.48 22.35 74.97 19.13 79.14 22.15 81.55 23.1 80.6"/><path class="cls-31" d="M67.66,121.55l1.64,5.86-3.57-.25-5.48-.75.32-5.11a8.13,8.13,0,0,0,1.76-.66C62.81,120.31,67.66,121.55,67.66,121.55Z"/><path class="cls-32" d="M64.4,123.49a.77.77,0,0,0,.37-.21l1.52-1.3a6,6,0,0,1,.32,1.77,13.65,13.65,0,0,0,1-2.2l1,1.6.79-2.62,2.83,1.4a15.17,15.17,0,0,0,2.62,1.26c-.08-3.46-2-6.67-5.68-7l-.2,0a11.94,11.94,0,0,0-9,3.6c-2.11,2.18-2.64,6.11,0,8.12,1.92,1.46,4.83,1.67,7.14,1.34a10.37,10.37,0,0,0,2.92-.83c.22-.1,2.41-1.5,2.23-1.7l-2.08-2.31-2,1.72L67.68,125l-2,2.17a15.61,15.61,0,0,0-.43-2.66q-1.07.78-2.2,1.49a37.63,37.63,0,0,0-2.54-4.68l3.36,2A.78.78,0,0,0,64.4,123.49Z"/><path class="cls-32" d="M62.16,128.35a1.55,1.55,0,0,1,0,1.33,6.22,6.22,0,0,1-1.43,2.69,2.83,2.83,0,0,1-2.5.75,3,3,0,0,1-2.47-3.65,1.75,1.75,0,0,1,.59-.89c1.21-.91,1.8.82,2.44,1.43a1.48,1.48,0,0,0,1.93-.05,4.08,4.08,0,0,0,1.09-1.77"/><path class="cls-33" d="M62.35,117.42a3,3,0,0,0,5.81-1.11c-.28-1.49-1.74-2-3.34-1.74S62.06,115.93,62.35,117.42Z"/><path class="cls-29" d="M62.54,116.86a3,3,0,0,0,5.81-1.11c-.28-1.49-1.74-2-3.34-1.74S62.26,115.37,62.54,116.86Z"/><path class="cls-30" d="M68.2,117.22A3,3,0,0,1,66,119a2.86,2.86,0,0,1-3.42-2.14,2.31,2.31,0,0,1,0-.58C64.48,119.14,67.21,117.84,68.2,117.22Z"/><circle cx="66.68" cy="115.48" r="0.68" transform="translate(-20.43 14.51) rotate(-10.78)"/><circle class="cls-29" cx="66.15" cy="115.37" r="0.38" transform="translate(-20.42 14.41) rotate(-10.78)"/><polygon points="62.26 111.5 61.61 113.49 69.33 116.05 69.85 114.86 62.26 111.5"/><path class="cls-32" d="M60.86,130.68c.07,0,.08-.1.07-.17a5.86,5.86,0,0,0-1.1-2.36.37.37,0,0,0-.15-.13.34.34,0,0,0-.28.05,1.35,1.35,0,0,0-.4.36.3.3,0,0,0-.08.2c0,.11.12.18.21.22a2.49,2.49,0,0,0,1,.24.92.92,0,0,0-.31.09.31.31,0,0,0-.17.27.19.19,0,0,0,.22.18l.48-.14-.31.3c-.05.05-.11.13-.07.2a.16.16,0,0,0,.11.06,1.21,1.21,0,0,0,.83-.09.84.84,0,0,0,0,.68v0"/><path class="cls-32" d="M64.42,130.47a1.43,1.43,0,0,0,.3.6c.09.12.26.37.44.35.49,0-.05-.67-.2-.81.3.08,1.06.23,1.14-.27s-.84-.27-1-.12l-.06,0a.77.77,0,0,0,.2-.35c.07-.21-.05-.52-.33-.46a.5.5,0,0,0-.32.31,1.3,1.3,0,0,0-.15.68Z"/><path class="cls-32" d="M62.93,130.67a2.23,2.23,0,0,1-1.28-1l.21-.13a2.11,2.11,0,0,0,2.77.75l.11.22A2.78,2.78,0,0,1,62.93,130.67Z"/><path class="cls-32" d="M63.63,132.37a1.43,1.43,0,0,0,0,.67c0,.15.09.44.26.5.46.16.22-.64.14-.82.24.19.88.63,1.16.2s-.66-.58-.9-.52h-.06a.77.77,0,0,0,.32-.24c.14-.17.16-.49-.12-.55a.5.5,0,0,0-.41.16,1.3,1.3,0,0,0-.4.57Z"/><path class="cls-32" d="M63.05,132.41a2.19,2.19,0,0,1-1.64-1.87l.24,0a2.11,2.11,0,0,0,2.24,1.78v.25A2.89,2.89,0,0,1,63.05,132.41Z"/><path class="cls-32" d="M54.51,133.23c-.34-.1-.58-.43-.7-1l.24-.05c.1.47.28.74.55.81.62.15,1.61-.84,1.94-1.23l.19.16c-.05.06-1.29,1.53-2.18,1.31Z"/><path class="cls-32" d="M54.07,132.17a3.78,3.78,0,0,0-2,.85c-.09.09-.17.22-.11.33a.23.23,0,0,0,.13.1.66.66,0,0,0,.51-.06,2.85,2.85,0,0,0,.66-.45c.27-.24.53-.49.78-.75"/><path class="cls-32" d="M55.13,134.22a1.31,1.31,0,0,1-.74-.78l.22-.11c.21.44.45.66.71.66.64,0,1.38-1.18,1.61-1.63l.22.11c0,.07-.91,1.78-1.83,1.77Z"/><path class="cls-32" d="M54.63,133.31a3.78,3.78,0,0,0-1.73,1.27c-.06.11-.12.25,0,.35A.23.23,0,0,0,53,135a.66.66,0,0,0,.48-.17,2.85,2.85,0,0,0,.54-.59c.21-.29.4-.6.59-.91"/><polygon class="cls-32" points="62.27 118.02 59.12 117.49 59.1 113.75 58.35 118.62 61.92 119.22 62.27 118.02"/><polygon class="cls-32" points="59.46 120.99 56.46 122.1 54.59 118.86 56.36 123.45 59.76 122.21 59.46 120.99"/><path class="cls-34" d="M42.73,152.1l.79,2.84-1.73-.12-2.66-.36.15-2.47a3.93,3.93,0,0,0,.85-.32A11.56,11.56,0,0,1,42.73,152.1Z"/><path class="cls-35" d="M41.16,153a.37.37,0,0,0,.18-.1l.73-.63a2.89,2.89,0,0,1,.16.86,6.61,6.61,0,0,0,.51-1.07l.48.78.38-1.27,1.37.68a7.34,7.34,0,0,0,1.27.61,3.19,3.19,0,0,0-2.75-3.4h-.1A5.78,5.78,0,0,0,39,151.23a2.67,2.67,0,0,0,0,3.93,4.8,4.8,0,0,0,3.46.65,5,5,0,0,0,1.41-.4c.1,0,1.17-.73,1.08-.82l-1-1.12-1,.83-.27-.54-.95,1.05a7.56,7.56,0,0,0-.21-1.29q-.52.38-1.06.72A18.22,18.22,0,0,0,39.29,152l1.62,1A.38.38,0,0,0,41.16,153Z"/><path class="cls-35" d="M40.07,155.4a.75.75,0,0,1,0,.64,3,3,0,0,1-.69,1.3,1.37,1.37,0,0,1-1.21.37A1.47,1.47,0,0,1,37,155.94a.85.85,0,0,1,.28-.43c.59-.44.87.4,1.18.69a.72.72,0,0,0,.93,0,2,2,0,0,0,.53-.86"/><path class="cls-36" d="M40.16,150.1a1.43,1.43,0,0,0,2.81-.54c-.14-.72-.84-1-1.62-.84S40,149.38,40.16,150.1Z"/><path class="cls-37" d="M40.25,149.83a1.43,1.43,0,0,0,2.81-.54c-.14-.72-.84-1-1.62-.84S40.12,149.11,40.25,149.83Z"/><path class="cls-30" d="M43,150a1.45,1.45,0,0,1-1.08.86,1.38,1.38,0,0,1-1.65-1,1.12,1.12,0,0,1,0-.28A1.89,1.89,0,0,0,43,150Z"/><circle cx="42.26" cy="149.16" r="0.33" transform="translate(-27.16 10.54) rotate(-10.78)"/><circle class="cls-37" cx="42" cy="149.11" r="0.19" transform="translate(-27.16 10.49) rotate(-10.78)"/><polygon points="40.12 147.24 39.8 148.2 43.54 149.44 43.79 148.87 40.12 147.24"/><path class="cls-35" d="M39.44,156.52s0,0,0-.08a2.84,2.84,0,0,0-.53-1.14.18.18,0,0,0-.07-.06.16.16,0,0,0-.14,0,.65.65,0,0,0-.2.17.14.14,0,0,0,0,.09c0,.05.06.09.1.11a1.21,1.21,0,0,0,.5.12.44.44,0,0,0-.15,0,.15.15,0,0,0-.08.13A.09.09,0,0,0,39,156l.23-.07-.15.15s-.05.06,0,.09a.08.08,0,0,0,.05,0,.59.59,0,0,0,.4,0,.41.41,0,0,0,0,.33h0"/><path class="cls-35" d="M41.16,156.42a.69.69,0,0,0,.15.29c0,.06.13.18.21.17.24,0,0-.33-.1-.39.14,0,.51.11.55-.13s-.41-.13-.5-.06h0a.37.37,0,0,0,.1-.17c0-.1,0-.25-.16-.22a.24.24,0,0,0-.15.15.63.63,0,0,0-.07.33Z"/><path class="cls-35" d="M40.44,156.52a1.08,1.08,0,0,1-.62-.49l.1-.06a1,1,0,0,0,1.34.36l.05.11A1.34,1.34,0,0,1,40.44,156.52Z"/><path class="cls-35" d="M40.78,157.34a.69.69,0,0,0,0,.33c0,.07,0,.21.13.24s.11-.31.07-.4c.12.09.42.31.56.1s-.32-.28-.44-.25h0a.37.37,0,0,0,.16-.12c.07-.08.08-.24-.06-.27a.24.24,0,0,0-.2.08.63.63,0,0,0-.2.27Z"/><path class="cls-35" d="M40.5,157.36a1.06,1.06,0,0,1-.8-.91l.12,0a1,1,0,0,0,1.08.86v.12A1.4,1.4,0,0,1,40.5,157.36Z"/><path class="cls-35" d="M36.37,157.76c-.17,0-.28-.21-.34-.48l.12,0c0,.23.14.36.26.39.3.07.78-.41.94-.6l.09.08s-.63.74-1.06.64Z"/><path class="cls-35" d="M36.15,157.24a1.83,1.83,0,0,0-1,.41s-.08.11-.05.16a.11.11,0,0,0,.06,0,.32.32,0,0,0,.25,0,1.38,1.38,0,0,0,.32-.22c.13-.11.25-.24.38-.36"/><path class="cls-35" d="M36.67,158.24a.63.63,0,0,1-.36-.38l.11-.05c.1.21.22.32.35.32.31,0,.67-.57.78-.79l.11.05s-.44.86-.89.86Z"/><path class="cls-35" d="M36.43,157.79a1.83,1.83,0,0,0-.84.61c0,.05-.06.12,0,.17a.11.11,0,0,0,.07,0,.32.32,0,0,0,.23-.08,1.38,1.38,0,0,0,.26-.28c.1-.14.19-.29.29-.44"/><polygon class="cls-35" points="40.12 150.39 38.6 150.14 38.59 148.33 38.23 150.68 39.95 150.97 40.12 150.39"/><polygon class="cls-35" points="38.76 151.83 37.31 152.37 36.4 150.8 37.26 153.02 38.91 152.42 38.76 151.83"/><path class="cls-34" d="M109.39,159.07l-1.33,2.63,1.72.22,2.67.16.33-2.45a3.93,3.93,0,0,1-.77-.48A11.56,11.56,0,0,0,109.39,159.07Z"/><path class="cls-35" d="M110.75,160.3a.37.37,0,0,1-.16-.14l-.6-.76a2.89,2.89,0,0,0-.32.81,6.61,6.61,0,0,1-.29-1.15l-.63.67-.13-1.32-1.47.4a7.34,7.34,0,0,1-1.36.35,3.19,3.19,0,0,1,3.36-2.8h.1a5.78,5.78,0,0,1,3.92,2.55,2.67,2.67,0,0,1-.76,3.85,4.8,4.8,0,0,1-3.52,0,5,5,0,0,1-1.31-.67c-.09-.07-1-.94-.9-1l1.2-.9.8,1,.37-.47.72,1.22a7.56,7.56,0,0,1,.45-1.22q.44.47.9.91a18.22,18.22,0,0,1,1.65-2l-1.78.65A.38.38,0,0,1,110.75,160.3Z"/><path class="cls-35" d="M111.36,162.82a.75.75,0,0,0-.14.63,3,3,0,0,0,.43,1.41,1.37,1.37,0,0,0,1.12.59,1.47,1.47,0,0,0,1.51-1.5.85.85,0,0,0-.19-.48c-.49-.54-.93.22-1.29.45a.72.72,0,0,1-.91-.21,2,2,0,0,1-.35-.94"/><path class="cls-36" d="M112.3,157.61a1.43,1.43,0,0,1-2.65-1.07c.27-.68,1-.81,1.75-.51S112.58,156.93,112.3,157.61Z"/><path class="cls-37" d="M112.26,157.33a1.43,1.43,0,0,1-2.65-1.07c.27-.68,1-.81,1.75-.51S112.54,156.64,112.26,157.33Z"/><path class="cls-30" d="M109.54,157a1.45,1.45,0,0,0,.9,1.06,1.38,1.38,0,0,0,1.82-.7,1.12,1.12,0,0,0,.07-.27A1.89,1.89,0,0,1,109.54,157Z"/><circle cx="110.43" cy="156.28" r="0.33" transform="translate(-75.83 200.17) rotate(-68.01)"/><circle class="cls-37" cx="110.69" cy="156.28" r="0.19" transform="translate(-75.66 200.41) rotate(-68.01)"/><polygon points="112.9 154.81 113.02 155.81 109.11 156.31 108.98 155.69 112.9 154.81"/><path class="cls-35" d="M111.76,164s0-.05,0-.08a2.84,2.84,0,0,1,.74-1,.18.18,0,0,1,.08,0,.16.16,0,0,1,.13.05.65.65,0,0,1,.16.21.14.14,0,0,1,0,.1c0,.05-.07.07-.12.09a1.21,1.21,0,0,1-.51,0,.44.44,0,0,1,.14.07.15.15,0,0,1,.05.14.09.09,0,0,1-.12.06l-.21-.11.12.17s0,.07,0,.1a.08.08,0,0,1-.06,0,.59.59,0,0,1-.39-.12.41.41,0,0,1-.08.32h0"/><path class="cls-35" d="M110.09,163.61a.69.69,0,0,1-.2.26c-.05,0-.16.15-.24.13s.09-.31.17-.37c-.15,0-.52,0-.52-.24s.42,0,.5,0h0a.37.37,0,0,1-.06-.19c0-.11.07-.24.2-.19a.24.24,0,0,1,.12.18.63.63,0,0,1,0,.34Z"/><path class="cls-35" d="M110.78,163.85a1.08,1.08,0,0,0,.7-.36l-.09-.08a1,1,0,0,1-1.38.09l-.07.09A1.34,1.34,0,0,0,110.78,163.85Z"/><path class="cls-35" d="M110.29,164.59a.69.69,0,0,1-.08.32c0,.07-.09.2-.17.21s0-.32,0-.4c-.13.07-.48.22-.57,0s.37-.21.48-.16h0a.37.37,0,0,1-.13-.15c-.05-.09,0-.25.11-.25a.24.24,0,0,1,.18.11.63.63,0,0,1,.14.31Z"/><path class="cls-35" d="M110.55,164.66a1.06,1.06,0,0,0,1-.74l-.11,0a1,1,0,0,1-1.23.64l0,.12A1.4,1.4,0,0,0,110.55,164.66Z"/><path class="cls-35" d="M114.54,165.86c.17,0,.32-.15.43-.4l-.11,0c-.09.21-.2.32-.34.33-.31,0-.68-.55-.8-.77l-.11.06s.47.85.91.83Z"/><path class="cls-35" d="M114.84,165.39a1.83,1.83,0,0,1,.85.59c0,.05.06.12,0,.17a.11.11,0,0,1-.07,0,.32.32,0,0,1-.24-.08,1.38,1.38,0,0,1-.27-.28c-.11-.14-.2-.28-.3-.43"/><path class="cls-35" d="M114.15,166.27a.63.63,0,0,0,.42-.3l-.1-.07c-.14.19-.27.27-.4.25-.3-.06-.54-.69-.61-.93l-.12,0s.27.93.7,1Z"/><path class="cls-35" d="M114.47,165.88a1.83,1.83,0,0,1,.7.77c0,.06,0,.13,0,.17a.11.11,0,0,1-.08,0,.32.32,0,0,1-.21-.13,1.38,1.38,0,0,1-.2-.33c-.07-.16-.13-.32-.2-.49"/><polygon class="cls-35" points="112.28 157.9 113.83 157.95 114.19 156.17 114.08 158.56 112.33 158.51 112.28 157.9"/><polygon class="cls-35" points="113.33 159.58 114.66 160.38 115.85 159.02 114.58 161.04 113.08 160.13 113.33 159.58"/><path class="cls-38" d="M122.32,99.7a.78.78,0,0,1-.42.11l-2,.14a6.07,6.07,0,0,0,1,1.51,13.86,13.86,0,0,1-2.33-.85l.42,1.87-2.43-1.34-1.05,3a15.38,15.38,0,0,1-1,2.78c-2.41-2.56-3.31-6.24-.88-9.12l.13-.16a12.1,12.1,0,0,1,9-3.77c3.08.08,6.26,2.54,5.77,5.88-.35,2.42-2.3,4.65-4.21,6a10.51,10.51,0,0,1-2.7,1.48c-.23.08-2.81.62-2.82.36l-.14-3.15,2.69-.2-.39-1.19,3,.18a15.86,15.86,0,0,1-1.58-2.23q1.33-.2,2.65-.48a38.23,38.23,0,0,1-1.49-5.2l-1,3.86A.79.79,0,0,1,122.32,99.7Z"/><path class="cls-38" d="M127.53,101.27a4.14,4.14,0,0,0,2,.51,1.5,1.5,0,0,0,1.43-1.33c0-.89-.77-2.57.75-2.77a1.77,1.77,0,0,1,1.06.23,3.08,3.08,0,0,1,.81,4.4,2.87,2.87,0,0,1-2.35,1.23,6.32,6.32,0,0,1-3-.93c-.41-.22-.86-.52-.93-1"/><path class="cls-39" d="M119.49,93.84a3,3,0,0,1-5,3.33c-.85-1.28-.2-2.72,1.18-3.63S118.63,92.56,119.49,93.84Z"/><path class="cls-29" d="M118.95,93.57a3,3,0,0,1-5,3.33c-.85-1.28-.2-2.72,1.18-3.63S118.09,92.29,118.95,93.57Z"/><path class="cls-30" d="M115.11,97.85a3,3,0,0,0,2.89-.3,2.9,2.9,0,0,0,.95-4,2.35,2.35,0,0,0-.39-.45C119.17,96.6,116.27,97.6,115.11,97.85Z"/><circle class="cls-38" cx="114.97" cy="95.51" r="0.69" transform="translate(-33.67 79.85) rotate(-33.7)"/><circle class="cls-29" cx="115.28" cy="95.05" r="0.39" transform="translate(-33.37 79.94) rotate(-33.7)"/><polygon points="115.34 89.49 117.22 90.47 113.46 97.81 112.25 97.32 115.34 89.49"/><path class="cls-38" d="M130,102.39c0,.05-.13,0-.17-.07a6,6,0,0,1-.88-2.49.38.38,0,0,1,0-.2.34.34,0,0,1,.24-.16,1.37,1.37,0,0,1,.55,0,.3.3,0,0,1,.19.09.32.32,0,0,1,0,.31,2.53,2.53,0,0,1-.57.9.93.93,0,0,1,.29-.16.31.31,0,0,1,.31.07.19.19,0,0,1,0,.29l-.45.24h.44c.08,0,.17,0,.19.09a.17.17,0,0,1,0,.12,1.23,1.23,0,0,1-.66.53.85.85,0,0,1,.46.51v0"/><path class="cls-38" d="M127.27,104.76a1.46,1.46,0,0,1,.21.65c0,.15.07.45-.07.57-.38.32-.44-.52-.43-.73-.15.27-.6.92-1,.61s.41-.79.66-.82l.06,0a.78.78,0,0,1-.39-.11c-.2-.11-.33-.41-.09-.57a.51.51,0,0,1,.45,0,1.32,1.32,0,0,1,.59.39Z"/><path class="cls-38" d="M128.49,103.85a2.26,2.26,0,0,0,.21-1.64l-.25.05a2.14,2.14,0,0,1-1.47,2.5l.08.24A2.81,2.81,0,0,0,128.49,103.85Z"/><path class="cls-38" d="M129.2,105.58a1.46,1.46,0,0,1,.45.51c.08.13.25.39.17.55-.22.45-.61-.31-.69-.5,0,.31-.19,1.08-.69,1s.07-.89.28-1c0,0,0,0,0-.05a.78.78,0,0,1-.41.05c-.23,0-.46-.25-.31-.48a.51.51,0,0,1,.41-.18,1.32,1.32,0,0,1,.7.12Z"/><path class="cls-38" d="M129.64,105.2a2.23,2.23,0,0,0-.15-2.53l-.2.15a2.14,2.14,0,0,1-.35,2.88l.17.19A2.93,2.93,0,0,0,129.64,105.2Z"/><path class="cls-38" d="M136.4,99.72a1.17,1.17,0,0,0-.2-1.21l-.21.13c.26.41.32.74.18,1-.34.55-1.76.53-2.28.48l0,.25c.08,0,2,.19,2.52-.6Z"/><path class="cls-38" d="M136,98.64a3.83,3.83,0,0,1,2-.78c.13,0,.28,0,.32.16a.24.24,0,0,1,0,.16.67.67,0,0,1-.41.32,2.89,2.89,0,0,1-.8.14c-.37,0-.73,0-1.1,0"/><path class="cls-38" d="M136.65,100.88a1.32,1.32,0,0,0,0-1.09l-.24.08c.16.46.15.79,0,1-.45.46-1.83.13-2.33,0l-.08.24c.08,0,1.93.64,2.59,0A.74.74,0,0,0,136.65,100.88Z"/><path class="cls-38" d="M136.37,99.86a3.83,3.83,0,0,1,2.15-.31c.12,0,.26.1.27.23a.24.24,0,0,1-.05.16.67.67,0,0,1-.47.22,2.89,2.89,0,0,1-.81,0c-.36-.06-.72-.15-1.07-.24"/><polygon class="cls-38" points="119.97 94.22 121.87 91.59 119.22 88.87 123.23 91.87 121.07 94.84 119.97 94.22"/><polygon class="cls-38" points="124.11 94.37 127.07 93.04 126.12 89.36 128.11 93.95 124.76 95.47 124.11 94.37"/><path class="cls-38" d="M24.78,122.93a.52.52,0,0,0,.27-.1l1.16-.67a4,4,0,0,1,0,1.21,9.19,9.19,0,0,0,1-1.33l.47,1.18.84-1.64,1.7,1.27A10.2,10.2,0,0,0,31.76,124c.37-2.3-.5-4.66-2.91-5.34l-.13,0a8,8,0,0,0-6.37,1.3c-1.66,1.19-2.49,3.72-1,5.38a6.67,6.67,0,0,0,4.56,1.75,7,7,0,0,0,2-.19c.16,0,1.78-.7,1.68-.85l-1.1-1.78-1.55.89-.23-.8-1.56,1.2a10.52,10.52,0,0,0,0-1.82q-.8.39-1.63.72A25.36,25.36,0,0,0,22.5,121l2,1.75A.52.52,0,0,0,24.78,122.93Z"/><path class="cls-38" d="M22.5,125.74a2.75,2.75,0,0,1-.93,1,1,1,0,0,1-1.28-.2c-.35-.48-.53-1.69-1.44-1.24a1.18,1.18,0,0,0-.5.52,2,2,0,0,0,1.19,2.72,1.9,1.9,0,0,0,1.75-.2,4.19,4.19,0,0,0,1.27-1.61,1,1,0,0,0,.15-.89"/><path class="cls-39" d="M24.15,118.66a2,2,0,0,0,4,0c0-1-.9-1.56-2-1.56S24.14,117.64,24.15,118.66Z"/><path class="cls-29" d="M24.35,118.31a2,2,0,0,0,4,0c0-1-.9-1.56-2-1.56S24.34,117.29,24.35,118.31Z"/><path class="cls-30" d="M28,119.23a2,2,0,0,1-1.7.91,1.92,1.92,0,0,1-2-1.83,1.56,1.56,0,0,1,0-.39A2.62,2.62,0,0,0,28,119.23Z"/><circle class="cls-38" cx="27.26" cy="117.9" r="0.46" transform="translate(-0.87 0.21) rotate(-0.42)"/><circle class="cls-29" cx="26.91" cy="117.76" r="0.26" transform="translate(-0.87 0.2) rotate(-0.42)"/><polygon points="24.81 114.73 24.14 115.97 28.94 118.6 29.42 117.88 24.81 114.73"/><path class="cls-38" d="M21.56,127.27s.07-.05.07-.1a4,4,0,0,0-.44-1.69.25.25,0,0,0-.08-.1.23.23,0,0,0-.19,0,.91.91,0,0,0-.31.19.2.2,0,0,0-.07.12c0,.07.05.13.11.17a1.68,1.68,0,0,0,.65.28.62.62,0,0,0-.22,0,.21.21,0,0,0-.14.16.13.13,0,0,0,.13.15l.33,0-.24.16s-.09.07-.07.12a.11.11,0,0,0,.06.05.82.82,0,0,0,.56,0,.56.56,0,0,0-.06.46v0"/><path class="cls-38" d="M23.94,127.55a1,1,0,0,0,.13.43c0,.09.13.27.25.29.33,0,0-.45,0-.56.19.09.67.28.79,0s-.52-.28-.67-.21h0a.52.52,0,0,0,.17-.21c.07-.13,0-.35-.16-.35a.34.34,0,0,0-.25.17.88.88,0,0,0-.18.43Z"/><path class="cls-38" d="M22.93,127.51a1.5,1.5,0,0,1-.72-.82l.15-.06a1.42,1.42,0,0,0,1.74.83l0,.16A1.87,1.87,0,0,1,22.93,127.51Z"/><path class="cls-38" d="M23.19,128.72a1,1,0,0,0-.06.45c0,.1,0,.3.11.36.29.16.22-.4.19-.53.13.16.5.52.74.27s-.37-.46-.53-.46l0,0a.52.52,0,0,0,.24-.12c.12-.09.16-.31,0-.38a.34.34,0,0,0-.29.06.88.88,0,0,0-.34.33Z"/><path class="cls-38" d="M22.8,128.68a1.48,1.48,0,0,1-.86-1.44h.17a1.42,1.42,0,0,0,1.27,1.45l0,.17A1.94,1.94,0,0,1,22.8,128.68Z"/><path class="cls-38" d="M17.05,128.18c-.22-.11-.33-.36-.34-.74h.17c0,.32.1.52.26.6.39.17,1.16-.36,1.43-.58l.11.13s-1,.86-1.6.61Z"/><path class="cls-38" d="M16.89,127.43a2.54,2.54,0,0,0-1.41.33c-.07,0-.14.12-.11.21a.16.16,0,0,0,.07.08.44.44,0,0,0,.34,0,1.92,1.92,0,0,0,.49-.22c.21-.12.41-.26.61-.4"/><path class="cls-38" d="M17.35,128.91a.88.88,0,0,1-.4-.6l.16,0c.08.31.21.49.39.53.42.08,1.05-.61,1.26-.89l.13.1s-.82,1.07-1.43,1Z"/><path class="cls-38" d="M17.12,128.25a2.54,2.54,0,0,0-1.3.63c-.06.06-.11.15-.07.23a.16.16,0,0,0,.09.07.44.44,0,0,0,.34-.06,1.92,1.92,0,0,0,.43-.32c.18-.17.34-.35.5-.53"/><polygon class="cls-38" points="24.03 119.05 22.01 118.31 22.45 115.83 21.37 118.97 23.65 119.8 24.03 119.05"/><polygon class="cls-38" points="21.81 120.67 19.69 121.05 18.84 118.67 19.46 121.93 21.86 121.52 21.81 120.67"/></g></g></svg>