<svg id="Layer_1" data-name="Layer 1" xmlns="http://www.w3.org/2000/svg" xmlns:xlink="http://www.w3.org/1999/xlink" viewBox="0 0 370 350"><defs><style>.cls-1{fill:none;}.cls-2,.cls-3{fill:#27aae1;}.cls-2{opacity:0.2;}.cls-4{clip-path:url(#clip-path);}.cls-5{fill:#fff;}.cls-6{fill:#1e76ba;}.cls-7{fill:#616262;}.cls-8{fill:#949190;}.cls-9{fill:#6f6f71;}.cls-10{fill:#575858;}.cls-11{fill:#166aa9;}.cls-12{fill:#858283;}.cls-13{fill:#e5e8e7;}.cls-14{fill:#c4c2c2;}.cls-15{fill:#a7a9ac;}.cls-16{fill:#d2d1d4;}.cls-17{fill:#e63f30;}.cls-18{fill:#626467;}.cls-19{fill:#4e5050;}.cls-20{fill:#cfd0d0;}.cls-21{fill:#b0b1b1;}.cls-22{fill:#733422;}.cls-23{fill:#97462b;}.cls-24{fill:#ca643d;}.cls-25{fill:#e5e5e5;}.cls-26{fill:#b65a37;}.cls-27{fill:#9f4b33;}.cls-28{fill:#7e392a;}.cls-29{fill:#713121;}.cls-30{fill:#883e27;}.cls-31{fill:#f7ab95;}.cls-32{fill:#763725;}.cls-33{clip-path:url(#clip-path-2);}.cls-34{fill:#cf392a;}.cls-35{fill:#29a8e0;}.cls-36{fill:#babdbd;}.cls-37{fill:#f3f3f3;}.cls-38{fill:#c4c7c7;}.cls-39{fill:#b5b6b6;}</style><clipPath id="clip-path"><circle class="cls-1" cx="185" cy="175" r="133.88"/></clipPath><clipPath id="clip-path-2"><path class="cls-1" d="M76.92,187.06l1.75-9.31,19.54-23.47c4,33.81-21.3,32.78-21.3,32.78"/></clipPath></defs><title>smaArtboard 1 copy 19</title><circle class="cls-2" cx="185" cy="175" r="166.46"/><circle class="cls-3" cx="185" cy="175" r="133.88"/><g class="cls-4"><path class="cls-5" d="M360.81,307.67a9.87,9.87,0,0,0-.48-2.78,5.15,5.15,0,0,0-.71-6.31c0-.26,0-.52,0-.78a8,8,0,0,0-2-5.11,5.14,5.14,0,0,0,.86-8.14l-6.24-5.91a4.74,4.74,0,0,1-1.85-1.75L344.16,271a5.15,5.15,0,0,0-8.67,3.17l-.26,2.34-22-22.09c3.4-3.5,5.75-7.81,3.58-12.46l-.08-.16a7.82,7.82,0,0,0-4.46-4q.05-.48.08-1t.05-1.16c0-.18,0-.36,0-.54,0-.45,0-.89,0-1.33,0,0,0,0,0,0v0h0v0l0-.26v-.06c0-.13,0-.25,0-.28v-.29c0-.11,0-.22,0-.32s0-.27,0-.37l-.05-.32v0l-.06-.35v0c0-.21-.09-.41-.14-.62-.08-.39-.16-.78-.26-1.17s-.17-.57-.25-.85-.17-.61-.27-.91-.25-.67-.38-1-.17-.48-.27-.71-.33-.72-.5-1.07c-.09-.19-.18-.39-.27-.59-.19-.37-.4-.72-.6-1.08-.1-.17-.19-.35-.29-.52-.21-.35-.44-.68-.67-1-.11-.17-.22-.34-.33-.51s-.27-.35-.4-.53l.65-.5a5.15,5.15,0,0,0,0-8.1L300.26,206a5.15,5.15,0,0,0-5.15-.73c-5.13,2.1-11.29,4.58-18.15,7.34a8.75,8.75,0,0,1-1.35-3.34,8.66,8.66,0,0,1-.13-1.15c0-.26,0-.52,0-.78a10.78,10.78,0,0,1,.2-1.75c0-.09,0-.19.07-.28.07-.32.15-.63.25-.95,0-.14.1-.28.15-.42s.19-.52.3-.79.14-.33.22-.49.23-.47.35-.7l.28-.51c.13-.22.27-.44.41-.66l.32-.48c.17-.23.34-.46.53-.68l.31-.39c.29-.33.59-.66.9-1l0,0h0l.08-.09a5.28,5.28,0,0,0,.58-.7c.07-.1.12-.21.19-.32a5.39,5.39,0,0,0,.31-.58c.06-.13.1-.27.15-.41s.08-.2.11-.3h0c0-.09,0-.19.06-.28s.05-.29.08-.43,0-.1,0-.15,0-.1,0-.16v0h0s0,0,0,0,0-.25,0-.37,0-.08,0-.12,0-.05,0-.08a5.11,5.11,0,0,0-.25-1.45,9.6,9.6,0,0,0-.45-1.14l-.18-.38v0l0-.09-.09-.17a19.79,19.79,0,0,0-1.33-2.19l-.18-.25c-.28-.4-.57-.8-.9-1.22l0,0c-.33-.42-.69-.86-1.07-1.3l-.28-.33c-.38-.44-.77-.88-1.19-1.34l0,0c-.43-.47-.9-1-1.38-1.44l-.36-.37-.66-.66-.88-.86c-.43-.41-.87-.81-1.32-1.2l-.59-.49-.76-.62-.24-.2-.13-.1h0l-.07-.06-.36-.25c-.34-.24-.68-.48-1-.71l-.64-.43c-.52-.33-1-.64-1.57-.93l-.68-.36q-.58-.3-1.17-.59l-.66-.31c-.59-.27-1.19-.52-1.8-.75l-.23-.08c-.57-.21-1.14-.4-1.72-.58l-.58-.17-.54-.16c1.77-4.74,2.24-10.78-.31-17.81L258,155a5.15,5.15,0,0,0,2.16-6.06,41.75,41.75,0,0,0-7.52-12.29,35.33,35.33,0,0,0,6.93-17.05h0c1.11-8.62-1-16.65-5.66-22a17.59,17.59,0,0,0-10.59-5.93l-11.47-2.16c1.57-4.89,1.92-11.21-.74-19.15-6.42-19.2-20.5-32.19-39.65-36.57C168.77,28.54,143.06,36.5,126,54a114,114,0,0,0-26.11,42.6c-.29.86-.62,1.78-1,2.73-.43,1.19-.87,2.44-1.31,3.73l-1.84-.35-8.56-1.62c-.37-.08-.8-.17-1.27-.24l-.22,0h0l-.25,0h-.06l-.6-.06h-.11c-.34,0-.68,0-1-.05h0c-10,0-19.25,8.29-23.06,19.93h0l-.13.41a36.8,36.8,0,0,0-1.21,5.07,11.13,11.13,0,0,0-.59,3c-10.17,2.26-18.82,13-20.54,26.26-.1.76-.16,1.51-.21,2.26,0,.15,0,.31,0,.46,0,.73-.06,1.45-.05,2.17,0,.09,0,.17,0,.26,0,.64,0,1.28.09,1.9,0,.16,0,.31,0,.47.06.67.14,1.33.24,2,0,.14.05.28.08.43q.14.8.32,1.58c0,.17.08.35.12.52q.22.88.49,1.74c.07.2.14.4.21.6q.2.59.43,1.16c.09.22.18.45.27.67q.31.71.66,1.4c.14.27.28.53.43.79l.41.7c.21.34.42.68.65,1s.43.62.66.92.39.48.59.71l.25.31.22.23c.26.28.52.56.79.83s.39.37.59.55.47.43.72.63.59.46.9.67.34.25.51.37A17.14,17.14,0,0,0,52.94,183c.16,0,.32.1.49.13l.29.05.17,0L63.16,185a15.79,15.79,0,0,0-4,6.22,24.14,24.14,0,0,0-.88,9.38,16.21,16.21,0,0,1-.31,5.51,6.15,6.15,0,0,1-5,3.66,8.61,8.61,0,0,0,3.26-4.14c.65-1.88,1.1-5.63-3.26-9.67s-8.23-3.48-10.13-2.77a8.43,8.43,0,0,0-1.52.77,5.15,5.15,0,0,0-8.25-1.4l-8.25,8.16a5.15,5.15,0,0,0,.48,7.75,8.43,8.43,0,0,0-1,1.51c-.89,1.83-1.83,5.6,1.78,10.35,2.44,3.2,5,4.2,6.92,4.36a7.48,7.48,0,0,0,2.39-.18,9.27,9.27,0,0,0,5.3-3.95,64.77,64.77,0,0,0,5.67,6.65,43.29,43.29,0,0,0,9.6,7.93,27.29,27.29,0,0,0,11.11,3.39,28.55,28.55,0,0,0,22.14-7.67c.33-.32.65-.67,1-1a41.36,41.36,0,0,0,11.55,11.73,5.15,5.15,0,0,0,1,.48q-1.9,1.65-3.64,3.39c-6.68,6.7-13.35,18-12,29.6A23.69,23.69,0,0,0,98.55,292.8a24.16,24.16,0,0,0,10.89,3.74l.28,0h0a27,27,0,0,0,12.44-2.22,6.86,6.86,0,0,0,1.22.68,7.34,7.34,0,0,0,2.29.57,9.72,9.72,0,0,0,6-1.64L132,305l127,10.83-15.51-53.31c1,.58,2.08,1.14,3.15,1.65a26.2,26.2,0,0,0,20.36,15l.74.08c6.42.55,13.31-2,18.87-5.78a20.93,20.93,0,0,0-1.65,4.35c-.49,2-1.05,5.86.78,8.86a7,7,0,0,0,5.37,3.33c3.89.33,6.7-2.44,8.53-4.87l.22.55c.92,2.25,2.45,6,6.15,7.62a8.48,8.48,0,0,0,2.63.69h0a6.7,6.7,0,0,0,5.7-2.28,7.56,7.56,0,0,0,1.28-2.12l3.54,3.27-1.33.22a5.15,5.15,0,0,0-2.7,8.83l4.48,4.24a5.14,5.14,0,0,0,1.59,3.4l6,5.68a5.14,5.14,0,0,0,7.83-.9c.17.19.34.38.53.55a8,8,0,0,0,4.86,2.18,8.14,8.14,0,0,0,2.1-.1,5,5,0,0,0,5.8.4,9.79,9.79,0,0,0,1.81.33,10,10,0,0,0,1.12,0,9.84,9.84,0,0,0,9.57-10.11ZM50.9,169.82a12.26,12.26,0,0,1-1.14-1.88l0-.08a16,16,0,0,1-1.08-3.13l-.08-.35q-.16-.72-.26-1.47c0-.08,0-.16,0-.25-.07-.57-.12-1.15-.15-1.74,0-.15,0-.3,0-.46q0-.68,0-1.38c0-.18,0-.37,0-.55,0-.58.08-1.17.15-1.76v-.09c.9-6.94,4.56-13.07,9-16Zm124.72-15c-3.23.22-7-2.66-9.68-5.24a5.15,5.15,0,0,0-7.82,6.64,39.72,39.72,0,0,0,10.34,10.32h-.23c-7.92-.68-14.26-6-17-14.22-3.05-9.28-2.43-22.89,1.26-30.83,7.68.72,15.5,2.22,23.06,3.68l.95.18c1,1.11,1.9,2.27,2.79,3.48a36.1,36.1,0,0,0-4.47,13.37A32.33,32.33,0,0,0,175.62,154.84Zm9.52-11.66c.12-.87.29-1.72.5-2.55l.12.35c.15.46.27.9.39,1.35A5.14,5.14,0,0,0,185.14,143.17ZM208.48,91.6l-.39.08-.46.07q-.5.07-1,.1l-.44,0c-.37,0-.75,0-1.14,0h-.47q-.62,0-1.26-.11l-.29,0c-.58-.08-1.18-.19-1.79-.31l-.43-.1-.12,0-.14,0c-.55-.13-1.11-.26-1.69-.44-1.09-.32-2.17-.68-3.34-1.12l-.26-.08-.38-.11-.2,0-.45-.07H194a5.14,5.14,0,0,0-.63,0h-.18a5.13,5.13,0,0,0-.76.13l-.12,0a5.14,5.14,0,0,0-.63.22l-.18.08-.36.18-.34.2c-.41.27-.81.52-1.21.75a17,17,0,0,1-2.73,1.3l-.06,0c-.45.16-.91.3-1.38.43l-.5.13-1.08.24-.52.1c-.49.08-1,.16-1.51.21h-.1c-.57.06-1.15.09-1.75.12h-.42c-.5,0-1,0-1.53,0h-.37a47.55,47.55,0,0,1-6.62-.73h0l-.8-.18-1.64-.37c-.71-.16-1.47-.31-2.2-.42h0l-.31,0h-.5l-.36,0-.3,0-.4.08-.19,0-.06,0a5.16,5.16,0,0,0-.51.17l-.09,0h0l-.17.07-.17.07-.37.15-.82.33-1.3.53-.85.33-1.23.46-.92.33-1.13.39-.87.29-1.25.39-.91.27L153,96l-1.2.32-.69.17-.28.06-.24.05c-2.45.26-4.84.62-7.15,1.1a46,46,0,0,1-8-.08h0a11.26,11.26,0,0,1-1.12-.18l-.38-.09-.8-.22L132.6,97q-.47-.16-.93-.37l-.22-.09c-.38-.17-.75-.37-1.11-.58l-.08,0c12.19-9.39,24.57-14.82,37-16.18,13.71-1.5,24.94.11,33.47,4.79a31.09,31.09,0,0,1,8.33,6.69Zm13.08-4c-.39,0-.78-.07-1.17-.07s-.72,0-1.08,0a41.52,41.52,0,0,0-13.63-12.12,55.64,55.64,0,0,0-22.18-6.33,90.16,90.16,0,0,0-17.37.34c-19.51,2.14-38.59,12.7-56.83,31.42l.33-1a103.64,103.64,0,0,1,23.74-38.72c14.39-14.77,36.83-21.77,55.82-17.43,15.5,3.55,26.93,14.13,32.17,29.79C223.19,79,223.25,83.73,221.57,87.62ZM233,213.31a16.71,16.71,0,0,0-.41-2l2.18,2.06A9.54,9.54,0,0,0,233,213.31ZM244.38,129a5.15,5.15,0,0,0-1.08-6.18l-.19-.17L246.66,105c2.36,3.16,3.39,8,2.71,13.27h0a25.71,25.71,0,0,1-4.28,11.27C244.85,129.35,244.63,129.16,244.38,129Zm-1.61,89.61a22.93,22.93,0,0,0-2.35-2.42l.14,0,2.55,2.39Zm22.08,32.14a17.65,17.65,0,0,0,1.48-6.57l7.58,7A46.46,46.46,0,0,1,264.85,250.73Z"/><path class="cls-6" d="M110.09,291.42a18.92,18.92,0,0,1-8.8-3,18.69,18.69,0,0,1-9.1-14c-1.11-9.8,5-19.8,10.57-25.38,7.93-8,18.73-14.39,34-20.24l2.88,7.5c-14.16,5.43-24.07,11.28-31.18,18.41-4.65,4.67-9,12.29-8.27,18.81a10.65,10.65,0,0,0,5.4,8.1c7.17,4.52,14.84-.1,24.14-8.42l5.36,6c-5.1,4.56-14.51,13-25,12.21"/><path class="cls-6" d="M267,264.27a49,49,0,0,1-22.69-7.21c-25.31-15.77-28.85-50.82-29-52.3l8-.74-4,.37,4-.38c0,.33,3.35,32.63,25.27,46.25,13,8.1,30.28,8.16,51.26.17l2.85,7.51c-13.13,5-25.07,7.1-35.71,6.33"/><polygon class="cls-7" points="229.8 313.36 245.18 310.75 230.31 300.18 182.2 309.3 229.8 313.36"/><polygon class="cls-6" points="253.48 315.38 220.42 201.76 205.14 205.22 232.84 313.62 253.48 315.38"/><polygon class="cls-8" points="204.86 311.23 231.62 306.69 211.37 211.95 138.22 222.82 152.5 306.77 204.86 311.23"/><polygon class="cls-9" points="176.87 308.84 187.99 309.79 202.82 287.24 189.81 238.85 187.02 228.48 140.03 233.46 149.44 288.81 176.87 308.84"/><polygon class="cls-7" points="202.82 287.24 224.99 307.92 226.61 282.61 211.37 211.95 184.78 220.16 202.82 287.24"/><polygon class="cls-10" points="231.1 306.78 231.1 306.78 224.99 307.85 225 307.81 231.1 306.78"/><path class="cls-11" d="M231.1,306.78h0l.53-.09Zm-4.49-24.17,0,.48,5,23.61-12.71-67.38c-.54-.46-.93-.81-1.12-1s-.63-.6-.93-.91Z"/><polygon class="cls-12" points="226.57 283.08 231.62 306.69 231.1 306.78 224.99 307.81 226.57 283.08"/><polygon class="cls-10" points="224.89 307.83 224.92 307.86 209.44 310.56 209.42 310.46 224.89 307.83"/><polygon class="cls-12" points="204.28 288.61 224.89 307.83 209.42 310.46 204.28 288.61"/><path class="cls-10" d="M210,225.48a27.13,27.13,0,0,0,6.83,11.94l9.74,45.18,0,.48L225,307.81v0h-.07l0,0-20.61-19.22-8.11-34.52a7.46,7.46,0,0,0,3.45,1.16,7.72,7.72,0,0,0,7.57-3.95c2.4-4.71-1.43-9.94-6.18-10.94a6.22,6.22,0,0,0,.75.11,7,7,0,0,0,5.68-11.95l-.29-.29q1.49-1.31,2.89-2.75"/><path class="cls-13" d="M157.14,222.49a13.84,13.84,0,0,1,15.94,2.6c2.16-5.43,7.4-9,12.72-11.44,5-2.27,10.68-3.84,15.92-2.23s9.44,7.42,7.62,12.59c-1,2.75-5,4.71-6.67,2.3.08.12,2,.35,2.32.5a7.08,7.08,0,0,1-4,13.55c4.75,1,8.59,6.23,6.19,10.95-2.31,4.54-9.16,5.4-12.48,1.5,3.68,4.32-3.54,8.76-7.44,7-4.22-1.85-5.15-7.73-4.25-11.75-1,4.36-3.22,12.07-9.1,11.15-6.31-1-7-10.86-4.86-15.46a15.79,15.79,0,0,1-5.48,6.38,5,5,0,0,1-7.14-1.63c-1.54-2.58-1.77-10.92,1.79-12.37a13.45,13.45,0,0,1-5.77,1.39c-2-.13-4.06-1.42-4.39-3.39-.52-3.1,3.1-5.1,6.08-6.11Z"/><path class="cls-14" d="M186.65,246.83a9.57,9.57,0,0,1-6.46,2,7.68,7.68,0,0,1-3-.84,7.46,7.46,0,0,1-3.45-4.09,10.66,10.66,0,0,1-1.54.22,15.41,15.41,0,0,1-11-3.93,6.1,6.1,0,0,1-1.58-2.38,4.83,4.83,0,0,1,2.14-5.29,7.84,7.84,0,0,1,5.59-.94l-.19,1.13a6.7,6.7,0,0,0-4.77.76,3.72,3.72,0,0,0-1.67,4,4.81,4.81,0,0,0,1.3,1.91A14.35,14.35,0,0,0,172.1,243a9.37,9.37,0,0,0,1.31-.18,7.38,7.38,0,0,1,.66-5,3.2,3.2,0,0,1,1.59-1.59,2.08,2.08,0,0,1,2.58.66,3.87,3.87,0,0,1,.06,4.22,7.31,7.31,0,0,1-3.46,2.48A6.27,6.27,0,0,0,177.7,247a7.85,7.85,0,0,0,8.25-1,8.16,8.16,0,0,0,2.24-2.71A6.65,6.65,0,0,1,184,239a2.81,2.81,0,0,1,.63-2.72,2.62,2.62,0,0,1,2.29-.66,3.83,3.83,0,0,1,2.84,2.73,6.48,6.48,0,0,1,0,4.17,7,7,0,0,0,8.06-4,5.34,5.34,0,0,0,.35-2.4,9.27,9.27,0,0,1-2.88-.78c-1.22-.55-1.47-1.28-1.5-1.67a1.49,1.49,0,0,1,.68-1.35,2.55,2.55,0,0,1,2.55-.07,4.12,4.12,0,0,1,2.13,2.75,3.23,3.23,0,0,0,2.86-1.52c1.46-2.5-.35-6.69-2.16-8.63a5.17,5.17,0,0,0-4.78-1.74l-.27-1.11a6.31,6.31,0,0,1,5.89,2.07c2,2.16,4.14,6.84,2.31,10a4.35,4.35,0,0,1-3.67,2.07,6.31,6.31,0,0,1-.46,2.82,8.08,8.08,0,0,1-9.55,4.59,9.41,9.41,0,0,1-2.66,3.26m-9.33-9.27a.88.88,0,0,0-.66-.39,1.35,1.35,0,0,0-.59.11,2.14,2.14,0,0,0-1,1.06,6.21,6.21,0,0,0-.56,4.12,6.18,6.18,0,0,0,2.86-2.07,2.73,2.73,0,0,0-.06-2.84m9.23-.84a1.44,1.44,0,0,0-1.11.37,1.69,1.69,0,0,0-.33,1.61,5.49,5.49,0,0,0,3.52,3.47,5.39,5.39,0,0,0,0-3.45,2.83,2.83,0,0,0-2-2Zm10-3.41a1.84,1.84,0,0,0-.67-.19,1.16,1.16,0,0,0-.73.17.36.36,0,0,0-.19.3c0,.18.24.46.83.73a8.63,8.63,0,0,0,2.16.63,2.81,2.81,0,0,0-1.4-1.63"/><path class="cls-15" d="M194.69,271.18a4.22,4.22,0,1,1-3.05-5.12,4.23,4.23,0,0,1,3.05,5.12h0m-3.47-3.49a2.7,2.7,0,0,0-.44-.07,2.53,2.53,0,1,0,.44.07"/><path class="cls-15" d="M194.71,285.85a4.19,4.19,0,0,1-2.46.58,4.3,4.3,0,0,1-.74-.12,4.22,4.22,0,1,1,3.19-.47m-1.54-6.08a2.42,2.42,0,0,0-.44-.07,2.53,2.53,0,0,0-2.36,3.82,2.53,2.53,0,0,0,4.63-.67h0a2.53,2.53,0,0,0-1.83-3.07"/><polygon class="cls-6" points="162.66 307.63 151.16 229.41 134.84 225.16 137.13 305.46 162.66 307.63"/><path class="cls-13" d="M78.87,183.13C72.84,184.55,66,187,64,192.89c-1.65,4.73.45,10.14-1.19,14.88-1.47,4.26-6,7.1-10.47,7.2a15.33,15.33,0,0,1-11.76-5.73c1.74,5.54,5.53,10.18,9.55,14.37a38.14,38.14,0,0,0,8.43,7,23.39,23.39,0,0,0,27.1-3.49,32.33,32.33,0,0,0,7.17-11.56,55.24,55.24,0,0,0,3.29-12.75Z"/><path class="cls-16" d="M234.08,115.07c1.59-12.31-4.55-22.33-13.71-22.37s-17.88,9.91-19.47,22.22,4.55,22.32,13.71,22.37,17.88-9.91,19.47-22.22"/><polygon class="cls-16" points="221.75 92.79 243.04 96.81 234.15 141.1 212.09 137.01 221.75 92.79"/><path class="cls-13" d="M254.48,118.92c1.59-12.31-4.55-22.33-13.71-22.37s-17.88,9.9-19.47,22.22,4.55,22.33,13.71,22.37,17.88-9.91,19.47-22.22"/><path class="cls-16" d="M213.15,143c1.59-12.31-4.55-22.33-13.71-22.37s-17.88,9.91-19.47,22.22,4.55,22.33,13.71,22.37,17.88-9.91,19.47-22.22"/><polygon class="cls-16" points="200.82 120.74 222.11 124.76 213.22 169.05 191.16 164.96 200.82 120.74"/><path class="cls-13" d="M233.55,146.86c1.59-12.31-4.55-22.33-13.71-22.37s-17.88,9.9-19.47,22.22,4.55,22.32,13.71,22.37,17.88-9.91,19.47-22.22"/><path class="cls-17" d="M295.41,258.47c-2.52,1.51-6.86,4.2-6.72,7.6.25,6.55,8.47-.74,10.94-2.73a78.42,78.42,0,0,0-7,9.85,23.44,23.44,0,0,0-2.68,5.91c-.37,1.53-.87,5.26,1.32,5.78s4.55-3.18,5.53-4.69a21.53,21.53,0,0,0,3.05-14.92c.67,3.77,1.42,7.53,2.4,11.23a55.69,55.69,0,0,0,2.23,6.94c.71,1.74,1.67,4.36,3.57,5.18,5.34,2.31,2.51-9.9,2.07-11.82-1.72-7.5-4.74-12.62-8.91-19l-.29-.45c3.19-2.07,13.48-8.38,11.22-13.24-3.15-6.21-13.54,7.9-13.8,12.07Z"/><path class="cls-18" d="M169,243.93c-.19.4-.4.79-.62,1.17l.21,0a9.85,9.85,0,0,1,.42-1.13h0m-12.75-5.6q-1.56-.09-3.08-.22l-.73-.06,1.29,8.77,2-.14a14.7,14.7,0,0,1,.49-8.34"/><path class="cls-19" d="M209.54,223.34c.14.72.3,1.44.5,2.15q-1.4,1.43-2.89,2.75a7.34,7.34,0,0,0-1.31-1,5.51,5.51,0,0,0,3.5-3.23c.08-.23.15-.45.2-.68"/><path class="cls-20" d="M173.72,243.89a10.58,10.58,0,0,1-1.54.22,12.82,12.82,0,0,1-2,0q-.61-.05-1.22-.16a9.77,9.77,0,0,0-.42,1.13q2.57-.45,5.19-1l0-.13m-13.86-5.41q-1.84-.05-3.62-.16a14.68,14.68,0,0,0-.49,8.34c3.91-.3,8.18-.79,12.62-1.57.22-.38.43-.77.62-1.17a15,15,0,0,1-7.84-3.75,6.92,6.92,0,0,1-1.29-1.69m14.16-.6a97.42,97.42,0,0,1-12.79.63,6.92,6.92,0,0,0,.74.85,14.31,14.31,0,0,0,8.37,3.58,11.37,11.37,0,0,0,1.76,0,9.26,9.26,0,0,0,1.31-.18,7.4,7.4,0,0,1,.61-4.9m3.2-.44-1.71.25a3.42,3.42,0,0,0-.44.65,6.22,6.22,0,0,0-.56,4.12,6.16,6.16,0,0,0,2.86-2.06,2.73,2.73,0,0,0-.06-2.84l-.1-.11m9.33-.73a1.45,1.45,0,0,0-1.11.37,1.69,1.69,0,0,0-.33,1.61,4.27,4.27,0,0,0,.93,1.72c.93-.34,1.87-.71,2.8-1.09a4.76,4.76,0,0,0-.17-.62,2.83,2.83,0,0,0-2-2l-.17,0m9.3-3.6h0a1.16,1.16,0,0,0-.73.17.36.36,0,0,0-.19.3c0,.18.24.46.83.73a8.65,8.65,0,0,0,2.06.62l.07,0a2.79,2.79,0,0,0-1.38-1.58,1.84,1.84,0,0,0-.65-.19m-1.83-.36a70.71,70.71,0,0,1-15.56,4.48,3.91,3.91,0,0,1-.18,3.85,7.31,7.31,0,0,1-3.46,2.48l.07.18a97.19,97.19,0,0,0,10-2.92A5.19,5.19,0,0,1,184,239a2.81,2.81,0,0,1,.63-2.72,2.59,2.59,0,0,1,2-.69l.26,0a3.83,3.83,0,0,1,2.84,2.73c.06.18.11.36.16.54,2.18-.93,4.33-2,6.42-3.12a9.7,9.7,0,0,1-1.06-.4c-1.22-.55-1.46-1.28-1.5-1.67a1.4,1.4,0,0,1,.26-.93m8-4.11a59.14,59.14,0,0,1-6.22,3.32h.13a3,3,0,0,1,1.05.29,3.92,3.92,0,0,1,1.88,2q1.84-1.12,3.61-2.38a7.67,7.67,0,0,0-.46-3.26m7.48-5.5-.67.56h0A56.24,56.24,0,0,1,203,228a9.74,9.74,0,0,1,.64,3q1.79-1.34,3.48-2.83a7.43,7.43,0,0,0-1.31-1,5.51,5.51,0,0,0,3.5-3.23c.08-.22.14-.45.2-.68l0-.18"/><path class="cls-21" d="M178.46,237.24l-1.25.2.1.11a2.73,2.73,0,0,1,.06,2.84,6.17,6.17,0,0,1-2.86,2.07,6.2,6.2,0,0,1,.56-4.12,3.39,3.39,0,0,1,.44-.65l-1.49.19a7.4,7.4,0,0,0-.61,4.9,9.59,9.59,0,0,1-1.31.18,11.19,11.19,0,0,1-1.76,0,14.32,14.32,0,0,1-8.37-3.58,7.17,7.17,0,0,1-.74-.85l-1.36,0a7,7,0,0,0,1.29,1.69,15,15,0,0,0,7.84,3.75h0c.41.07.82.12,1.22.15a12.66,12.66,0,0,0,2,0,10.56,10.56,0,0,0,1.54-.22l0,.13,1.13-.26-.07-.18a7.31,7.31,0,0,0,3.46-2.48,3.9,3.9,0,0,0,.18-3.85m8.19-1.66a2.59,2.59,0,0,0-2,.69A2.81,2.81,0,0,0,184,239a5.21,5.21,0,0,0,.91,1.84l1.13-.41a4.28,4.28,0,0,1-.93-1.72,1.69,1.69,0,0,1,.33-1.61,1.45,1.45,0,0,1,1.11-.37l.17,0a2.83,2.83,0,0,1,2,2,4.57,4.57,0,0,1,.17.62l1.08-.45c0-.18-.1-.36-.16-.54a3.84,3.84,0,0,0-2.84-2.73l-.26,0m9.28-3.6h-.13c-.59.27-1.19.53-1.78.79a1.4,1.4,0,0,0-.26.93c0,.39.28,1.12,1.5,1.67a9,9,0,0,0,1.06.4l1.47-.83a8.61,8.61,0,0,1-2.06-.62c-.59-.26-.81-.55-.83-.73a.35.35,0,0,1,.18-.3,1.15,1.15,0,0,1,.73-.17h0a1.84,1.84,0,0,1,.65.18,2.78,2.78,0,0,1,1.38,1.58l1-.59a3.91,3.91,0,0,0-1.88-2,3,3,0,0,0-1.05-.29m7.09-4-1,.63a7.64,7.64,0,0,1,.46,3.26l1.19-.87a9.69,9.69,0,0,0-.64-3"/><path class="cls-11" d="M135.22,235.28A131.27,131.27,0,0,0,152.43,238l1.29,8.77a130,130,0,0,1-18,0l-.25,0-.08-3.67q2.15.31,4.45.5c1.6.14,3.26.23,5,.28a41.62,41.62,0,0,1-9.48-3.95Z"/><polygon class="cls-22" points="344.1 294.51 349.46 288.85 354.95 288.31 348.71 282.39 348.19 286.96 341.81 293.31 344.1 294.51"/><polygon class="cls-22" points="336.01 286.85 341.38 281.19 346.86 280.64 340.62 274.73 340.11 279.3 333.72 285.64 336.01 286.85"/><polygon class="cls-22" points="336.12 300.81 330.97 306.25 330.73 311.55 324.73 305.86 329.09 305.13 334.85 298.67 336.12 300.81"/><polygon class="cls-22" points="330.06 293.17 324.9 298.61 324.66 303.9 318.66 298.22 323.02 297.49 328.78 291.02 330.06 293.17"/><path class="cls-23" d="M269.71,201.52a18.68,18.68,0,0,0-5.9,13.77c.21,5,3.23,9.87,7.84,11.69a12,12,0,0,0,13.66-4,20.9,20.9,0,0,1,15.19,16.36c1.4,7.84-3.59,18.3-10,23.47-4.81,6.68-15,12.23-22.89,11.25a20.9,20.9,0,0,1-17.16-14.28A12,12,0,0,0,253.66,246c-2.07-4.51-7-7.26-12.1-7.2a18.68,18.68,0,0,0-13.43,6.64c-.9,1-9.26-6.09-10.33-7.08-12.66-11.77-10.95-31.86.68-43.7,11.19-12.25,31.16-15,43.6-3,1.05,1,8.61,9,7.63,9.93"/><path class="cls-24" d="M276.24,194.54a18.68,18.68,0,0,0-5.9,13.77c.21,5,3.23,9.87,7.84,11.69a12,12,0,0,0,13.66-4A20.9,20.9,0,0,1,307,232.41c1.4,7.84-3.59,18.3-10,23.47-4.81,6.68-15,12.23-22.89,11.25A20.91,20.91,0,0,1,257,252.85,12,12,0,0,0,260.2,239c-2.08-4.51-7-7.26-12.1-7.2a18.67,18.67,0,0,0-13.43,6.64c-.9,1-9.27-6.09-10.33-7.08-12.65-11.77-10.94-31.86.68-43.7,11.2-12.25,31.16-15,43.6-3,1,1,8.61,9,7.63,9.93"/><path class="cls-25" d="M307.23,234.07h0Zm0,0h0m0,0h0m0,0h0m0,0a0,0,0,0,0,0,0,0,0,0,0,1,0,0m0,0s0,0,0,0,0,0,0,0m0,0v0m0,0v0m0,0a.06.06,0,0,0,0,0,.09.09,0,0,1,0,0m0,0v0m0-.05v0m0-.05v0m0,0v0m0-.2c0,.06,0,.12,0,.18s0-.12,0-.18m0,0v0m0,0v0m0,0v0m0,0v0m0,0v0m0,0v0m0,0a.29.29,0,0,0,0,0,.29.29,0,0,1,0,0m0,0v0m0,0v0m0,0v0m0,0v0m0,0v0m0,0a.23.23,0,0,1,0,0,.23.23,0,0,0,0,0m0,0v0m0,0v0m0,0v0m0,0a.17.17,0,0,1,0,0v0m0,0v0m-36.66-26.1a15.3,15.3,0,0,0,0,2c.21,5,3.23,9.87,7.84,11.69a10.84,10.84,0,0,0,3.06.71A12,12,0,0,0,291.84,216,20.9,20.9,0,0,1,307,232.41v0A20.9,20.9,0,0,0,291.84,216a12,12,0,0,1-10.59,4.67,10.84,10.84,0,0,1-3.06-.71c-4.62-1.83-7.63-6.64-7.84-11.69a15.3,15.3,0,0,1,0-2m-4.23-23.86a27.64,27.64,0,0,1,2.45,2.11c1,1,7.86,8.18,7.72,9.73.14-1.55-6.72-8.77-7.72-9.73a27.82,27.82,0,0,0-2.45-2.11m-.06,0,0,0,0,0m-.06,0h0m-.06,0h0"/><path class="cls-26" d="M233.75,192.1c0,.69-.12,1.38-.23,2.06l.29.28c0-1.39-.06-2.34-.06-2.34m18-15.08q-1-.09-2.1-.11a13.55,13.55,0,0,1-1.78,1.69,5,5,0,0,0,.09-1.67c-.52,0-1,.06-1.57.1a69.37,69.37,0,0,1-8.32,21.42l33.66,31.88,5-5.27L302,250.43c3.39-4.88,5.59-11.06,5.24-16.36h0v0h0s0,0,0,0h0a.16.16,0,0,0,0,0s0,0,0,0v0a0,0,0,0,1,0,0v0h0v0a.07.07,0,0,1,0,0v-.07a.14.14,0,0,0,0,0v-.15a.06.06,0,0,1,0,0v0a.07.07,0,0,0,0,0l0-.18a0,0,0,0,0,0,0v0h0v0h0a.4.4,0,0,0,0,0h0v0a0,0,0,0,0,0,0v0h0v0h0a.29.29,0,0,0,0,0h0v-.08h0v0h0v0h0v-.12h0v0h0v0h0v0h0v0h0v0A20.9,20.9,0,0,0,291.84,216a12,12,0,0,1-10.59,4.67,10.84,10.84,0,0,1-3.06-.71c-4.62-1.83-7.63-6.64-7.84-11.69a15.06,15.06,0,0,1,0-2,19.2,19.2,0,0,1,5.85-11.82.3.3,0,0,0,.09-.2c.14-1.55-6.72-8.77-7.72-9.73a27.64,27.64,0,0,0-2.45-2.11l0,0,0,0,0,0h0l0,0h0A27.5,27.5,0,0,0,251.74,177"/><polygon class="cls-27" points="223.84 181.2 218.81 186.51 230.28 202.06 240 191.8 223.84 181.2"/><rect class="cls-28" x="234.15" y="196.48" width="14.13" height="9.21" transform="translate(-70.65 237.96) rotate(-46.56)"/><polygon class="cls-28" points="249.51 200.82 249.42 199.12 233.02 203.05 233.1 204.74 249.51 200.82"/><rect class="cls-27" x="234.24" y="198.17" width="14.13" height="9.21" transform="translate(-71.86 238.53) rotate(-46.55)"/><path class="cls-29" d="M211.5,205a11.7,11.7,0,1,1,.59,21.58A28,28,0,0,1,211.5,205"/><path class="cls-23" d="M339.85,305l-74.07-68.37,11-11.56L348,296.57a5.85,5.85,0,0,1-8.11,8.43"/><path class="cls-25" d="M345,293.58l3,3,0,0,0,0Z"/><path class="cls-25" d="M348.75,297.57h0m0,0v0m0,0,0,0,0,0m-.7-.88a6,6,0,0,1,.7.88,6,6,0,0,0-.7-.88m0,0,0,0,0,0"/><path class="cls-30" d="M276.72,225.07,335.4,284l1.71,1.72,6.15,6.17,1.72,1.73,3,3,0,0h0l0,0h0a5.9,5.9,0,0,1,.7.88h0l0,0h0v0h0a5.85,5.85,0,0,1,.47,5.34l-75.71-71.7a13.6,13.6,0,0,0-1.47-1.2Z"/><rect class="cls-22" x="250.71" y="216.3" width="16.22" height="6.46" transform="translate(-78.55 256.48) rotate(-46.55)"/><rect class="cls-31" x="290.8" y="183.38" width="0.39" height="145.55" transform="translate(-94.93 292.99) rotate(-46.81)"/><rect class="cls-31" x="292.79" y="181.27" width="0.4" height="145.55" transform="matrix(0.68, -0.73, 0.73, 0.68, -92.76, 293.78)"/><rect class="cls-31" x="294.77" y="179.19" width="0.4" height="145.55" transform="translate(-90.88 292.14) rotate(-46.45)"/><polygon class="cls-31" points="349.28 300.45 244.02 199.6 244.29 199.31 349.55 300.16 349.28 300.45"/><path class="cls-24" d="M238.61,205.63a1,1,0,1,1-1.57-.13,1.13,1.13,0,0,1,1.57.13"/><path class="cls-24" d="M240.71,203.41a1,1,0,1,1-1.57-.13,1.13,1.13,0,0,1,1.57.13"/><path class="cls-24" d="M242.9,201.1a1,1,0,1,1-1.57-.13,1.13,1.13,0,0,1,1.57.13"/><path class="cls-24" d="M245,198.89a1,1,0,1,1-1.57-.13,1.13,1.13,0,0,1,1.57.13"/><path class="cls-32" d="M354.19,304.54a4.69,4.69,0,1,1-6.63.18,4.69,4.69,0,0,1,6.63-.18"/><path class="cls-32" d="M343.11,307a2.92,2.92,0,1,1-4.13.11,2.92,2.92,0,0,1,4.13-.11"/><path class="cls-32" d="M353.58,295.91a2.92,2.92,0,1,1-4.13.11,2.92,2.92,0,0,1,4.13-.11"/><rect class="cls-32" x="340.12" y="300.03" width="14.9" height="8.95" transform="translate(-112.52 347.45) rotate(-46.55)"/><path class="cls-23" d="M244.1,228.52a3.93,3.93,0,0,1-1.64-.5,10.21,10.21,0,0,1-2.77-2.63c-.24-.29-.47-.58-.71-.84s-.53-.62-.81-.95a11.89,11.89,0,0,0-3.6-3.3,2.44,2.44,0,0,0-2.72.31,1.3,1.3,0,0,0-.29,1,.73.73,0,0,0,.31.54.68.68,0,0,0,.86-.13.79.79,0,0,1,1.31.89,2.26,2.26,0,0,1-3.05.55,2.31,2.31,0,0,1-1-1.65,2.87,2.87,0,0,1,.68-2.22,4,4,0,0,1,4.56-.71,13,13,0,0,1,4.17,3.72c.27.32.53.63.78.92s.5.58.75.89a9,9,0,0,0,2.32,2.25,1.92,1.92,0,0,0,1.78.16.89.89,0,0,0,.44-.61.57.57,0,0,0-.13-.49,2.07,2.07,0,0,0-1.42-.49.79.79,0,0,1,.12-1.58h0a3.57,3.57,0,0,1,2.48,1,2.14,2.14,0,0,1,.5,1.82,2.47,2.47,0,0,1-1.25,1.72,3,3,0,0,1-1.67.33"/><path class="cls-23" d="M263.81,208.07a2.11,2.11,0,0,1-1.16-.45,3.57,3.57,0,0,1-1.16-2.42.79.79,0,1,1,1.57-.21,2.08,2.08,0,0,0,.57,1.39.57.57,0,0,0,.5.1.89.89,0,0,0,.58-.47,1.93,1.93,0,0,0-.26-1.77,9.09,9.09,0,0,0-2.38-2.19c-.32-.23-.63-.46-.93-.69s-.63-.48-1-.73a12.94,12.94,0,0,1-3.94-4,4,4,0,0,1,.46-4.59,2.72,2.72,0,0,1,3.88.1,2.26,2.26,0,0,1-.39,3.08.79.79,0,1,1-1-1.26.68.68,0,0,0,.08-.86,1.1,1.1,0,0,0-1.51.07,2.44,2.44,0,0,0-.17,2.73,11.91,11.91,0,0,0,3.49,3.42l1,.76c.28.22.58.44.88.66a10.21,10.21,0,0,1,2.78,2.62,3.47,3.47,0,0,1,.35,3.29A2.48,2.48,0,0,1,264.5,208a2.31,2.31,0,0,1-.68.06"/><path class="cls-5" d="M116.64,105.11c.08-.16.15-.33.22-.49l25.83,8.53,12.75-12.5a89.71,89.71,0,0,0,9.48-3.42l.72-.3c1.71.26,3.9.85,4.52,1,6.15,1.08,12.53,1.39,18.5-.76a23.44,23.44,0,0,0,5.06-2.61c1.2.45,2.41.86,3.66,1.22a33.27,33.27,0,0,0,5.06,1.1l.5,6.16,24.16,32.67L225,172,196.83,212.7l-40.12,11.6-46.6-14.38L94.28,156.08l-4.75-17.17L86,133.81c13.61-3.73,24.32-15.88,30.64-28.69"/><path class="cls-17" d="M247.86,178.61s14.8-10.95-.19-31.24a10.58,10.58,0,0,1,7.65,3.22s-5.56-16.15-25-23.25c0,0,7.09-1.72,9.47-.74A38.76,38.76,0,0,0,218.7,118l-8.37-21.05,9.81.71s-.66-1.63-4.34-3.54c-5.73,3.67-12,3.53-18.43,1.63-1.24-.37-2.45-.78-3.65-1.22a23.49,23.49,0,0,1-5.06,2.62c-6,2.15-12.36,1.84-18.5.76-.62-.11-2.81-.7-4.52-1l-.71.3c-9.87,4.14-19.28,6.6-30.1,5.5A18.77,18.77,0,0,1,124.36,98a45.55,45.55,0,0,0-3.1,4s-1.16-.45-3.2-1.08a16.38,16.38,0,0,1-1.42,4.27c-4.72,9.56-11.87,18.74-20.86,24.35-1.2,2.36-1.85,3.9-1.85,3.9a24.25,24.25,0,0,1-2.42-1.57,33.69,33.69,0,0,1-11.88,3.11c2.9,3.8,6.28,7.93,10.28,12.44,0,0-15.78,17-16.79,33,0,0,7.1-15.87,12.55-20.32,0,0-18.19,32.5-2.88,50.45,0,0-2.5-11.06-.44-16.34.65,4,5.75,32.46,22.24,43.12,0,0-7.07-12.57-8.27-18.69,0,0,10.28,24.26,48.48,25.33a45,45,0,0,1-19.18-11.22s51.37,18,83.24-8.92h0l.77-.64c3.83-3.32,9.23-9.45,12.94-19.65,0,0-.24,10.92-1.57,12.84,0,0,12-11.71,12.77-24.17,0,0,.35,11-.22,13.26,0,0,12.51-15.94,13.6-34.31,0,0,1.21,6.24.73,7.56M146.37,153.93c-4.87-14.79-2-39.43,10.24-43.46s29.18,14.1,34,28.88-.86,27.14-13.09,31.16-26.33-1.8-31.2-16.59m-63.8,39.63a5.07,5.07,0,0,1,.31-.56s0,.18,0,.5l-.36.06"/><path class="cls-5" d="M152.1,207.14c15.37,4.55,33.05,1.46,52.62-9.2a.85.85,0,1,0-.81-1.49c-20.91,11.4-39.54,14-55.37,7.67-24.63-9.81-34-38.14-34.14-38.42a.85.85,0,1,0-1.62.52c.1.29,9.77,29.37,35.13,39.47q2.06.82,4.18,1.45"/><path class="cls-5" d="M103.86,170s1.81-24,18.27-8.33c0,0-14-10.57-18,12"/><path class="cls-5" d="M199.56,158.53c-9.36,5.88,15.06,8.87,15.06,8.87s4-8,4.39-14.54-10.1-.22-19.45,5.67"/><g class="cls-33"><rect class="cls-34" x="78.1" y="139.63" width="36.78" height="26.95" transform="translate(-64.26 236.24) rotate(-85.13)"/></g><path class="cls-35" d="M39.8,208.4s17.55-1.39,9.68-8.68-9.68,8.68-9.68,8.68"/><path class="cls-35" d="M39.8,208.38s-3.07,17.33-9.57,8.8,9.57-8.8,9.57-8.8"/><polygon class="cls-13" points="38.34 206.96 28.46 204.35 36.71 196.19 38.34 206.96"/><path class="cls-17" d="M162.37,153.31s19.67,28.59,26.53-6.65c0,0-7.51,24.94-26.53,6.65"/><path class="cls-5" d="M194.75,139.4s13.44,24.08,19.35-6.44c0,0-6.1,21.66-19.35,6.44"/><path class="cls-25" d="M183.07,74.26A50.47,50.47,0,0,1,203.21,80a36.08,36.08,0,0,1,13.63,13.2,17.07,17.07,0,0,0-6.13,3.21,20.25,20.25,0,0,1-7.1.58l-1.17-.13h0a31.92,31.92,0,0,1-4.09-.83h-.05l-.08,0h0l-.78-.22-.06,0c-1.24-.37-2.45-.78-3.65-1.22a23.42,23.42,0,0,1-5.06,2.62,31.42,31.42,0,0,1-13.41,1.44c-1.71-.15-3.41-.38-5.09-.68-.62-.11-2.81-.7-4.52-1l-.71.3-2.31.94c-2.4.95-4.78,1.78-7.17,2.48h0a53,53,0,0,1-19.78,2.16l-.83-.08A18.77,18.77,0,0,1,124.36,98a45.55,45.55,0,0,0-3.1,4s-1.16-.45-3.2-1.08a16.41,16.41,0,0,1-1.19,3.78h0c-.07.16-.14.32-.22.49l-.05.11h0a66.1,66.1,0,0,1-13,18.11l2.19-10.93c16.33-19,36.77-35.16,60.94-37.82a84.89,84.89,0,0,1,16.37-.32"/><path class="cls-36" d="M210.33,96.94,217.12,114,220,100.75a28.64,28.64,0,0,0-1-3.19Zm6.5-3.77a17,17,0,0,0-6.13,3.21,18.35,18.35,0,0,0,5.09-2.28,17.33,17.33,0,0,1,2.27,1.39q-.57-1.18-1.24-2.32"/><path class="cls-36" d="M220,100.75a25.34,25.34,0,0,1,.65,9.87,17.61,17.61,0,0,1-2.22,6.73L217.12,114Z"/><path class="cls-25" d="M161.39,110a11.93,11.93,0,0,0-4.78.52,13.7,13.7,0,0,0-6.93,5.62l2.4.18c9.11.78,18.07,2.61,27.06,4.33-5.43-5.83-11.86-10.15-17.75-10.65m-44.81-4.74h0m.28-.59c-.07.16-.14.33-.22.49l.23-.49h0m45.75-6.45c-2.4.95-4.78,1.78-7.18,2.48h0c2.39-.7,4.78-1.54,7.18-2.49M198.34,96a32.4,32.4,0,0,0,4.09.83h0a32.4,32.4,0,0,1-4.09-.82m-.05,0h0m-.08,0h0m-.84-.24.06,0-.06,0"/><path class="cls-34" d="M215.8,94.11a17.54,17.54,0,0,1,2.27,1.39q.49,1,.9,2.07l-8.64-.62L217.12,114l1.33,3.34a12.34,12.34,0,0,1-1.32,1.8c-4.21,4.76-11.23,5.2-17.72,4.64-.8-.07-1.59-.15-2.37-.24-6-.71-11.95-1.8-17.89-2.94-5.43-5.83-11.86-10.15-17.75-10.65a12,12,0,0,0-4.78.52,13.71,13.71,0,0,0-6.93,5.62c-2.1-.13-4.2-.21-6.32-.2a76.77,76.77,0,0,0-26.13,4.28c-1.73.63-9.4,3.21-14.25,6.08l.59-2.91a66.1,66.1,0,0,0,13-18.11h0l.05-.11.23-.49a16.42,16.42,0,0,0,1.19-3.78c2,.63,3.2,1.07,3.2,1.07a45.34,45.34,0,0,1,3.1-4,18.78,18.78,0,0,0,10.47,4.77l.83.08a53,53,0,0,0,19.78-2.15c2.39-.7,4.78-1.54,7.18-2.49q1.15-.45,2.31-.94l.72-.3c1.71.26,3.9.85,4.52,1,1.68.3,3.39.53,5.09.68a31.41,31.41,0,0,0,13.41-1.44,23.41,23.41,0,0,0,5.06-2.62c1.2.45,2.41.86,3.65,1.22l.06,0,.78.22h0l.08,0h.05a31.92,31.92,0,0,0,4.09.83l1.17.13a20.25,20.25,0,0,0,7.1-.58,18.33,18.33,0,0,0,5.09-2.28"/><path class="cls-16" d="M86.16,106.17c-.37-.08-.73-.16-1.12-.21l-.09,0h0a11.74,11.74,0,0,0-1.38-.1c-9.16,0-17.88,9.9-19.47,22.22-1.44,11.14,3.46,20.38,11.2,22.06v0l22.06,4.09L106.25,110Z"/><path class="cls-1" d="M85,105.95h0l.09,0a10.65,10.65,0,0,1,1.11.21l19.28,3.64c8.33,1,13.74,10.62,12.24,22.26-1.59,12.31-10.31,22.26-19.47,22.22a5.55,5.55,0,0,1-.58,0l-.28,0v0l-.26,0a12,12,0,0,1-2.25-.42L75.3,150.16v0c-7.73-1.69-12.63-10.92-11.2-22.06,1.59-12.31,10.31-22.26,19.47-22.22l.77,0,.6.06"/><path class="cls-37" d="M64.18,127.53c0,.18-.05.35-.07.53a29.48,29.48,0,0,0-.23,4.82c-.18-1.41-.37-4,.31-5.36"/><path class="cls-38" d="M82.29,133a41.67,41.67,0,0,0,0,8.08c3.36,1,6,1.8,6.16,2l0,0c.64.05,3.69-7.06,3.69-7.06l-9.89-3m-5.63-1.7a36.72,36.72,0,0,0,.53,8.29l3.92,1.14a42.35,42.35,0,0,1,.06-8.07l-4.51-1.36m-6.42-1.95a27.73,27.73,0,0,0,.65,8.43l5.24,1.5A38.78,38.78,0,0,1,75.7,131l-5.46-1.65m-6.05-1.83h0c0,.18-.05.35-.07.53a29.32,29.32,0,0,0-.23,4.82c.08.6.15,1,.15,1l2.53,2.67,3.09.88a28.43,28.43,0,0,1-.52-8.42l-4.93-1.49"/><path class="cls-39" d="M81.17,132.67a42.46,42.46,0,0,0-.06,8.07l1.18.35a41.58,41.58,0,0,1,0-8.08l-1.12-.34M75.7,131a38.59,38.59,0,0,0,.43,8.28l1.05.31a36.67,36.67,0,0,1-.53-8.3l-1-.29m-6.58-2a28.4,28.4,0,0,0,.52,8.42l1.25.36a27.64,27.64,0,0,1-.65-8.43L69.12,129"/><path class="cls-16" d="M76.35,156.16c1.59-12.31-4.55-22.32-13.71-22.37S44.76,143.7,43.17,156s4.55,22.33,13.71,22.37,17.88-9.91,19.47-22.22"/><polygon class="cls-16" points="64.02 133.88 85.31 137.9 76.42 182.19 54.36 178.1 64.02 133.88"/><path class="cls-13" d="M96.75,160C98.34,147.7,92.2,137.68,83,137.64s-17.88,9.9-19.47,22.22,4.55,22.33,13.71,22.37,17.88-9.9,19.47-22.22"/><path class="cls-1" d="M64,133.89h0l.09,0c.38,0,.75.13,1.12.21l19.28,3.64c8.33,1.05,13.74,10.62,12.24,22.26-1.59,12.31-10.31,22.26-19.47,22.22a5.43,5.43,0,0,1-.57,0l-.28,0v0l-.26,0a11.91,11.91,0,0,1-2.25-.42L54.37,178.1v0c-7.73-1.69-12.64-10.92-11.2-22.06,1.59-12.31,10.3-22.26,19.47-22.22.26,0,.52,0,.77,0l.61.06"/><path class="cls-13" d="M129.68,57.61c28.28-29,82-29.11,96.57,14.33,8.44,25.23-16.45,34.83-35.45,32.81-5.6-.59-11.15-1.75-16.73-2.52-12.2-1.67-24.72-1.43-36,2.14S116.68,115,111.35,124.95c-3.62,6.73-10.61-1.07-11.26-6-.86-6.46,2.68-14.78,4.68-20.66a108.29,108.29,0,0,1,24.93-40.66"/><polygon class="cls-5" points="131.35 278.64 131.15 278.1 298.82 214.9 299.02 215.44 166.05 265.56 301.21 216.99 301.4 217.53 131.35 278.64"/><path class="cls-32" d="M130.16,276.2S251.91,228.47,297.06,210l7.86,6.22-4.87,3.8-3.29-6.5L131.26,278.37Z"/><path class="cls-13" d="M127.37,275.94h0c-3.22,1.3-6.71,2.84-8.27,5.94a2.9,2.9,0,0,0-.33,2.22,2.34,2.34,0,0,0,2.14,1.39,5.25,5.25,0,0,0,2.58-.73,14.82,14.82,0,0,0,7-8,18.6,18.6,0,0,0-6.08,9.59c-1.44,5.57,4.13,4.91,6.43,1.24,1.69-2.68,2.6-6.64,1.65-9.73-.83-2.68-3-4.51-5.41-5.8-2.18-1.18-8.74-4.51-10.55-1.54-2.94,4.82,8.27,6.22,10.84,5.38"/><path class="cls-17" d="M129.4,273.06c-2-2.17-5.35-6-4.23-9.22,2.14-6.19,7.9,3.16,9.68,5.78A78.45,78.45,0,0,1,131,258.16a23.46,23.46,0,0,1-.85-6.43c.09-1.57.69-5.29,2.94-5.15s3.43,4.36,3.93,6.09a21.52,21.52,0,0,1-1.41,15.16c1.73-3.41,3.55-6.79,5.55-10.05a55.51,55.51,0,0,1,4.15-6c1.18-1.46,2.86-3.69,4.92-3.93,5.78-.66-.47,10.21-1.44,11.91-3.82,6.68-8.2,10.7-14,15.61l-.41.35c2.45,2.91,10.47,11.93,6.9,15.92-4.81,5-10.66-11.49-9.7-15.55Z"/><path class="cls-13" d="M117.69,132.06c1.59-12.31-4.55-22.33-13.71-22.37s-17.88,9.9-19.47,22.21,4.55,22.33,13.71,22.37,17.88-9.9,19.47-22.22"/></g><path class="cls-5" d="M359.62,298.59c0-.26,0-.52,0-.78a8,8,0,0,0-2-5.11,5.14,5.14,0,0,0,.86-8.14l-6.24-5.91a4.74,4.74,0,0,1-1.85-1.75L344.16,271a5.15,5.15,0,0,0-8.67,3.17l-.26,2.34-22-22.09c3.4-3.5,5.75-7.81,3.58-12.46l-.08-.16a7.82,7.82,0,0,0-4.46-4q.05-.48.08-1t.05-1.16c0-.18,0-.36,0-.54,0-.45,0-.89,0-1.33,0,0,0,0,0,0v0h0v0l0-.26v-.06c0-.13,0-.25,0-.28v-.29c0-.11,0-.22,0-.32s0-.27,0-.37l-.05-.32v0l-.06-.35v0c0-.21-.09-.41-.14-.62-.08-.39-.16-.78-.26-1.17s-.17-.57-.25-.85-.17-.61-.27-.91-.25-.67-.38-1-.17-.48-.27-.71-.33-.72-.5-1.07c-.09-.19-.18-.39-.27-.59-.19-.37-.4-.72-.6-1.08-.1-.17-.19-.35-.29-.52-.21-.35-.44-.68-.67-1-.11-.17-.22-.34-.33-.51s-.27-.35-.4-.53l.65-.5a5.15,5.15,0,0,0,0-8.1L300.26,206a5.15,5.15,0,0,0-5.15-.73c-5.13,2.1-11.29,4.58-18.15,7.34a8.73,8.73,0,0,1-1.47-4.49c0-.26,0-.52,0-.78a10.78,10.78,0,0,1,.2-1.75c0-.09,0-.19.07-.28.07-.32.15-.63.25-.95,0-.14.1-.28.15-.42s.19-.52.3-.79.14-.33.22-.49.23-.47.35-.7l.28-.51c.13-.22.27-.44.41-.66l.32-.48c.17-.23.34-.46.53-.68l.31-.39c.29-.33.59-.66.9-1l0,0h0l.07-.09a5.26,5.26,0,0,0,.58-.7c.07-.1.12-.21.19-.32a5.38,5.38,0,0,0,.31-.58c.06-.13.1-.27.15-.41s.08-.2.11-.3h0c0-.09,0-.19.06-.28s.05-.29.08-.43,0-.1,0-.15,0-.1,0-.16v0h0s0,0,0,0,0-.25,0-.37,0-.08,0-.12,0-.05,0-.08a5.11,5.11,0,0,0-.25-1.45,9.59,9.59,0,0,0-.45-1.14l-.18-.38v0l0-.09-.09-.17a19.78,19.78,0,0,0-1.33-2.19l-.18-.25c-.28-.4-.57-.8-.9-1.22l0,0c-.33-.42-.69-.86-1.07-1.3l-.28-.33c-.38-.44-.77-.88-1.19-1.34l0,0c-.43-.47-.9-1-1.38-1.44l-.36-.37-.66-.66-.88-.86q-.64-.62-1.32-1.2l-.59-.49-.76-.62-.24-.2-.13-.1h0l-.07-.06-.36-.25c-.34-.24-.68-.48-1-.71l-.64-.43c-.52-.33-1-.64-1.57-.93l-.68-.36q-.58-.3-1.17-.59l-.66-.31c-.59-.27-1.19-.52-1.8-.75l-.23-.08c-.57-.21-1.14-.4-1.72-.58l-.58-.17-.54-.16c1.77-4.74,2.24-10.78-.31-17.81L258,155a5.15,5.15,0,0,0,2.16-6.06,41.75,41.75,0,0,0-7.52-12.29,35.32,35.32,0,0,0,6.93-17.05c1.11-8.62-1-16.65-5.66-22a17.59,17.59,0,0,0-10.59-5.93l-11.47-2.16c1.57-4.89,1.92-11.21-.74-19.15-6.42-19.2-20.5-32.19-39.65-36.57C168.77,28.54,143.06,36.5,126,54a114,114,0,0,0-26.11,42.6c-.29.86-.62,1.78-1,2.73-.43,1.19-.87,2.44-1.31,3.73l-1.84-.35-8.56-1.62c-.37-.08-.8-.17-1.27-.24l-.22,0h0l-.25,0h-.06l-.6-.06h-.11c-.34,0-.68,0-1-.05h0c-10,0-19.25,8.29-23.06,19.93h0l-.13.41a36.79,36.79,0,0,0-1.21,5.07,11.12,11.12,0,0,0-.59,3c-10.18,2.26-18.82,13-20.54,26.26-.1.76-.16,1.51-.21,2.26,0,.15,0,.31,0,.46,0,.73-.06,1.45-.05,2.17,0,.09,0,.17,0,.26,0,.64,0,1.28.09,1.9,0,.16,0,.31,0,.47.06.67.14,1.33.24,2,0,.14.05.28.08.43q.14.8.32,1.58c0,.17.08.35.12.52q.22.88.49,1.74c.07.2.14.4.21.6q.2.59.43,1.16c.09.22.18.45.27.67q.31.71.66,1.4c.14.27.28.53.43.79l.41.7c.21.34.42.68.65,1s.43.62.66.92.39.48.59.71l.25.31.22.23c.26.28.52.56.79.83s.39.37.59.55.47.43.72.63.59.46.9.67.34.25.51.37A17.14,17.14,0,0,0,52.94,183c.16,0,.32.1.49.13l.29.05.17,0L63.16,185a15.79,15.79,0,0,0-4,6.22,24.14,24.14,0,0,0-.88,9.38,16.21,16.21,0,0,1-.31,5.51,6.15,6.15,0,0,1-5,3.66,8.61,8.61,0,0,0,3.26-4.14c.65-1.88,1.1-5.63-3.26-9.67s-8.23-3.48-10.13-2.77a8.42,8.42,0,0,0-1.52.77,5.15,5.15,0,0,0-8.25-1.4l-8.25,8.16a5.15,5.15,0,0,0,.48,7.75,8.41,8.41,0,0,0-1,1.51c-.89,1.83-1.83,5.6,1.78,10.35,2.44,3.2,5,4.2,6.92,4.36a7.48,7.48,0,0,0,2.39-.18,9.27,9.27,0,0,0,5.3-3.95,64.76,64.76,0,0,0,5.67,6.65,43.29,43.29,0,0,0,9.6,7.93,27.29,27.29,0,0,0,11.11,3.39,28.55,28.55,0,0,0,22.14-7.67c.33-.32.65-.67,1-1a41.36,41.36,0,0,0,11.55,11.73,5.15,5.15,0,0,0,1,.48q-1.9,1.65-3.64,3.39c-6.68,6.7-13.35,18-12,29.6A23.69,23.69,0,0,0,98.55,292.8a24.16,24.16,0,0,0,10.89,3.74l.28,0h0a27,27,0,0,0,12.44-2.22,6.85,6.85,0,0,0,1.22.68,7.34,7.34,0,0,0,2.29.57,9.72,9.72,0,0,0,6-1.64l.1,3.58a14.63,14.63,0,0,1,6.14-3.67c4.66-1.55,9.61-1.25,13.05,2.71a9.45,9.45,0,0,1,.73,1q2.63.84,5.22,1.81a16.43,16.43,0,0,1,3.52-.54,149.48,149.48,0,0,1,16.75.29c15.13-5,32-7.86,48-6.18a15.18,15.18,0,0,1,5.05-7.92c5.82-4.71,13.72-3.36,19.5.62.21.15.4.31.59.46l-6.85-23.54c1,.58,2.08,1.14,3.15,1.65a26.2,26.2,0,0,0,20.36,15l.74.08c6.42.55,13.31-2,18.87-5.78a20.94,20.94,0,0,0-1.65,4.35c-.49,2-1.05,5.86.78,8.86a7,7,0,0,0,5.37,3.33c3.89.33,6.7-2.44,8.53-4.87l.22.55c.92,2.25,2.45,6,6.15,7.62a8.48,8.48,0,0,0,2.63.69h0a6.7,6.7,0,0,0,5.7-2.28,7.56,7.56,0,0,0,1.28-2.12l3.54,3.27-1.33.22a5.15,5.15,0,0,0-2.7,8.83l4.48,4.24a5.14,5.14,0,0,0,1.59,3.4l6,5.68a5.14,5.14,0,0,0,7.83-.9c.17.19.34.38.53.55a8,8,0,0,0,4.86,2.18,8.14,8.14,0,0,0,2.1-.1,5,5,0,0,0,5.8.4,9.79,9.79,0,0,0,1.81.33,9.94,9.94,0,0,0,1.12,0,9.85,9.85,0,0,0,9.09-12.89A5.15,5.15,0,0,0,359.62,298.59ZM50.9,169.82a12.25,12.25,0,0,1-1.14-1.88l0-.08a16,16,0,0,1-1.08-3.13l-.08-.35q-.16-.72-.26-1.47c0-.08,0-.16,0-.25-.07-.57-.12-1.15-.15-1.74,0-.15,0-.3,0-.46q0-.68,0-1.38c0-.18,0-.37,0-.55,0-.58.08-1.17.15-1.76v-.09c.9-6.94,4.56-13.07,9-16Zm124.72-15c-3.23.22-7-2.66-9.68-5.24a5.15,5.15,0,0,0-7.82,6.64,39.72,39.72,0,0,0,10.34,10.32h-.23c-7.92-.68-14.26-6-17-14.22-3.05-9.28-2.43-22.89,1.26-30.83,7.68.72,15.5,2.22,23.06,3.68l.95.18c1,1.11,1.9,2.27,2.79,3.48a36.1,36.1,0,0,0-4.47,13.37A32.32,32.32,0,0,0,175.62,154.84Zm9.52-11.66c.12-.87.29-1.72.5-2.55l.12.35c.15.46.27.9.39,1.35A5.14,5.14,0,0,0,185.14,143.17ZM208.48,91.6l-.39.08-.46.07q-.5.07-1,.1l-.44,0c-.37,0-.75,0-1.14,0h-.47q-.62,0-1.26-.11l-.29,0c-.58-.08-1.18-.19-1.79-.31l-.43-.1-.12,0-.14,0c-.55-.13-1.11-.26-1.69-.44-1.09-.32-2.17-.68-3.34-1.12l-.26-.08-.38-.11-.2,0-.45-.07H194a5.12,5.12,0,0,0-.63,0h-.18a5.14,5.14,0,0,0-.76.13l-.12,0a5.14,5.14,0,0,0-.63.22l-.18.08-.36.18-.34.2c-.41.27-.81.52-1.21.75a17,17,0,0,1-2.73,1.3l-.06,0c-.45.16-.91.3-1.38.43l-.5.13-1.08.24-.52.1c-.49.08-1,.16-1.51.21h-.1c-.57.06-1.15.09-1.75.12h-.42c-.5,0-1,0-1.53,0h-.37a47.51,47.51,0,0,1-6.62-.73h0l-.8-.18-1.64-.37c-.71-.16-1.47-.31-2.2-.42h0l-.31,0h-.5l-.36,0-.3,0-.4.08-.19,0-.06,0a5.18,5.18,0,0,0-.51.17l-.09,0h0l-.17.07-.17.07-.36.15-.82.33-1.3.53-.85.33-1.23.46-.92.33-1.13.39-.87.29-1.25.39-.91.27L153,96l-1.2.32-.69.17-.28.06-.24.05c-2.45.26-4.84.62-7.15,1.1a46,46,0,0,1-8-.08h0a11.27,11.27,0,0,1-1.12-.18l-.38-.09q-.4-.1-.8-.22L132.6,97q-.47-.16-.93-.37l-.22-.09c-.38-.17-.75-.37-1.11-.58l-.08,0c12.19-9.39,24.57-14.82,37-16.18,13.71-1.5,24.94.11,33.47,4.79a31.1,31.1,0,0,1,8.33,6.69Zm13.08-4c-.39,0-.78-.07-1.17-.07s-.72,0-1.08,0a41.52,41.52,0,0,0-13.63-12.12,55.64,55.64,0,0,0-22.18-6.33,90.17,90.17,0,0,0-17.37.34c-19.51,2.14-38.59,12.7-56.83,31.42l.33-1a103.64,103.64,0,0,1,23.74-38.72c14.39-14.77,36.83-21.77,55.82-17.43,15.5,3.55,26.93,14.13,32.17,29.79C223.19,79,223.25,83.73,221.57,87.62ZM233,213.31a16.71,16.71,0,0,0-.41-2l2.18,2.06A9.54,9.54,0,0,0,233,213.31Zm9.79,5.29a23,23,0,0,0-2.35-2.42l.14,0,2.55,2.39Zm6.6-100.34h0a25.71,25.71,0,0,1-4.28,11.27c-.24-.18-.46-.37-.71-.54a5.15,5.15,0,0,0-1.08-6.18l-.19-.17L246.66,105C249,108.14,250,113,249.37,118.26Zm15.48,132.47a17.65,17.65,0,0,0,1.48-6.57l7.58,7A46.44,46.44,0,0,1,264.85,250.73Z"/><path class="cls-6" d="M110.09,291.42a18.92,18.92,0,0,1-8.8-3,18.69,18.69,0,0,1-9.1-14c-1.11-9.8,5-19.8,10.57-25.38,7.93-8,18.73-14.39,34-20.24l2.88,7.5c-14.16,5.43-24.07,11.28-31.18,18.41-4.65,4.67-9,12.29-8.27,18.81a10.65,10.65,0,0,0,5.4,8.1c7.17,4.52,14.84-.1,24.14-8.42l5.36,6c-5.1,4.56-14.51,13-25,12.21"/><path class="cls-6" d="M267,264.27a49,49,0,0,1-22.69-7.21c-25.31-15.77-28.85-50.82-29-52.3l8-.74-4,.37,4-.38c0,.33,3.35,32.63,25.27,46.25,13,8.1,30.28,8.16,51.26.17l2.85,7.51c-13.13,5-25.07,7.1-35.71,6.33"/><path class="cls-6" d="M230.24,285c4.05-3.28,9.12-3.61,13.77-2.17l-23.59-81.07-15.27,3.46,21.49,84.11A14.54,14.54,0,0,1,230.24,285Z"/><path class="cls-8" d="M225.21,292.92a16,16,0,0,1,2.38-5.11L211.37,212l-73.15,10.87,12.51,73.51.22.23a9.45,9.45,0,0,1,.73,1q2.63.84,5.22,1.81a16.43,16.43,0,0,1,3.52-.54,149.48,149.48,0,0,1,16.75.29C192.3,294.11,209.2,291.23,225.21,292.92Z"/><path class="cls-9" d="M198.46,293.87l4.36-6.62-13-48.39L187,228.48l-47,5,9.42,55.35L163,298.72c4.72-.11,9.43.07,14.14.38A138.16,138.16,0,0,1,198.46,293.87Z"/><path class="cls-7" d="M208.66,292.69a95,95,0,0,1,16.53.23,16.85,16.85,0,0,1,.91-2.54l.5-7.77L211.37,212l-26.59,8.21,18,67.08Z"/><path class="cls-11" d="M226.58,283.08l1,4.74c.12-.17.24-.35.38-.52l-9.05-48c-.54-.46-.93-.81-1.12-1s-.63-.6-.93-.91l9.74,45.18Z"/><path class="cls-12" d="M227.59,287.82l-1-4.74-.47,7.3A15.26,15.26,0,0,1,227.59,287.82Z"/><path class="cls-12" d="M208.66,292.69l-4.38-4.09,1,4.37Q207,292.81,208.66,292.69Z"/><path class="cls-10" d="M208.66,292.69a95,95,0,0,1,16.54.23,16.86,16.86,0,0,1,.91-2.54l.47-7.3,0-.48-9.74-45.18A27.13,27.13,0,0,1,210,225.48q-1.4,1.43-2.89,2.75l.29.29a7,7,0,0,1-5.68,11.95,6.2,6.2,0,0,1-.75-.11c4.75,1,8.59,6.23,6.18,10.94a7.72,7.72,0,0,1-7.57,3.95,7.45,7.45,0,0,1-3.45-1.16l8.11,34.52Z"/><path class="cls-13" d="M157.14,222.49a13.84,13.84,0,0,1,15.94,2.6c2.16-5.43,7.4-9,12.72-11.44,5-2.27,10.68-3.84,15.92-2.23s9.44,7.42,7.62,12.59c-1,2.75-5,4.71-6.67,2.3.08.12,2,.35,2.32.5a7.08,7.08,0,0,1-4,13.55c4.75,1,8.59,6.23,6.19,10.95-2.31,4.54-9.16,5.4-12.48,1.5,3.68,4.32-3.54,8.76-7.44,7-4.22-1.85-5.15-7.73-4.25-11.75-1,4.36-3.22,12.07-9.1,11.15-6.31-1-7-10.86-4.86-15.46a15.79,15.79,0,0,1-5.48,6.38,5,5,0,0,1-7.14-1.63c-1.54-2.58-1.77-10.92,1.79-12.37a13.45,13.45,0,0,1-5.77,1.39c-2-.13-4.06-1.42-4.39-3.39-.52-3.1,3.1-5.1,6.08-6.11Z"/><path class="cls-14" d="M186.65,246.83a9.57,9.57,0,0,1-6.46,2,7.68,7.68,0,0,1-3-.84,7.46,7.46,0,0,1-3.45-4.09,10.66,10.66,0,0,1-1.54.22,15.41,15.41,0,0,1-11-3.93,6.1,6.1,0,0,1-1.58-2.38,4.83,4.83,0,0,1,2.14-5.29,7.84,7.84,0,0,1,5.59-.94l-.19,1.13a6.7,6.7,0,0,0-4.77.76,3.72,3.72,0,0,0-1.67,4,4.81,4.81,0,0,0,1.3,1.91A14.35,14.35,0,0,0,172.1,243a9.37,9.37,0,0,0,1.31-.18,7.38,7.38,0,0,1,.66-5,3.2,3.2,0,0,1,1.59-1.59,2.08,2.08,0,0,1,2.58.66,3.87,3.87,0,0,1,.06,4.22,7.31,7.31,0,0,1-3.46,2.48A6.27,6.27,0,0,0,177.7,247a7.85,7.85,0,0,0,8.25-1,8.16,8.16,0,0,0,2.24-2.71A6.65,6.65,0,0,1,184,239a2.81,2.81,0,0,1,.63-2.72,2.62,2.62,0,0,1,2.29-.66,3.83,3.83,0,0,1,2.84,2.73,6.48,6.48,0,0,1,0,4.17,7,7,0,0,0,8.06-4,5.34,5.34,0,0,0,.35-2.4,9.27,9.27,0,0,1-2.88-.78c-1.22-.55-1.47-1.28-1.5-1.67a1.49,1.49,0,0,1,.68-1.35,2.55,2.55,0,0,1,2.55-.07,4.12,4.12,0,0,1,2.13,2.75,3.23,3.23,0,0,0,2.86-1.52c1.46-2.5-.35-6.69-2.16-8.63a5.17,5.17,0,0,0-4.78-1.74l-.27-1.11a6.31,6.31,0,0,1,5.89,2.07c2,2.16,4.14,6.84,2.31,10a4.35,4.35,0,0,1-3.67,2.07,6.31,6.31,0,0,1-.46,2.82,8.08,8.08,0,0,1-9.55,4.59,9.41,9.41,0,0,1-2.66,3.26m-9.33-9.27a.88.88,0,0,0-.66-.39,1.35,1.35,0,0,0-.59.11,2.14,2.14,0,0,0-1,1.06,6.21,6.21,0,0,0-.56,4.12,6.18,6.18,0,0,0,2.86-2.07,2.73,2.73,0,0,0-.06-2.84m9.23-.84a1.44,1.44,0,0,0-1.11.37,1.69,1.69,0,0,0-.33,1.61,5.49,5.49,0,0,0,3.52,3.47,5.39,5.39,0,0,0,0-3.45,2.83,2.83,0,0,0-2-2Zm10-3.41a1.84,1.84,0,0,0-.67-.19,1.16,1.16,0,0,0-.73.17.36.36,0,0,0-.19.3c0,.18.24.46.83.73a8.63,8.63,0,0,0,2.16.63,2.81,2.81,0,0,0-1.4-1.63"/><path class="cls-15" d="M194.69,271.18a4.22,4.22,0,1,1-3.05-5.12,4.23,4.23,0,0,1,3.05,5.12h0m-3.47-3.49a2.7,2.7,0,0,0-.44-.07,2.53,2.53,0,1,0,.44.07"/><path class="cls-15" d="M194.71,285.85a4.19,4.19,0,0,1-2.46.58,4.3,4.3,0,0,1-.74-.12,4.22,4.22,0,1,1,3.19-.47m-1.54-6.08a2.42,2.42,0,0,0-.44-.07,2.53,2.53,0,0,0-2.36,3.82,2.53,2.53,0,0,0,4.63-.67h0a2.53,2.53,0,0,0-1.83-3.07"/><path class="cls-6" d="M137.89,293.86c4.66-1.55,9.61-1.25,13.05,2.71a9.45,9.45,0,0,1,.73,1q2.63.84,5.22,1.81a16.43,16.43,0,0,1,3.52-.54l.94,0-10.2-69.37-16.32-4.24,2,69.1C137.17,294.12,137.51,294,137.89,293.86Z"/><path class="cls-13" d="M78.87,183.13C72.84,184.55,66,187,64,192.89c-1.65,4.73.45,10.14-1.19,14.88-1.47,4.26-6,7.1-10.47,7.2a15.33,15.33,0,0,1-11.76-5.73c1.74,5.54,5.53,10.18,9.55,14.37a38.14,38.14,0,0,0,8.43,7,23.39,23.39,0,0,0,27.1-3.49,32.33,32.33,0,0,0,7.17-11.56,55.24,55.24,0,0,0,3.29-12.75Z"/><path class="cls-16" d="M234.08,115.07c1.59-12.31-4.55-22.33-13.71-22.37s-17.88,9.91-19.47,22.22,4.55,22.32,13.71,22.37,17.88-9.91,19.47-22.22"/><polygon class="cls-16" points="221.75 92.79 243.04 96.81 234.15 141.1 212.09 137.01 221.75 92.79"/><path class="cls-13" d="M254.48,118.92c1.59-12.31-4.55-22.33-13.71-22.37s-17.88,9.9-19.47,22.22,4.55,22.33,13.71,22.37,17.88-9.91,19.47-22.22"/><path class="cls-16" d="M213.15,143c1.59-12.31-4.55-22.33-13.71-22.37s-17.88,9.91-19.47,22.22,4.55,22.33,13.71,22.37,17.88-9.91,19.47-22.22"/><polygon class="cls-16" points="200.82 120.74 222.11 124.76 213.22 169.05 191.16 164.96 200.82 120.74"/><path class="cls-13" d="M233.55,146.86c1.59-12.31-4.55-22.33-13.71-22.37s-17.88,9.9-19.47,22.22,4.55,22.32,13.71,22.37,17.88-9.91,19.47-22.22"/><path class="cls-17" d="M295.41,258.47c-2.52,1.51-6.86,4.2-6.72,7.6.25,6.55,8.47-.74,10.94-2.73a78.42,78.42,0,0,0-7,9.85,23.44,23.44,0,0,0-2.68,5.91c-.37,1.53-.87,5.26,1.32,5.78s4.55-3.18,5.53-4.69a21.53,21.53,0,0,0,3.05-14.92c.67,3.77,1.42,7.53,2.4,11.23a55.69,55.69,0,0,0,2.23,6.94c.71,1.74,1.67,4.36,3.57,5.18,5.34,2.31,2.51-9.9,2.07-11.82-1.72-7.5-4.74-12.62-8.91-19l-.29-.45c3.19-2.07,13.48-8.38,11.22-13.24-3.15-6.21-13.54,7.9-13.8,12.07Z"/><path class="cls-18" d="M169,243.93c-.19.4-.4.79-.62,1.17l.21,0a9.85,9.85,0,0,1,.42-1.13h0m-12.75-5.6q-1.56-.09-3.08-.22l-.73-.06,1.29,8.77,2-.14a14.7,14.7,0,0,1,.49-8.34"/><path class="cls-19" d="M209.54,223.34c.14.72.3,1.44.5,2.15q-1.4,1.43-2.89,2.75a7.34,7.34,0,0,0-1.31-1,5.51,5.51,0,0,0,3.5-3.23c.08-.23.15-.45.2-.68"/><path class="cls-20" d="M173.72,243.89a10.58,10.58,0,0,1-1.54.22,12.82,12.82,0,0,1-2,0q-.61-.05-1.22-.16a9.77,9.77,0,0,0-.42,1.13q2.57-.45,5.19-1l0-.13m-13.86-5.41q-1.84-.05-3.62-.16a14.68,14.68,0,0,0-.49,8.34c3.91-.3,8.18-.79,12.62-1.57.22-.38.43-.77.62-1.17a15,15,0,0,1-7.84-3.75,6.92,6.92,0,0,1-1.29-1.69m14.16-.6a97.42,97.42,0,0,1-12.79.63,6.92,6.92,0,0,0,.74.85,14.31,14.31,0,0,0,8.37,3.58,11.37,11.37,0,0,0,1.76,0,9.26,9.26,0,0,0,1.31-.18,7.4,7.4,0,0,1,.61-4.9m3.2-.44-1.71.25a3.42,3.42,0,0,0-.44.65,6.22,6.22,0,0,0-.56,4.12,6.16,6.16,0,0,0,2.86-2.06,2.73,2.73,0,0,0-.06-2.84l-.1-.11m9.33-.73a1.45,1.45,0,0,0-1.11.37,1.69,1.69,0,0,0-.33,1.61,4.27,4.27,0,0,0,.93,1.72c.93-.34,1.87-.71,2.8-1.09a4.76,4.76,0,0,0-.17-.62,2.83,2.83,0,0,0-2-2l-.17,0m9.3-3.6h0a1.16,1.16,0,0,0-.73.17.36.36,0,0,0-.19.3c0,.18.24.46.83.73a8.65,8.65,0,0,0,2.06.62l.07,0a2.79,2.79,0,0,0-1.38-1.58,1.84,1.84,0,0,0-.65-.19m-1.83-.36a70.71,70.71,0,0,1-15.56,4.48,3.91,3.91,0,0,1-.18,3.85,7.31,7.31,0,0,1-3.46,2.48l.07.18a97.19,97.19,0,0,0,10-2.92A5.19,5.19,0,0,1,184,239a2.81,2.81,0,0,1,.63-2.72,2.59,2.59,0,0,1,2-.69l.26,0a3.83,3.83,0,0,1,2.84,2.73c.06.18.11.36.16.54,2.18-.93,4.33-2,6.42-3.12a9.7,9.7,0,0,1-1.06-.4c-1.22-.55-1.46-1.28-1.5-1.67a1.4,1.4,0,0,1,.26-.93m8-4.11a59.14,59.14,0,0,1-6.22,3.32h.13a3,3,0,0,1,1.05.29,3.92,3.92,0,0,1,1.88,2q1.84-1.12,3.61-2.38a7.67,7.67,0,0,0-.46-3.26m7.48-5.5-.67.56h0A56.24,56.24,0,0,1,203,228a9.74,9.74,0,0,1,.64,3q1.79-1.34,3.48-2.83a7.43,7.43,0,0,0-1.31-1,5.51,5.51,0,0,0,3.5-3.23c.08-.22.14-.45.2-.68l0-.18"/><path class="cls-21" d="M178.46,237.24l-1.25.2.1.11a2.73,2.73,0,0,1,.06,2.84,6.17,6.17,0,0,1-2.86,2.07,6.2,6.2,0,0,1,.56-4.12,3.39,3.39,0,0,1,.44-.65l-1.49.19a7.4,7.4,0,0,0-.61,4.9,9.59,9.59,0,0,1-1.31.18,11.19,11.19,0,0,1-1.76,0,14.32,14.32,0,0,1-8.37-3.58,7.17,7.17,0,0,1-.74-.85l-1.36,0a7,7,0,0,0,1.29,1.69,15,15,0,0,0,7.84,3.75h0c.41.07.82.12,1.22.15a12.66,12.66,0,0,0,2,0,10.56,10.56,0,0,0,1.54-.22l0,.13,1.13-.26-.07-.18a7.31,7.31,0,0,0,3.46-2.48,3.9,3.9,0,0,0,.18-3.85m8.19-1.66a2.59,2.59,0,0,0-2,.69A2.81,2.81,0,0,0,184,239a5.21,5.21,0,0,0,.91,1.84l1.13-.41a4.28,4.28,0,0,1-.93-1.72,1.69,1.69,0,0,1,.33-1.61,1.45,1.45,0,0,1,1.11-.37l.17,0a2.83,2.83,0,0,1,2,2,4.57,4.57,0,0,1,.17.62l1.08-.45c0-.18-.1-.36-.16-.54a3.84,3.84,0,0,0-2.84-2.73l-.26,0m9.28-3.6h-.13c-.59.27-1.19.53-1.78.79a1.4,1.4,0,0,0-.26.93c0,.39.28,1.12,1.5,1.67a9,9,0,0,0,1.06.4l1.47-.83a8.61,8.61,0,0,1-2.06-.62c-.59-.26-.81-.55-.83-.73a.35.35,0,0,1,.18-.3,1.15,1.15,0,0,1,.73-.17h0a1.84,1.84,0,0,1,.65.18,2.78,2.78,0,0,1,1.38,1.58l1-.59a3.91,3.91,0,0,0-1.88-2,3,3,0,0,0-1.05-.29m7.09-4-1,.63a7.64,7.64,0,0,1,.46,3.26l1.19-.87a9.69,9.69,0,0,0-.64-3"/><path class="cls-11" d="M135.22,235.28A131.27,131.27,0,0,0,152.43,238l1.29,8.77a130,130,0,0,1-18,0l-.25,0-.08-3.67q2.15.31,4.45.5c1.6.14,3.26.23,5,.28a41.62,41.62,0,0,1-9.48-3.95Z"/><polygon class="cls-22" points="344.1 294.51 349.46 288.85 354.95 288.31 348.71 282.39 348.19 286.96 341.81 293.31 344.1 294.51"/><polygon class="cls-22" points="336.01 286.85 341.38 281.19 346.86 280.64 340.62 274.73 340.11 279.3 333.72 285.64 336.01 286.85"/><polygon class="cls-22" points="336.12 300.81 330.97 306.25 330.73 311.55 324.73 305.86 329.09 305.13 334.85 298.67 336.12 300.81"/><polygon class="cls-22" points="330.06 293.17 324.9 298.61 324.66 303.9 318.66 298.22 323.02 297.49 328.78 291.02 330.06 293.17"/><path class="cls-23" d="M269.71,201.52a18.68,18.68,0,0,0-5.9,13.77c.21,5,3.23,9.87,7.84,11.69a12,12,0,0,0,13.66-4,20.9,20.9,0,0,1,15.19,16.36c1.4,7.84-3.59,18.3-10,23.47-4.81,6.68-15,12.23-22.89,11.25a20.9,20.9,0,0,1-17.16-14.28A12,12,0,0,0,253.66,246c-2.07-4.51-7-7.26-12.1-7.2a18.68,18.68,0,0,0-13.43,6.64c-.9,1-9.26-6.09-10.33-7.08-12.66-11.77-10.95-31.86.68-43.7,11.19-12.25,31.16-15,43.6-3,1.05,1,8.61,9,7.63,9.93"/><path class="cls-24" d="M276.24,194.54a18.68,18.68,0,0,0-5.9,13.77c.21,5,3.23,9.87,7.84,11.69a12,12,0,0,0,13.66-4A20.9,20.9,0,0,1,307,232.41c1.4,7.84-3.59,18.3-10,23.47-4.81,6.68-15,12.23-22.89,11.25A20.91,20.91,0,0,1,257,252.85,12,12,0,0,0,260.2,239c-2.08-4.51-7-7.26-12.1-7.2a18.67,18.67,0,0,0-13.43,6.64c-.9,1-9.27-6.09-10.33-7.08-12.65-11.77-10.94-31.86.68-43.7,11.2-12.25,31.16-15,43.6-3,1,1,8.61,9,7.63,9.93"/><path class="cls-25" d="M307.23,234.07h0Zm0,0h0m0,0h0m0,0h0m0,0a0,0,0,0,0,0,0,0,0,0,0,1,0,0m0,0s0,0,0,0,0,0,0,0m0,0v0m0,0v0m0,0a.06.06,0,0,0,0,0,.09.09,0,0,1,0,0m0,0v0m0-.05v0m0-.05v0m0,0v0m0-.2c0,.06,0,.12,0,.18s0-.12,0-.18m0,0v0m0,0v0m0,0v0m0,0v0m0,0v0m0,0v0m0,0a.29.29,0,0,0,0,0,.29.29,0,0,1,0,0m0,0v0m0,0v0m0,0v0m0,0v0m0,0v0m0,0a.23.23,0,0,1,0,0,.23.23,0,0,0,0,0m0,0v0m0,0v0m0,0v0m0,0a.17.17,0,0,1,0,0v0m0,0v0m-36.66-26.1a15.3,15.3,0,0,0,0,2c.21,5,3.23,9.87,7.84,11.69a10.84,10.84,0,0,0,3.06.71A12,12,0,0,0,291.84,216,20.9,20.9,0,0,1,307,232.41v0A20.9,20.9,0,0,0,291.84,216a12,12,0,0,1-10.59,4.67,10.84,10.84,0,0,1-3.06-.71c-4.62-1.83-7.63-6.64-7.84-11.69a15.3,15.3,0,0,1,0-2m-4.23-23.86a27.64,27.64,0,0,1,2.45,2.11c1,1,7.86,8.18,7.72,9.73.14-1.55-6.72-8.77-7.72-9.73a27.82,27.82,0,0,0-2.45-2.11m-.06,0,0,0,0,0m-.06,0h0m-.06,0h0"/><path class="cls-26" d="M233.75,192.1c0,.69-.12,1.38-.23,2.06l.29.28c0-1.39-.06-2.34-.06-2.34m18-15.08q-1-.09-2.1-.11a13.55,13.55,0,0,1-1.78,1.69,5,5,0,0,0,.09-1.67c-.52,0-1,.06-1.57.1a69.37,69.37,0,0,1-8.32,21.42l33.66,31.88,5-5.27L302,250.43c3.39-4.88,5.59-11.06,5.24-16.36h0v0h0s0,0,0,0h0a.16.16,0,0,0,0,0s0,0,0,0v0a0,0,0,0,1,0,0v0h0v0a.07.07,0,0,1,0,0v-.07a.14.14,0,0,0,0,0v-.15a.06.06,0,0,1,0,0v0a.07.07,0,0,0,0,0l0-.18a0,0,0,0,0,0,0v0h0v0h0a.4.4,0,0,0,0,0h0v0a0,0,0,0,0,0,0v0h0v0h0a.29.29,0,0,0,0,0h0v-.08h0v0h0v0h0v-.12h0v0h0v0h0v0h0v0h0v0A20.9,20.9,0,0,0,291.84,216a12,12,0,0,1-10.59,4.67,10.84,10.84,0,0,1-3.06-.71c-4.62-1.83-7.63-6.64-7.84-11.69a15.06,15.06,0,0,1,0-2,19.2,19.2,0,0,1,5.85-11.82.3.3,0,0,0,.09-.2c.14-1.55-6.72-8.77-7.72-9.73a27.64,27.64,0,0,0-2.45-2.11l0,0,0,0,0,0h0l0,0h0A27.5,27.5,0,0,0,251.74,177"/><polygon class="cls-27" points="223.84 181.2 218.81 186.51 230.28 202.06 240 191.8 223.84 181.2"/><rect class="cls-28" x="234.15" y="196.48" width="14.13" height="9.21" transform="translate(-70.65 237.96) rotate(-46.56)"/><polygon class="cls-28" points="249.51 200.82 249.42 199.12 233.02 203.05 233.1 204.74 249.51 200.82"/><rect class="cls-27" x="234.24" y="198.17" width="14.13" height="9.21" transform="translate(-71.86 238.53) rotate(-46.55)"/><path class="cls-29" d="M211.5,205a11.7,11.7,0,1,1,.59,21.58A28,28,0,0,1,211.5,205"/><path class="cls-23" d="M339.85,305l-74.07-68.37,11-11.56L348,296.57a5.85,5.85,0,0,1-8.11,8.43"/><path class="cls-25" d="M345,293.58l3,3,0,0,0,0Z"/><path class="cls-25" d="M348.75,297.57h0m0,0v0m0,0,0,0,0,0m-.7-.88a6,6,0,0,1,.7.88,6,6,0,0,0-.7-.88m0,0,0,0,0,0"/><path class="cls-30" d="M276.72,225.07,335.4,284l1.71,1.72,6.15,6.17,1.72,1.73,3,3,0,0h0l0,0h0a5.9,5.9,0,0,1,.7.88h0l0,0h0v0h0a5.85,5.85,0,0,1,.47,5.34l-75.71-71.7a13.6,13.6,0,0,0-1.47-1.2Z"/><rect class="cls-22" x="250.71" y="216.3" width="16.22" height="6.46" transform="translate(-78.55 256.48) rotate(-46.55)"/><rect class="cls-31" x="290.8" y="183.38" width="0.39" height="145.55" transform="translate(-94.93 292.99) rotate(-46.81)"/><rect class="cls-31" x="292.79" y="181.27" width="0.4" height="145.55" transform="matrix(0.68, -0.73, 0.73, 0.68, -92.76, 293.78)"/><rect class="cls-31" x="294.77" y="179.19" width="0.4" height="145.55" transform="translate(-90.88 292.14) rotate(-46.45)"/><polygon class="cls-31" points="349.28 300.45 244.02 199.6 244.29 199.31 349.55 300.16 349.28 300.45"/><path class="cls-24" d="M238.61,205.63a1,1,0,1,1-1.57-.13,1.13,1.13,0,0,1,1.57.13"/><path class="cls-24" d="M240.71,203.41a1,1,0,1,1-1.57-.13,1.13,1.13,0,0,1,1.57.13"/><path class="cls-24" d="M242.9,201.1a1,1,0,1,1-1.57-.13,1.13,1.13,0,0,1,1.57.13"/><path class="cls-24" d="M245,198.89a1,1,0,1,1-1.57-.13,1.13,1.13,0,0,1,1.57.13"/><path class="cls-32" d="M354.19,304.54a4.69,4.69,0,1,1-6.63.18,4.69,4.69,0,0,1,6.63-.18"/><path class="cls-32" d="M343.11,307a2.92,2.92,0,1,1-4.13.11,2.92,2.92,0,0,1,4.13-.11"/><path class="cls-32" d="M353.58,295.91a2.92,2.92,0,1,1-4.13.11,2.92,2.92,0,0,1,4.13-.11"/><rect class="cls-32" x="340.12" y="300.03" width="14.9" height="8.95" transform="translate(-112.52 347.45) rotate(-46.55)"/><path class="cls-23" d="M244.1,228.52a3.93,3.93,0,0,1-1.64-.5,10.21,10.21,0,0,1-2.77-2.63c-.24-.29-.47-.58-.71-.84s-.53-.62-.81-.95a11.89,11.89,0,0,0-3.6-3.3,2.44,2.44,0,0,0-2.72.31,1.3,1.3,0,0,0-.29,1,.73.73,0,0,0,.31.54.68.68,0,0,0,.86-.13.79.79,0,0,1,1.31.89,2.26,2.26,0,0,1-3.05.55,2.31,2.31,0,0,1-1-1.65,2.87,2.87,0,0,1,.68-2.22,4,4,0,0,1,4.56-.71,13,13,0,0,1,4.17,3.72c.27.32.53.63.78.92s.5.58.75.89a9,9,0,0,0,2.32,2.25,1.92,1.92,0,0,0,1.78.16.89.89,0,0,0,.44-.61.57.57,0,0,0-.13-.49,2.07,2.07,0,0,0-1.42-.49.79.79,0,0,1,.12-1.58h0a3.57,3.57,0,0,1,2.48,1,2.14,2.14,0,0,1,.5,1.82,2.47,2.47,0,0,1-1.25,1.72,3,3,0,0,1-1.67.33"/><path class="cls-23" d="M263.81,208.07a2.11,2.11,0,0,1-1.16-.45,3.57,3.57,0,0,1-1.16-2.42.79.79,0,1,1,1.57-.21,2.08,2.08,0,0,0,.57,1.39.57.57,0,0,0,.5.1.89.89,0,0,0,.58-.47,1.93,1.93,0,0,0-.26-1.77,9.09,9.09,0,0,0-2.38-2.19c-.32-.23-.63-.46-.93-.69s-.63-.48-1-.73a12.94,12.94,0,0,1-3.94-4,4,4,0,0,1,.46-4.59,2.72,2.72,0,0,1,3.88.1,2.26,2.26,0,0,1-.39,3.08.79.79,0,1,1-1-1.26.68.68,0,0,0,.08-.86,1.1,1.1,0,0,0-1.51.07,2.44,2.44,0,0,0-.17,2.73,11.91,11.91,0,0,0,3.49,3.42l1,.76c.28.22.58.44.88.66a10.21,10.21,0,0,1,2.78,2.62,3.47,3.47,0,0,1,.35,3.29A2.48,2.48,0,0,1,264.5,208a2.31,2.31,0,0,1-.68.06"/><path class="cls-5" d="M116.64,105.11c.08-.16.15-.33.22-.49l25.83,8.53,12.75-12.5a89.71,89.71,0,0,0,9.48-3.42l.72-.3c1.71.26,3.9.85,4.52,1,6.15,1.08,12.53,1.39,18.5-.76a23.44,23.44,0,0,0,5.06-2.61c1.2.45,2.41.86,3.66,1.22a33.27,33.27,0,0,0,5.06,1.1l.5,6.16,24.16,32.67L225,172,196.83,212.7l-40.12,11.6-46.6-14.38L94.28,156.08l-4.75-17.17L86,133.81c13.61-3.73,24.32-15.88,30.64-28.69"/><path class="cls-17" d="M247.86,178.61s14.8-10.95-.19-31.24a10.58,10.58,0,0,1,7.65,3.22s-5.56-16.15-25-23.25c0,0,7.09-1.72,9.47-.74A38.76,38.76,0,0,0,218.7,118l-8.37-21.05,9.81.71s-.66-1.63-4.34-3.54c-5.73,3.67-12,3.53-18.43,1.63-1.24-.37-2.45-.78-3.65-1.22a23.49,23.49,0,0,1-5.06,2.62c-6,2.15-12.36,1.84-18.5.76-.62-.11-2.81-.7-4.52-1l-.71.3c-9.87,4.14-19.28,6.6-30.1,5.5A18.77,18.77,0,0,1,124.36,98a45.55,45.55,0,0,0-3.1,4s-1.16-.45-3.2-1.08a16.38,16.38,0,0,1-1.42,4.27c-4.72,9.56-11.87,18.74-20.86,24.35-1.2,2.36-1.85,3.9-1.85,3.9a24.25,24.25,0,0,1-2.42-1.57,33.69,33.69,0,0,1-11.88,3.11c2.9,3.8,6.28,7.93,10.28,12.44,0,0-15.78,17-16.79,33,0,0,7.1-15.87,12.55-20.32,0,0-18.19,32.5-2.88,50.45,0,0-2.5-11.06-.44-16.34.65,4,5.75,32.46,22.24,43.12,0,0-7.07-12.57-8.27-18.69,0,0,10.28,24.26,48.48,25.33a45,45,0,0,1-19.18-11.22s51.37,18,83.24-8.92h0l.77-.64c3.83-3.32,9.23-9.45,12.94-19.65,0,0-.24,10.92-1.57,12.84,0,0,12-11.71,12.77-24.17,0,0,.35,11-.22,13.26,0,0,12.51-15.94,13.6-34.31,0,0,1.21,6.24.73,7.56M146.37,153.93c-4.87-14.79-2-39.43,10.24-43.46s29.18,14.1,34,28.88-.86,27.14-13.09,31.16-26.33-1.8-31.2-16.59m-63.8,39.63a5.07,5.07,0,0,1,.31-.56s0,.18,0,.5l-.36.06"/><path class="cls-5" d="M152.1,207.14c15.37,4.55,33.05,1.46,52.62-9.2a.85.85,0,1,0-.81-1.49c-20.91,11.4-39.54,14-55.37,7.67-24.63-9.81-34-38.14-34.14-38.42a.85.85,0,1,0-1.62.52c.1.29,9.77,29.37,35.13,39.47q2.06.82,4.18,1.45"/><path class="cls-5" d="M103.86,170s1.81-24,18.27-8.33c0,0-14-10.57-18,12"/><path class="cls-5" d="M199.56,158.53c-9.36,5.88,15.06,8.87,15.06,8.87s4-8,4.39-14.54-10.1-.22-19.45,5.67"/><g class="cls-33"><rect class="cls-34" x="78.1" y="139.63" width="36.78" height="26.95" transform="translate(-64.26 236.24) rotate(-85.13)"/></g><path class="cls-35" d="M39.8,208.4s17.55-1.39,9.68-8.68-9.68,8.68-9.68,8.68"/><path class="cls-35" d="M39.8,208.38s-3.07,17.33-9.57,8.8,9.57-8.8,9.57-8.8"/><polygon class="cls-13" points="38.34 206.96 28.46 204.35 36.71 196.19 38.34 206.96"/><path class="cls-17" d="M162.37,153.31s19.67,28.59,26.53-6.65c0,0-7.51,24.94-26.53,6.65"/><path class="cls-5" d="M194.75,139.4s13.44,24.08,19.35-6.44c0,0-6.1,21.66-19.35,6.44"/><path class="cls-25" d="M183.07,74.26A50.47,50.47,0,0,1,203.21,80a36.08,36.08,0,0,1,13.63,13.2,17.07,17.07,0,0,0-6.13,3.21,20.25,20.25,0,0,1-7.1.58l-1.17-.13h0a31.92,31.92,0,0,1-4.09-.83h-.05l-.08,0h0l-.78-.22-.06,0c-1.24-.37-2.45-.78-3.65-1.22a23.42,23.42,0,0,1-5.06,2.62,31.42,31.42,0,0,1-13.41,1.44c-1.71-.15-3.41-.38-5.09-.68-.62-.11-2.81-.7-4.52-1l-.71.3-2.31.94c-2.4.95-4.78,1.78-7.17,2.48h0a53,53,0,0,1-19.78,2.16l-.83-.08A18.77,18.77,0,0,1,124.36,98a45.55,45.55,0,0,0-3.1,4s-1.16-.45-3.2-1.08a16.41,16.41,0,0,1-1.19,3.78h0c-.07.16-.14.32-.22.49l-.05.11h0a66.1,66.1,0,0,1-13,18.11l2.19-10.93c16.33-19,36.77-35.16,60.94-37.82a84.89,84.89,0,0,1,16.37-.32"/><path class="cls-36" d="M210.33,96.94,217.12,114,220,100.75a28.64,28.64,0,0,0-1-3.19Zm6.5-3.77a17,17,0,0,0-6.13,3.21,18.35,18.35,0,0,0,5.09-2.28,17.33,17.33,0,0,1,2.27,1.39q-.57-1.18-1.24-2.32"/><path class="cls-36" d="M220,100.75a25.34,25.34,0,0,1,.65,9.87,17.61,17.61,0,0,1-2.22,6.73L217.12,114Z"/><path class="cls-25" d="M161.39,110a11.93,11.93,0,0,0-4.78.52,13.7,13.7,0,0,0-6.93,5.62l2.4.18c9.11.78,18.07,2.61,27.06,4.33-5.43-5.83-11.86-10.15-17.75-10.65m-44.81-4.74h0m.28-.59c-.07.16-.14.33-.22.49l.23-.49h0m45.75-6.45c-2.4.95-4.78,1.78-7.18,2.48h0c2.39-.7,4.78-1.54,7.18-2.49M198.34,96a32.4,32.4,0,0,0,4.09.83h0a32.4,32.4,0,0,1-4.09-.82m-.05,0h0m-.08,0h0m-.84-.24.06,0-.06,0"/><path class="cls-34" d="M215.8,94.11a17.54,17.54,0,0,1,2.27,1.39q.49,1,.9,2.07l-8.64-.62L217.12,114l1.33,3.34a12.34,12.34,0,0,1-1.32,1.8c-4.21,4.76-11.23,5.2-17.72,4.64-.8-.07-1.59-.15-2.37-.24-6-.71-11.95-1.8-17.89-2.94-5.43-5.83-11.86-10.15-17.75-10.65a12,12,0,0,0-4.78.52,13.71,13.71,0,0,0-6.93,5.62c-2.1-.13-4.2-.21-6.32-.2a76.77,76.77,0,0,0-26.13,4.28c-1.73.63-9.4,3.21-14.25,6.08l.59-2.91a66.1,66.1,0,0,0,13-18.11h0l.05-.11.23-.49a16.42,16.42,0,0,0,1.19-3.78c2,.63,3.2,1.07,3.2,1.07a45.34,45.34,0,0,1,3.1-4,18.78,18.78,0,0,0,10.47,4.77l.83.08a53,53,0,0,0,19.78-2.15c2.39-.7,4.78-1.54,7.18-2.49q1.15-.45,2.31-.94l.72-.3c1.71.26,3.9.85,4.52,1,1.68.3,3.39.53,5.09.68a31.41,31.41,0,0,0,13.41-1.44,23.41,23.41,0,0,0,5.06-2.62c1.2.45,2.41.86,3.65,1.22l.06,0,.78.22h0l.08,0h.05a31.92,31.92,0,0,0,4.09.83l1.17.13a20.25,20.25,0,0,0,7.1-.58,18.33,18.33,0,0,0,5.09-2.28"/><path class="cls-16" d="M86.16,106.17c-.37-.08-.73-.16-1.12-.21l-.09,0h0a11.74,11.74,0,0,0-1.38-.1c-9.16,0-17.88,9.9-19.47,22.22-1.44,11.14,3.46,20.38,11.2,22.06v0l22.06,4.09L106.25,110Z"/><path class="cls-1" d="M85,105.95h0l.09,0a10.65,10.65,0,0,1,1.11.21l19.28,3.64c8.33,1,13.74,10.62,12.24,22.26-1.59,12.31-10.31,22.26-19.47,22.22a5.55,5.55,0,0,1-.58,0l-.28,0v0l-.26,0a12,12,0,0,1-2.25-.42L75.3,150.16v0c-7.73-1.69-12.63-10.92-11.2-22.06,1.59-12.31,10.31-22.26,19.47-22.22l.77,0,.6.06"/><path class="cls-37" d="M64.18,127.53c0,.18-.05.35-.07.53a29.48,29.48,0,0,0-.23,4.82c-.18-1.41-.37-4,.31-5.36"/><path class="cls-38" d="M82.29,133a41.67,41.67,0,0,0,0,8.08c3.36,1,6,1.8,6.16,2l0,0c.64.05,3.69-7.06,3.69-7.06l-9.89-3m-5.63-1.7a36.72,36.72,0,0,0,.53,8.29l3.92,1.14a42.35,42.35,0,0,1,.06-8.07l-4.51-1.36m-6.42-1.95a27.73,27.73,0,0,0,.65,8.43l5.24,1.5A38.78,38.78,0,0,1,75.7,131l-5.46-1.65m-6.05-1.83h0c0,.18-.05.35-.07.53a29.32,29.32,0,0,0-.23,4.82c.08.6.15,1,.15,1l2.53,2.67,3.09.88a28.43,28.43,0,0,1-.52-8.42l-4.93-1.49"/><path class="cls-39" d="M81.17,132.67a42.46,42.46,0,0,0-.06,8.07l1.18.35a41.58,41.58,0,0,1,0-8.08l-1.12-.34M75.7,131a38.59,38.59,0,0,0,.43,8.28l1.05.31a36.67,36.67,0,0,1-.53-8.3l-1-.29m-6.58-2a28.4,28.4,0,0,0,.52,8.42l1.25.36a27.64,27.64,0,0,1-.65-8.43L69.12,129"/><path class="cls-16" d="M76.35,156.16c1.59-12.31-4.55-22.32-13.71-22.37S44.76,143.7,43.17,156s4.55,22.33,13.71,22.37,17.88-9.91,19.47-22.22"/><polygon class="cls-16" points="64.02 133.88 85.31 137.9 76.42 182.19 54.36 178.1 64.02 133.88"/><path class="cls-13" d="M96.75,160C98.34,147.7,92.2,137.68,83,137.64s-17.88,9.9-19.47,22.22,4.55,22.33,13.71,22.37,17.88-9.9,19.47-22.22"/><path class="cls-1" d="M64,133.89h0l.09,0c.38,0,.75.13,1.12.21l19.28,3.64c8.33,1.05,13.74,10.62,12.24,22.26-1.59,12.31-10.31,22.26-19.47,22.22a5.43,5.43,0,0,1-.57,0l-.28,0v0l-.26,0a11.91,11.91,0,0,1-2.25-.42L54.37,178.1v0c-7.73-1.69-12.64-10.92-11.2-22.06,1.59-12.31,10.3-22.26,19.47-22.22.26,0,.52,0,.77,0l.61.06"/><path class="cls-13" d="M129.68,57.61c28.28-29,82-29.11,96.57,14.33,8.44,25.23-16.45,34.83-35.45,32.81-5.6-.59-11.15-1.75-16.73-2.52-12.2-1.67-24.72-1.43-36,2.14S116.68,115,111.35,124.95c-3.62,6.73-10.61-1.07-11.26-6-.86-6.46,2.68-14.78,4.68-20.66a108.29,108.29,0,0,1,24.93-40.66"/><polygon class="cls-5" points="131.35 278.64 131.15 278.1 298.82 214.9 299.02 215.44 166.05 265.56 301.21 216.99 301.4 217.53 131.35 278.64"/><path class="cls-32" d="M130.16,276.2S251.91,228.47,297.06,210l7.86,6.22-4.87,3.8-3.29-6.5L131.26,278.37Z"/><path class="cls-13" d="M127.37,275.94h0c-3.22,1.3-6.71,2.84-8.27,5.94a2.9,2.9,0,0,0-.33,2.22,2.34,2.34,0,0,0,2.14,1.39,5.25,5.25,0,0,0,2.58-.73,14.82,14.82,0,0,0,7-8,18.6,18.6,0,0,0-6.08,9.59c-1.44,5.57,4.13,4.91,6.43,1.24,1.69-2.68,2.6-6.64,1.65-9.73-.83-2.68-3-4.51-5.41-5.8-2.18-1.18-8.74-4.51-10.55-1.54-2.94,4.82,8.27,6.22,10.84,5.38"/><path class="cls-17" d="M129.4,273.06c-2-2.17-5.35-6-4.23-9.22,2.14-6.19,7.9,3.16,9.68,5.78A78.45,78.45,0,0,1,131,258.16a23.46,23.46,0,0,1-.85-6.43c.09-1.57.69-5.29,2.94-5.15s3.43,4.36,3.93,6.09a21.52,21.52,0,0,1-1.41,15.16c1.73-3.41,3.55-6.79,5.55-10.05a55.51,55.51,0,0,1,4.15-6c1.18-1.46,2.86-3.69,4.92-3.93,5.78-.66-.47,10.21-1.44,11.91-3.82,6.68-8.2,10.7-14,15.61l-.41.35c2.45,2.91,10.47,11.93,6.9,15.92-4.81,5-10.66-11.49-9.7-15.55Z"/><path class="cls-13" d="M117.69,132.06c1.59-12.31-4.55-22.33-13.71-22.37s-17.88,9.9-19.47,22.21,4.55,22.33,13.71,22.37,17.88-9.9,19.47-22.22"/></svg>