<svg xmlns="http://www.w3.org/2000/svg" viewBox="0 0 230 275"><defs><style>.cls-1{isolation:isolate;}.cls-2{fill:#961f1f;}.cls-3{fill:none;stroke:#bbbdbf;stroke-linecap:round;stroke-miterlimit:10;stroke-width:4.1px;}.cls-4{fill:#fff;}.cls-5{fill:#231f20;opacity:0.2;mix-blend-mode:multiply;}</style></defs><title>Artboard 9</title><g class="cls-1"><g id="Layer_1" data-name="Layer 1"><polygon class="cls-2" points="115.94 39.98 189.64 54.33 116.64 72.27 115.94 39.98"/><line class="cls-3" x1="116.4" y1="36.53" x2="116.4" y2="84.07"/><path class="cls-2" d="M18.77,196.82v43.4S46.45,253.65,89,258.27c26.11-18.13,28.08-43,28.08-43s2,24.87,28.12,43a253,253,0,0,0,70.23-18.09V195.65Z"/><path class="cls-4" d="M5.27,194.4s113.27,47.12,220,0V172.2S144.54,123.07,116.4,80.45c0,0-53.07,67.06-111.13,94Z"/><path class="cls-2" d="M5.27,174.47V194.4a244,244,0,0,0,25.87,8.5V181.35c62.62-26.54,85.26-100.9,85.26-100.9S63.33,147.51,5.27,174.47Z"/><path class="cls-2" d="M126.86,215.28a278.28,278.28,0,0,0,42.32-4l-1.38-20S125.49,132.06,116.4,80.45c0,0,6.19,81.56,10.46,113.33Z"/><path class="cls-5" d="M225.27,194.38V172.2c-78.64,47.12-220,2.27-220,2.27V194.4S118.55,241.52,225.27,194.38Z"/></g></g></svg>